M48
; DRILL file {KiCad (6.0.0)} date Sun Feb 18 01:27:46 2024
; FORMAT={-:-/ absolute / metric / decimal}
; #@! TF.CreationDate,2024-02-18T01:27:46-06:00
; #@! TF.GenerationSoftware,Kicad,Pcbnew,(6.0.0)
; #@! TF.FileFunction,Plated,1,2,PTH
FMAT,2
METRIC
; #@! TA.AperFunction,Plated,PTH,ViaDrill
T1C0.400
; #@! TA.AperFunction,Plated,PTH,ViaDrill
T2C0.500
; #@! TA.AperFunction,Plated,PTH,ComponentDrill
T3C0.650
; #@! TA.AperFunction,Plated,PTH,ComponentDrill
T4C0.711
; #@! TA.AperFunction,Plated,PTH,ComponentDrill
T5C0.737
; #@! TA.AperFunction,Plated,PTH,ComponentDrill
T6C0.800
; #@! TA.AperFunction,Plated,PTH,ComponentDrill
T7C0.864
; #@! TA.AperFunction,Plated,PTH,ComponentDrill
T8C1.100
%
G90
G05
T1
X103.669Y-93.8
X106.0Y-124.0
X110.5Y-124.5
X111.75Y-162.75
X115.5Y-130.0
X115.5Y-131.5
X116.0Y-159.5
X116.5Y-135.0
X116.676Y-131.824
X117.0Y-133.0
X118.0Y-95.0
X119.0Y-148.944
X119.0Y-152.0
X119.5Y-168.0
X123.0Y-165.107
X124.0Y-159.0
X124.126Y-166.053
X125.5Y-167.0
X130.583Y-127.917
X131.5Y-81.5
X131.95Y-84.856
X132.045Y-82.591
X133.0Y-83.909
X133.0Y-130.5
X137.0Y-106.5
X137.0Y-118.5
X138.0Y-110.0
X139.4Y-120.4
X139.5Y-128.5
X144.5Y-117.0
X145.0Y-145.8
X145.669Y-127.331
X147.4Y-130.8
X157.415Y-153.427
X159.571Y-109.73
X161.0Y-116.5
X162.0Y-153.0
X162.111Y-110.677
X163.0Y-84.5
X163.5Y-115.5
X164.651Y-111.623
X165.0Y-153.0
X165.411Y-154.75
X165.986Y-114.5
X167.191Y-112.57
X168.008Y-154.508
X168.063Y-153.224
X168.484Y-113.516
X170.847Y-154.347
X171.0Y-153.0
X173.685Y-154.185
X173.831Y-152.669
X176.331Y-153.831
X176.5Y-152.5
X180.0Y-152.5
X180.081Y-154.081
X184.0Y-151.0
X184.4Y-127.4
X186.5Y-150.3
X187.0Y-153.353
X187.5Y-151.247
X188.5Y-130.5
X190.5Y-131.5
X193.5Y-94.5
X194.65Y-150.3
X195.0Y-95.5
X195.65Y-153.3
X196.0Y-96.5
X196.65Y-154.3
X197.0Y-97.5
X197.65Y-159.3
X198.0Y-98.5
X198.596Y-158.209
X199.596Y-156.3
X200.65Y-157.3
X202.15Y-162.3
X203.114Y-161.193
X204.15Y-160.3
X205.0Y-91.5
X205.15Y-155.3
X206.0Y-92.5
X206.15Y-152.3
X206.65Y-163.3
X207.0Y-93.5
X207.15Y-151.3
X207.65Y-164.5
X208.703Y-165.5
X209.65Y-166.5
X210.65Y-167.5
X214.6Y-123.4
X215.0Y-88.5
X215.147Y-129.8
X217.4Y-143.6
X220.5Y-94.5
X222.0Y-95.5
X222.15Y-152.3
X223.0Y-96.5
X223.15Y-154.3
X224.0Y-97.5
X224.15Y-159.3
X225.0Y-98.5
X225.15Y-158.3
X226.15Y-156.3
X227.15Y-157.3
X228.65Y-163.3
X229.65Y-162.3
X230.65Y-161.3
X231.65Y-160.3
X232.0Y-91.5
X232.65Y-155.3
X233.0Y-92.5
X233.65Y-153.3
X234.0Y-93.5
X234.5Y-164.5
X234.65Y-151.3
X235.5Y-99.5
X235.5Y-165.5
X236.5Y-100.5
X236.5Y-166.5
X237.5Y-101.5
X237.5Y-167.5
X238.5Y-102.5
X239.5Y-103.5
X240.5Y-104.5
X241.0Y-125.5
X241.446Y-128.5
X241.5Y-105.5
X242.5Y-106.5
X247.5Y-102.553
X248.803Y-150.147
X249.5Y-103.5
X249.532Y-153.246
X250.5Y-104.5
X250.856Y-154.254
X251.5Y-105.5
X251.803Y-159.246
X252.5Y-106.5
X253.0Y-158.056
X253.749Y-156.147
X254.803Y-157.147
X256.5Y-162.246
X257.49Y-161.254
X258.4Y-160.2
X259.0Y-99.5
X259.5Y-155.201
X260.0Y-100.5
X260.5Y-152.147
X260.803Y-163.147
X261.0Y-101.5
X261.334Y-151.0
X261.803Y-164.5
X262.803Y-165.5
X263.856Y-166.5
X264.0Y-88.5
X265.0Y-167.5
X268.596Y-150.0
X269.5Y-128.0
X271.0Y-149.5
X272.817Y-141.698
X274.5Y-102.5
X276.0Y-152.0
X276.5Y-103.5
X277.0Y-154.193
X277.5Y-104.5
X278.0Y-159.04
X278.5Y-105.5
X279.0Y-158.04
X279.5Y-106.5
X280.0Y-156.147
X281.0Y-157.0
X282.5Y-163.2
X283.591Y-162.455
X284.5Y-161.5
X285.5Y-160.0
X286.0Y-99.5
X286.5Y-155.0
X287.0Y-100.5
X287.5Y-153.5
X288.0Y-101.5
X288.5Y-151.0
X290.938Y-164.452
X291.901Y-165.2
X292.574Y-166.5
X293.5Y-167.5
T2
X107.0Y-145.0
X107.5Y-173.0
X109.0Y-153.0
X114.0Y-107.0
X114.0Y-110.0
X114.0Y-113.0
X114.0Y-116.0
X114.0Y-119.0
X114.0Y-122.0
X114.2Y-153.0
X115.0Y-172.0
X115.5Y-157.0
X147.5Y-81.0
X159.0Y-82.0
X174.0Y-92.0
X181.5Y-134.5
X189.5Y-120.0
X189.546Y-125.5
X191.5Y-149.0
X216.5Y-118.0
X217.39Y-124.0
X217.995Y-138.505
X218.5Y-149.0
X245.5Y-131.0
X245.5Y-142.0
X269.0Y-120.0
X270.0Y-137.5
X270.0Y-148.0
X273.0Y-148.0
T3
X135.19Y-109.88
X135.19Y-125.12
X142.81Y-109.88
X142.81Y-125.12
X161.03Y-82.99
X161.03Y-90.61
X176.27Y-82.99
X176.27Y-90.61
T4
X105.5Y-80.69
X105.5Y-83.23
X105.5Y-85.77
X105.5Y-88.31
X107.0Y-130.15
X107.0Y-132.69
X107.0Y-135.23
X107.0Y-137.77
X107.0Y-140.31
X107.0Y-142.85
X109.46Y-75.5
X112.0Y-75.5
X118.15Y-75.5
X120.69Y-75.5
X123.23Y-75.5
X125.77Y-75.5
X128.31Y-75.5
X130.85Y-75.5
X145.84Y-164.23
X145.84Y-166.77
X148.38Y-164.23
X148.38Y-166.77
X150.92Y-164.23
X150.92Y-166.77
X153.46Y-164.23
X153.46Y-166.77
X156.0Y-164.23
X156.0Y-166.77
X158.54Y-164.23
X158.54Y-166.77
X160.65Y-75.5
X161.08Y-164.23
X161.08Y-166.77
X163.19Y-75.5
X163.62Y-164.23
X163.62Y-166.77
X165.73Y-75.5
X166.16Y-164.23
X166.16Y-166.77
X168.27Y-75.5
X170.81Y-75.5
X173.35Y-75.5
X206.61Y-84.5
X209.15Y-84.5
X211.69Y-84.5
X214.23Y-84.5
X216.77Y-84.5
X219.31Y-84.5
X221.85Y-84.5
X224.39Y-84.5
X229.61Y-84.5
X232.15Y-84.5
X234.69Y-84.5
X237.23Y-84.5
X239.77Y-84.5
X242.31Y-84.5
X244.85Y-84.5
X247.39Y-84.5
T5
X193.41Y-109.2
X193.41Y-111.74
X193.41Y-114.28
X193.41Y-116.82
X193.41Y-119.36
X193.41Y-121.9
X193.41Y-124.44
X193.41Y-126.98
X193.41Y-129.52
X193.41Y-132.06
X193.41Y-134.6
X193.41Y-137.14
X193.41Y-139.68
X193.41Y-142.22
X193.41Y-144.76
X193.41Y-147.3
X208.65Y-109.2
X208.65Y-111.74
X208.65Y-114.28
X208.65Y-116.82
X208.65Y-119.36
X208.65Y-121.9
X208.65Y-124.44
X208.65Y-126.98
X208.65Y-129.52
X208.65Y-132.06
X208.65Y-134.6
X208.65Y-137.14
X208.65Y-139.68
X208.65Y-142.22
X208.65Y-144.76
X208.65Y-147.3
X220.65Y-109.2
X220.65Y-111.74
X220.65Y-114.28
X220.65Y-116.82
X220.65Y-119.36
X220.65Y-121.9
X220.65Y-124.44
X220.65Y-126.98
X220.65Y-129.52
X220.65Y-132.06
X220.65Y-134.6
X220.65Y-137.14
X220.65Y-139.68
X220.65Y-142.22
X220.65Y-144.76
X220.65Y-147.3
X235.89Y-109.2
X235.89Y-111.74
X235.89Y-114.28
X235.89Y-116.82
X235.89Y-119.36
X235.89Y-121.9
X235.89Y-124.44
X235.89Y-126.98
X235.89Y-129.52
X235.89Y-132.06
X235.89Y-134.6
X235.89Y-137.14
X235.89Y-139.68
X235.89Y-142.22
X235.89Y-144.76
X235.89Y-147.3
X247.58Y-108.74
X247.58Y-111.28
X247.58Y-113.82
X247.58Y-116.36
X247.58Y-118.9
X247.58Y-121.44
X247.58Y-123.98
X247.58Y-126.52
X247.58Y-129.06
X247.58Y-131.6
X247.58Y-134.14
X247.58Y-136.68
X247.58Y-139.22
X247.58Y-141.76
X247.58Y-144.3
X247.58Y-146.84
X262.82Y-108.74
X262.82Y-111.28
X262.82Y-113.82
X262.82Y-116.36
X262.82Y-118.9
X262.82Y-121.44
X262.82Y-123.98
X262.82Y-126.52
X262.82Y-129.06
X262.82Y-131.6
X262.82Y-134.14
X262.82Y-136.68
X262.82Y-139.22
X262.82Y-141.76
X262.82Y-144.3
X262.82Y-146.84
X274.65Y-108.7
X274.65Y-111.24
X274.65Y-113.78
X274.65Y-116.32
X274.65Y-118.86
X274.65Y-121.4
X274.65Y-123.94
X274.65Y-126.48
X274.65Y-129.02
X274.65Y-131.56
X274.65Y-134.1
X274.65Y-136.64
X274.65Y-139.18
X274.65Y-141.72
X274.65Y-144.26
X274.65Y-146.8
X289.89Y-108.7
X289.89Y-111.24
X289.89Y-113.78
X289.89Y-116.32
X289.89Y-118.86
X289.89Y-121.4
X289.89Y-123.94
X289.89Y-126.48
X289.89Y-129.02
X289.89Y-131.56
X289.89Y-134.1
X289.89Y-136.64
X289.89Y-139.18
X289.89Y-141.72
X289.89Y-144.26
X289.89Y-146.8
T6
X151.951Y-123.1
X151.951Y-125.64
X151.951Y-128.18
X151.951Y-130.72
X151.951Y-133.26
X151.951Y-135.8
X151.951Y-138.34
X151.951Y-140.88
X151.951Y-143.42
X154.491Y-120.56
X154.491Y-123.1
X154.491Y-125.64
X154.491Y-128.18
X154.491Y-130.72
X154.491Y-133.26
X154.491Y-135.8
X154.491Y-138.34
X154.491Y-140.88
X154.491Y-143.42
X154.491Y-145.96
X157.031Y-120.56
X157.031Y-123.1
X157.031Y-143.42
X157.031Y-145.96
X159.571Y-120.56
X159.571Y-123.1
X159.571Y-143.42
X159.571Y-145.96
X162.111Y-120.56
X162.111Y-123.1
X162.111Y-143.42
X162.111Y-145.96
X164.651Y-120.56
X164.651Y-123.1
X164.651Y-143.42
X164.651Y-145.96
X167.191Y-120.56
X167.191Y-123.1
X167.191Y-143.42
X167.191Y-145.96
X169.731Y-120.56
X169.731Y-123.1
X169.731Y-143.42
X169.731Y-145.96
X172.271Y-120.56
X172.271Y-123.1
X172.271Y-143.42
X172.271Y-145.96
X174.811Y-120.56
X174.811Y-123.1
X174.811Y-125.64
X174.811Y-128.18
X174.811Y-130.72
X174.811Y-133.26
X174.811Y-135.8
X174.811Y-138.34
X174.811Y-140.88
X174.811Y-143.42
X174.811Y-145.96
X177.351Y-123.1
X177.351Y-125.64
X177.351Y-128.18
X177.351Y-130.72
X177.351Y-133.26
X177.351Y-135.8
X177.351Y-138.34
X177.351Y-140.88
X177.351Y-143.42
T7
X124.196Y-134.65
X124.196Y-137.19
X124.196Y-139.73
X124.196Y-142.27
X124.196Y-144.81
X124.196Y-147.35
X126.736Y-132.11
X126.736Y-134.65
X126.736Y-137.19
X126.736Y-139.73
X126.736Y-142.27
X126.736Y-144.81
X126.736Y-147.35
X126.736Y-149.89
X129.276Y-132.11
X129.276Y-134.65
X129.276Y-147.35
X129.276Y-149.89
X131.816Y-132.11
X131.816Y-134.65
X131.816Y-147.35
X131.816Y-149.89
X134.356Y-132.11
X134.356Y-134.65
X134.356Y-147.35
X134.356Y-149.89
X135.76Y-86.45
X135.76Y-88.99
X135.76Y-91.53
X135.76Y-94.07
X135.76Y-96.61
X135.76Y-99.15
X136.896Y-132.11
X136.896Y-134.65
X136.896Y-147.35
X136.896Y-149.89
X138.3Y-83.91
X138.3Y-86.45
X138.3Y-88.99
X138.3Y-91.53
X138.3Y-94.07
X138.3Y-96.61
X138.3Y-99.15
X138.3Y-101.69
X139.436Y-132.11
X139.436Y-134.65
X139.436Y-137.19
X139.436Y-139.73
X139.436Y-142.27
X139.436Y-144.81
X139.436Y-147.35
X139.436Y-149.89
X140.84Y-83.91
X140.84Y-86.45
X140.84Y-99.15
X140.84Y-101.69
X141.976Y-134.65
X141.976Y-137.19
X141.976Y-139.73
X141.976Y-142.27
X141.976Y-144.81
X141.976Y-147.35
X143.38Y-83.91
X143.38Y-86.45
X143.38Y-99.15
X143.38Y-101.69
X145.92Y-83.91
X145.92Y-86.45
X145.92Y-99.15
X145.92Y-101.69
X148.46Y-83.91
X148.46Y-86.45
X148.46Y-99.15
X148.46Y-101.69
X151.0Y-83.91
X151.0Y-86.45
X151.0Y-88.99
X151.0Y-91.53
X151.0Y-94.07
X151.0Y-96.61
X151.0Y-99.15
X151.0Y-101.69
X153.54Y-86.45
X153.54Y-88.99
X153.54Y-91.53
X153.54Y-94.07
X153.54Y-96.61
X153.54Y-99.15
T8
X105.25Y-170.25
X105.25Y-176.75
X109.75Y-170.25
X109.75Y-176.75
T0
M30
