%TF.GenerationSoftware,KiCad,Pcbnew,(6.0.0)*%
%TF.CreationDate,2024-02-18T00:07:20-06:00*%
%TF.ProjectId,MCD,4d43442e-6b69-4636-9164-5f7063625858,rev?*%
%TF.SameCoordinates,Original*%
%TF.FileFunction,Soldermask,Bot*%
%TF.FilePolarity,Negative*%
%FSLAX46Y46*%
G04 Gerber Fmt 4.6, Leading zero omitted, Abs format (unit mm)*
G04 Created by KiCad (PCBNEW (6.0.0)) date 2024-02-18 00:07:20*
%MOMM*%
%LPD*%
G01*
G04 APERTURE LIST*
G04 Aperture macros list*
%AMRoundRect*
0 Rectangle with rounded corners*
0 $1 Rounding radius*
0 $2 $3 $4 $5 $6 $7 $8 $9 X,Y pos of 4 corners*
0 Add a 4 corners polygon primitive as box body*
4,1,4,$2,$3,$4,$5,$6,$7,$8,$9,$2,$3,0*
0 Add four circle primitives for the rounded corners*
1,1,$1+$1,$2,$3*
1,1,$1+$1,$4,$5*
1,1,$1+$1,$6,$7*
1,1,$1+$1,$8,$9*
0 Add four rect primitives between the rounded corners*
20,1,$1+$1,$2,$3,$4,$5,0*
20,1,$1+$1,$4,$5,$6,$7,0*
20,1,$1+$1,$6,$7,$8,$9,0*
20,1,$1+$1,$8,$9,$2,$3,0*%
G04 Aperture macros list end*
%ADD10C,1.270000*%
%ADD11C,1.244600*%
%ADD12C,2.000000*%
%ADD13C,1.371600*%
%ADD14RoundRect,0.102000X0.579000X0.579000X-0.579000X0.579000X-0.579000X-0.579000X0.579000X-0.579000X0*%
%ADD15C,1.362000*%
%ADD16RoundRect,0.102000X-0.579000X0.579000X-0.579000X-0.579000X0.579000X-0.579000X0.579000X0.579000X0*%
%ADD17RoundRect,0.102000X-0.700000X-0.700000X0.700000X-0.700000X0.700000X0.700000X-0.700000X0.700000X0*%
%ADD18C,1.604000*%
%ADD19RoundRect,0.250000X-0.350000X-0.450000X0.350000X-0.450000X0.350000X0.450000X-0.350000X0.450000X0*%
%ADD20RoundRect,0.250000X0.350000X0.450000X-0.350000X0.450000X-0.350000X-0.450000X0.350000X-0.450000X0*%
%ADD21RoundRect,0.250000X0.475000X-0.337500X0.475000X0.337500X-0.475000X0.337500X-0.475000X-0.337500X0*%
%ADD22RoundRect,0.250000X0.450000X-0.350000X0.450000X0.350000X-0.450000X0.350000X-0.450000X-0.350000X0*%
%ADD23RoundRect,0.250000X0.337500X0.475000X-0.337500X0.475000X-0.337500X-0.475000X0.337500X-0.475000X0*%
%ADD24RoundRect,0.250000X-0.450000X0.350000X-0.450000X-0.350000X0.450000X-0.350000X0.450000X0.350000X0*%
%ADD25RoundRect,0.250000X-0.475000X0.337500X-0.475000X-0.337500X0.475000X-0.337500X0.475000X0.337500X0*%
G04 APERTURE END LIST*
D10*
%TO.C,J8*%
X130850000Y-75500000D03*
X128310000Y-75500000D03*
X125770000Y-75500000D03*
X123230000Y-75500000D03*
X120690000Y-75500000D03*
X118150000Y-75500000D03*
%TD*%
D11*
%TO.C,U4*%
X208650000Y-147300000D03*
X208650000Y-144760000D03*
X208650000Y-142220000D03*
X208650000Y-139680000D03*
X208650000Y-137140000D03*
X208650000Y-134600000D03*
X208650000Y-132060000D03*
X208650000Y-129520000D03*
X208650000Y-126980000D03*
X208650000Y-124440000D03*
X208650000Y-121900000D03*
X208650000Y-119360000D03*
X208650000Y-116820000D03*
X208650000Y-114280000D03*
X208650000Y-111740000D03*
X208650000Y-109200000D03*
X193410000Y-109200000D03*
X193410000Y-111740000D03*
X193410000Y-114280000D03*
X193410000Y-116820000D03*
X193410000Y-119360000D03*
X193410000Y-121900000D03*
X193410000Y-124440000D03*
X193410000Y-126980000D03*
X193410000Y-129520000D03*
X193410000Y-132060000D03*
X193410000Y-134600000D03*
X193410000Y-137140000D03*
X193410000Y-139680000D03*
X193410000Y-142220000D03*
X193410000Y-144760000D03*
X193410000Y-147300000D03*
%TD*%
D10*
%TO.C,J4*%
X105500000Y-80690000D03*
X105500000Y-83230000D03*
X105500000Y-85770000D03*
X105500000Y-88310000D03*
%TD*%
D11*
%TO.C,U3*%
X289890000Y-146800000D03*
X289890000Y-144260000D03*
X289890000Y-141720000D03*
X289890000Y-139180000D03*
X289890000Y-136640000D03*
X289890000Y-134100000D03*
X289890000Y-131560000D03*
X289890000Y-129020000D03*
X289890000Y-126480000D03*
X289890000Y-123940000D03*
X289890000Y-121400000D03*
X289890000Y-118860000D03*
X289890000Y-116320000D03*
X289890000Y-113780000D03*
X289890000Y-111240000D03*
X289890000Y-108700000D03*
X274650000Y-108700000D03*
X274650000Y-111240000D03*
X274650000Y-113780000D03*
X274650000Y-116320000D03*
X274650000Y-118860000D03*
X274650000Y-121400000D03*
X274650000Y-123940000D03*
X274650000Y-126480000D03*
X274650000Y-129020000D03*
X274650000Y-131560000D03*
X274650000Y-134100000D03*
X274650000Y-136640000D03*
X274650000Y-139180000D03*
X274650000Y-141720000D03*
X274650000Y-144260000D03*
X274650000Y-146800000D03*
%TD*%
D12*
%TO.C,SW1*%
X105250000Y-170250000D03*
X105250000Y-176750000D03*
X109750000Y-176750000D03*
X109750000Y-170250000D03*
%TD*%
D10*
%TO.C,J5*%
X107000000Y-142850000D03*
X107000000Y-140310000D03*
X107000000Y-137770000D03*
X107000000Y-135230000D03*
X107000000Y-132690000D03*
X107000000Y-130150000D03*
%TD*%
D11*
%TO.C,U5*%
X262820000Y-146840000D03*
X262820000Y-144300000D03*
X262820000Y-141760000D03*
X262820000Y-139220000D03*
X262820000Y-136680000D03*
X262820000Y-134140000D03*
X262820000Y-131600000D03*
X262820000Y-129060000D03*
X262820000Y-126520000D03*
X262820000Y-123980000D03*
X262820000Y-121440000D03*
X262820000Y-118900000D03*
X262820000Y-116360000D03*
X262820000Y-113820000D03*
X262820000Y-111280000D03*
X262820000Y-108740000D03*
X247580000Y-108740000D03*
X247580000Y-111280000D03*
X247580000Y-113820000D03*
X247580000Y-116360000D03*
X247580000Y-118900000D03*
X247580000Y-121440000D03*
X247580000Y-123980000D03*
X247580000Y-126520000D03*
X247580000Y-129060000D03*
X247580000Y-131600000D03*
X247580000Y-134140000D03*
X247580000Y-136680000D03*
X247580000Y-139220000D03*
X247580000Y-141760000D03*
X247580000Y-144300000D03*
X247580000Y-146840000D03*
%TD*%
%TO.C,U2*%
X235890000Y-147300000D03*
X235890000Y-144760000D03*
X235890000Y-142220000D03*
X235890000Y-139680000D03*
X235890000Y-137140000D03*
X235890000Y-134600000D03*
X235890000Y-132060000D03*
X235890000Y-129520000D03*
X235890000Y-126980000D03*
X235890000Y-124440000D03*
X235890000Y-121900000D03*
X235890000Y-119360000D03*
X235890000Y-116820000D03*
X235890000Y-114280000D03*
X235890000Y-111740000D03*
X235890000Y-109200000D03*
X220650000Y-109200000D03*
X220650000Y-111740000D03*
X220650000Y-114280000D03*
X220650000Y-116820000D03*
X220650000Y-119360000D03*
X220650000Y-121900000D03*
X220650000Y-124440000D03*
X220650000Y-126980000D03*
X220650000Y-129520000D03*
X220650000Y-132060000D03*
X220650000Y-134600000D03*
X220650000Y-137140000D03*
X220650000Y-139680000D03*
X220650000Y-142220000D03*
X220650000Y-144760000D03*
X220650000Y-147300000D03*
%TD*%
D13*
%TO.C,U6*%
X145920000Y-86450000D03*
X143380000Y-83910000D03*
X143380000Y-86450000D03*
X140840000Y-83910000D03*
X140840000Y-86450000D03*
X138300000Y-83910000D03*
X135760000Y-86450000D03*
X138300000Y-86450000D03*
X135760000Y-88990000D03*
X138300000Y-88990000D03*
X135760000Y-91530000D03*
X138300000Y-91530000D03*
X135760000Y-94070000D03*
X138300000Y-94070000D03*
X135760000Y-96610000D03*
X138300000Y-96610000D03*
X135760000Y-99150000D03*
X138300000Y-101690000D03*
X138300000Y-99150000D03*
X140840000Y-101690000D03*
X140840000Y-99150000D03*
X143380000Y-101690000D03*
X143380000Y-99150000D03*
X145920000Y-101690000D03*
X145920000Y-99150000D03*
X148460000Y-101690000D03*
X148460000Y-99150000D03*
X151000000Y-101690000D03*
X153540000Y-99150000D03*
X151000000Y-99150000D03*
X153540000Y-96610000D03*
X151000000Y-96610000D03*
X153540000Y-94070000D03*
X151000000Y-94070000D03*
X153540000Y-91530000D03*
X151000000Y-91530000D03*
X153540000Y-88990000D03*
X151000000Y-88990000D03*
X153540000Y-86450000D03*
X151000000Y-83910000D03*
X151000000Y-86450000D03*
X148460000Y-83910000D03*
X148460000Y-86450000D03*
X145920000Y-83910000D03*
%TD*%
D10*
%TO.C,J3*%
X145840000Y-166770000D03*
X145840000Y-164230000D03*
X148380000Y-166770000D03*
X148380000Y-164230000D03*
X150920000Y-166770000D03*
X150920000Y-164230000D03*
X153460000Y-166770000D03*
X153460000Y-164230000D03*
X156000000Y-166770000D03*
X156000000Y-164230000D03*
X158540000Y-166770000D03*
X158540000Y-164230000D03*
X161080000Y-166770000D03*
X161080000Y-164230000D03*
X163620000Y-166770000D03*
X163620000Y-164230000D03*
X166160000Y-166770000D03*
X166160000Y-164230000D03*
%TD*%
D14*
%TO.C,Y1*%
X176270000Y-82990000D03*
D15*
X161030000Y-82990000D03*
X161030000Y-90610000D03*
X176270000Y-90610000D03*
%TD*%
D10*
%TO.C,J1*%
X206610000Y-84500000D03*
X209150000Y-84500000D03*
X211690000Y-84500000D03*
X214230000Y-84500000D03*
X216770000Y-84500000D03*
X219310000Y-84500000D03*
X221850000Y-84500000D03*
X224390000Y-84500000D03*
%TD*%
D13*
%TO.C,U1*%
X134355510Y-134650000D03*
X131815510Y-132110000D03*
X131815510Y-134650000D03*
X129275510Y-132110000D03*
X129275510Y-134650000D03*
X126735510Y-132110000D03*
X124195510Y-134650000D03*
X126735510Y-134650000D03*
X124195510Y-137190000D03*
X126735510Y-137190000D03*
X124195510Y-139730000D03*
X126735510Y-139730000D03*
X124195510Y-142270000D03*
X126735510Y-142270000D03*
X124195510Y-144810000D03*
X126735510Y-144810000D03*
X124195510Y-147350000D03*
X126735510Y-149890000D03*
X126735510Y-147350000D03*
X129275510Y-149890000D03*
X129275510Y-147350000D03*
X131815510Y-149890000D03*
X131815510Y-147350000D03*
X134355510Y-149890000D03*
X134355510Y-147350000D03*
X136895510Y-149890000D03*
X136895510Y-147350000D03*
X139435510Y-149890000D03*
X141975510Y-147350000D03*
X139435510Y-147350000D03*
X141975510Y-144810000D03*
X139435510Y-144810000D03*
X141975510Y-142270000D03*
X139435510Y-142270000D03*
X141975510Y-139730000D03*
X139435510Y-139730000D03*
X141975510Y-137190000D03*
X139435510Y-137190000D03*
X141975510Y-134650000D03*
X139435510Y-132110000D03*
X139435510Y-134650000D03*
X136895510Y-132110000D03*
X136895510Y-134650000D03*
X134355510Y-132110000D03*
%TD*%
D16*
%TO.C,Y2*%
X135190000Y-109880000D03*
D15*
X135190000Y-125120000D03*
X142810000Y-125120000D03*
X142810000Y-109880000D03*
%TD*%
D10*
%TO.C,J6*%
X109460000Y-75500000D03*
X112000000Y-75500000D03*
%TD*%
%TO.C,J2*%
X229610000Y-84500000D03*
X232150000Y-84500000D03*
X234690000Y-84500000D03*
X237230000Y-84500000D03*
X239770000Y-84500000D03*
X242310000Y-84500000D03*
X244850000Y-84500000D03*
X247390000Y-84500000D03*
%TD*%
D17*
%TO.C,U9*%
X164650510Y-120560000D03*
D18*
X164650510Y-123100000D03*
X162110510Y-120560000D03*
X162110510Y-123100000D03*
X159570510Y-120560000D03*
X159570510Y-123100000D03*
X157030510Y-120560000D03*
X157030510Y-123100000D03*
X154490510Y-120560000D03*
X151950510Y-123100000D03*
X154490510Y-123100000D03*
X151950510Y-125640000D03*
X154490510Y-125640000D03*
X151950510Y-128180000D03*
X154490510Y-128180000D03*
X151950510Y-130720000D03*
X154490510Y-130720000D03*
X151950510Y-133260000D03*
X154490510Y-133260000D03*
X151950510Y-135800000D03*
X154490510Y-135800000D03*
X151950510Y-138340000D03*
X154490510Y-138340000D03*
X151950510Y-140880000D03*
X154490510Y-140880000D03*
X151950510Y-143420000D03*
X154490510Y-145960000D03*
X154490510Y-143420000D03*
X157030510Y-145960000D03*
X157030510Y-143420000D03*
X159570510Y-145960000D03*
X159570510Y-143420000D03*
X162110510Y-145960000D03*
X162110510Y-143420000D03*
X164650510Y-145960000D03*
X164650510Y-143420000D03*
X167190510Y-145960000D03*
X167190510Y-143420000D03*
X169730510Y-145960000D03*
X169730510Y-143420000D03*
X172270510Y-145960000D03*
X172270510Y-143420000D03*
X174810510Y-145960000D03*
X177350510Y-143420000D03*
X174810510Y-143420000D03*
X177350510Y-140880000D03*
X174810510Y-140880000D03*
X177350510Y-138340000D03*
X174810510Y-138340000D03*
X177350510Y-135800000D03*
X174810510Y-135800000D03*
X177350510Y-133260000D03*
X174810510Y-133260000D03*
X177350510Y-130720000D03*
X174810510Y-130720000D03*
X177350510Y-128180000D03*
X174810510Y-128180000D03*
X177350510Y-125640000D03*
X174810510Y-125640000D03*
X177350510Y-123100000D03*
X174810510Y-120560000D03*
X174810510Y-123100000D03*
X172270510Y-120560000D03*
X172270510Y-123100000D03*
X169730510Y-120560000D03*
X169730510Y-123100000D03*
X167190510Y-120560000D03*
X167190510Y-123100000D03*
%TD*%
D10*
%TO.C,J7*%
X160650000Y-75500000D03*
X163190000Y-75500000D03*
X165730000Y-75500000D03*
X168270000Y-75500000D03*
X170810000Y-75500000D03*
X173350000Y-75500000D03*
%TD*%
D19*
%TO.C,R11*%
X269000000Y-121500000D03*
X271000000Y-121500000D03*
%TD*%
D20*
%TO.C,R5*%
X245500000Y-129000000D03*
X243500000Y-129000000D03*
%TD*%
D21*
%TO.C,C3*%
X216000000Y-147287500D03*
X216000000Y-145212500D03*
%TD*%
D22*
%TO.C,R1*%
X157500000Y-135500000D03*
X157500000Y-133500000D03*
%TD*%
D23*
%TO.C,C6*%
X136910510Y-155379490D03*
X134835510Y-155379490D03*
%TD*%
D24*
%TO.C,R15*%
X158650000Y-83800000D03*
X158650000Y-85800000D03*
%TD*%
D22*
%TO.C,R14*%
X271000000Y-129000000D03*
X271000000Y-127000000D03*
%TD*%
D24*
%TO.C,R7*%
X216000000Y-120000000D03*
X216000000Y-122000000D03*
%TD*%
D21*
%TO.C,C1*%
X218500000Y-147287500D03*
X218500000Y-145212500D03*
%TD*%
D24*
%TO.C,R8*%
X218000000Y-140250000D03*
X218000000Y-142250000D03*
%TD*%
D20*
%TO.C,R6*%
X245500000Y-124000000D03*
X243500000Y-124000000D03*
%TD*%
D23*
%TO.C,C22*%
X149537500Y-127500000D03*
X147462500Y-127500000D03*
%TD*%
D21*
%TO.C,C2*%
X272400000Y-146475000D03*
X272400000Y-144400000D03*
%TD*%
%TO.C,C10*%
X189000000Y-147325000D03*
X189000000Y-145250000D03*
%TD*%
%TO.C,C4*%
X270000000Y-146537500D03*
X270000000Y-144462500D03*
%TD*%
D24*
%TO.C,R9*%
X147000000Y-133500000D03*
X147000000Y-135500000D03*
%TD*%
D23*
%TO.C,C16*%
X145687500Y-80800000D03*
X143612500Y-80800000D03*
%TD*%
D21*
%TO.C,C13*%
X191500000Y-147325000D03*
X191500000Y-145250000D03*
%TD*%
%TO.C,C9*%
X147085510Y-139754490D03*
X147085510Y-137679490D03*
%TD*%
%TO.C,C15*%
X174000000Y-90537500D03*
X174000000Y-88462500D03*
%TD*%
D23*
%TO.C,C5*%
X136910510Y-152879490D03*
X134835510Y-152879490D03*
%TD*%
D24*
%TO.C,R3*%
X191000000Y-125000000D03*
X191000000Y-127000000D03*
%TD*%
D23*
%TO.C,C11*%
X245537500Y-144000000D03*
X243462500Y-144000000D03*
%TD*%
D21*
%TO.C,C7*%
X144585510Y-139754490D03*
X144585510Y-137679490D03*
%TD*%
D25*
%TO.C,C12*%
X121585510Y-144841990D03*
X121585510Y-146916990D03*
%TD*%
%TO.C,C17*%
X140000000Y-109962500D03*
X140000000Y-112037500D03*
%TD*%
D23*
%TO.C,C8*%
X245537500Y-146500000D03*
X243462500Y-146500000D03*
%TD*%
D21*
%TO.C,C23*%
X180150510Y-133297500D03*
X180150510Y-131222500D03*
%TD*%
D22*
%TO.C,R13*%
X149150510Y-125260000D03*
X149150510Y-123260000D03*
%TD*%
D20*
%TO.C,R12*%
X272500000Y-140000000D03*
X270500000Y-140000000D03*
%TD*%
D25*
%TO.C,C14*%
X119085510Y-144841990D03*
X119085510Y-146916990D03*
%TD*%
D24*
%TO.C,R10*%
X216000000Y-125000000D03*
X216000000Y-127000000D03*
%TD*%
%TO.C,R4*%
X191000000Y-120000000D03*
X191000000Y-122000000D03*
%TD*%
M02*
