%TF.GenerationSoftware,KiCad,Pcbnew,(6.0.0)*%
%TF.CreationDate,2024-02-18T00:07:20-06:00*%
%TF.ProjectId,MCD,4d43442e-6b69-4636-9164-5f7063625858,rev?*%
%TF.SameCoordinates,Original*%
%TF.FileFunction,Legend,Bot*%
%TF.FilePolarity,Positive*%
%FSLAX46Y46*%
G04 Gerber Fmt 4.6, Leading zero omitted, Abs format (unit mm)*
G04 Created by KiCad (PCBNEW (6.0.0)) date 2024-02-18 00:07:20*
%MOMM*%
%LPD*%
G01*
G04 APERTURE LIST*
%ADD10C,0.150000*%
%ADD11C,0.508000*%
%ADD12C,0.120000*%
G04 APERTURE END LIST*
D10*
%TO.C,R11*%
X270642857Y-123602380D02*
X270976190Y-123126190D01*
X271214285Y-123602380D02*
X271214285Y-122602380D01*
X270833333Y-122602380D01*
X270738095Y-122650000D01*
X270690476Y-122697619D01*
X270642857Y-122792857D01*
X270642857Y-122935714D01*
X270690476Y-123030952D01*
X270738095Y-123078571D01*
X270833333Y-123126190D01*
X271214285Y-123126190D01*
X269690476Y-123602380D02*
X270261904Y-123602380D01*
X269976190Y-123602380D02*
X269976190Y-122602380D01*
X270071428Y-122745238D01*
X270166666Y-122840476D01*
X270261904Y-122888095D01*
X268738095Y-123602380D02*
X269309523Y-123602380D01*
X269023809Y-123602380D02*
X269023809Y-122602380D01*
X269119047Y-122745238D01*
X269214285Y-122840476D01*
X269309523Y-122888095D01*
%TO.C,R5*%
X244666666Y-127802380D02*
X245000000Y-127326190D01*
X245238095Y-127802380D02*
X245238095Y-126802380D01*
X244857142Y-126802380D01*
X244761904Y-126850000D01*
X244714285Y-126897619D01*
X244666666Y-126992857D01*
X244666666Y-127135714D01*
X244714285Y-127230952D01*
X244761904Y-127278571D01*
X244857142Y-127326190D01*
X245238095Y-127326190D01*
X243761904Y-126802380D02*
X244238095Y-126802380D01*
X244285714Y-127278571D01*
X244238095Y-127230952D01*
X244142857Y-127183333D01*
X243904761Y-127183333D01*
X243809523Y-127230952D01*
X243761904Y-127278571D01*
X243714285Y-127373809D01*
X243714285Y-127611904D01*
X243761904Y-127707142D01*
X243809523Y-127754761D01*
X243904761Y-127802380D01*
X244142857Y-127802380D01*
X244238095Y-127754761D01*
X244285714Y-127707142D01*
%TO.C,C3*%
X216166666Y-149357142D02*
X216214285Y-149404761D01*
X216357142Y-149452380D01*
X216452380Y-149452380D01*
X216595238Y-149404761D01*
X216690476Y-149309523D01*
X216738095Y-149214285D01*
X216785714Y-149023809D01*
X216785714Y-148880952D01*
X216738095Y-148690476D01*
X216690476Y-148595238D01*
X216595238Y-148500000D01*
X216452380Y-148452380D01*
X216357142Y-148452380D01*
X216214285Y-148500000D01*
X216166666Y-148547619D01*
X215833333Y-148452380D02*
X215214285Y-148452380D01*
X215547619Y-148833333D01*
X215404761Y-148833333D01*
X215309523Y-148880952D01*
X215261904Y-148928571D01*
X215214285Y-149023809D01*
X215214285Y-149261904D01*
X215261904Y-149357142D01*
X215309523Y-149404761D01*
X215404761Y-149452380D01*
X215690476Y-149452380D01*
X215785714Y-149404761D01*
X215833333Y-149357142D01*
%TO.C,R1*%
X159852380Y-134333333D02*
X159376190Y-134000000D01*
X159852380Y-133761904D02*
X158852380Y-133761904D01*
X158852380Y-134142857D01*
X158900000Y-134238095D01*
X158947619Y-134285714D01*
X159042857Y-134333333D01*
X159185714Y-134333333D01*
X159280952Y-134285714D01*
X159328571Y-134238095D01*
X159376190Y-134142857D01*
X159376190Y-133761904D01*
X159852380Y-135285714D02*
X159852380Y-134714285D01*
X159852380Y-135000000D02*
X158852380Y-135000000D01*
X158995238Y-134904761D01*
X159090476Y-134809523D01*
X159138095Y-134714285D01*
%TO.C,C6*%
X133230152Y-155212823D02*
X133277771Y-155165204D01*
X133325390Y-155022347D01*
X133325390Y-154927109D01*
X133277771Y-154784251D01*
X133182533Y-154689013D01*
X133087295Y-154641394D01*
X132896819Y-154593775D01*
X132753962Y-154593775D01*
X132563486Y-154641394D01*
X132468248Y-154689013D01*
X132373010Y-154784251D01*
X132325390Y-154927109D01*
X132325390Y-155022347D01*
X132373010Y-155165204D01*
X132420629Y-155212823D01*
X132325390Y-156069966D02*
X132325390Y-155879490D01*
X132373010Y-155784251D01*
X132420629Y-155736632D01*
X132563486Y-155641394D01*
X132753962Y-155593775D01*
X133134914Y-155593775D01*
X133230152Y-155641394D01*
X133277771Y-155689013D01*
X133325390Y-155784251D01*
X133325390Y-155974728D01*
X133277771Y-156069966D01*
X133230152Y-156117585D01*
X133134914Y-156165204D01*
X132896819Y-156165204D01*
X132801581Y-156117585D01*
X132753962Y-156069966D01*
X132706343Y-155974728D01*
X132706343Y-155784251D01*
X132753962Y-155689013D01*
X132801581Y-155641394D01*
X132896819Y-155593775D01*
%TO.C,R15*%
X157452380Y-84157142D02*
X156976190Y-83823809D01*
X157452380Y-83585714D02*
X156452380Y-83585714D01*
X156452380Y-83966666D01*
X156500000Y-84061904D01*
X156547619Y-84109523D01*
X156642857Y-84157142D01*
X156785714Y-84157142D01*
X156880952Y-84109523D01*
X156928571Y-84061904D01*
X156976190Y-83966666D01*
X156976190Y-83585714D01*
X157452380Y-85109523D02*
X157452380Y-84538095D01*
X157452380Y-84823809D02*
X156452380Y-84823809D01*
X156595238Y-84728571D01*
X156690476Y-84633333D01*
X156738095Y-84538095D01*
X156452380Y-86014285D02*
X156452380Y-85538095D01*
X156928571Y-85490476D01*
X156880952Y-85538095D01*
X156833333Y-85633333D01*
X156833333Y-85871428D01*
X156880952Y-85966666D01*
X156928571Y-86014285D01*
X157023809Y-86061904D01*
X157261904Y-86061904D01*
X157357142Y-86014285D01*
X157404761Y-85966666D01*
X157452380Y-85871428D01*
X157452380Y-85633333D01*
X157404761Y-85538095D01*
X157357142Y-85490476D01*
%TO.C,R14*%
X273102380Y-127357142D02*
X272626190Y-127023809D01*
X273102380Y-126785714D02*
X272102380Y-126785714D01*
X272102380Y-127166666D01*
X272150000Y-127261904D01*
X272197619Y-127309523D01*
X272292857Y-127357142D01*
X272435714Y-127357142D01*
X272530952Y-127309523D01*
X272578571Y-127261904D01*
X272626190Y-127166666D01*
X272626190Y-126785714D01*
X273102380Y-128309523D02*
X273102380Y-127738095D01*
X273102380Y-128023809D02*
X272102380Y-128023809D01*
X272245238Y-127928571D01*
X272340476Y-127833333D01*
X272388095Y-127738095D01*
X272435714Y-129166666D02*
X273102380Y-129166666D01*
X272054761Y-128928571D02*
X272769047Y-128690476D01*
X272769047Y-129309523D01*
%TO.C,R7*%
X214802380Y-120833333D02*
X214326190Y-120500000D01*
X214802380Y-120261904D02*
X213802380Y-120261904D01*
X213802380Y-120642857D01*
X213850000Y-120738095D01*
X213897619Y-120785714D01*
X213992857Y-120833333D01*
X214135714Y-120833333D01*
X214230952Y-120785714D01*
X214278571Y-120738095D01*
X214326190Y-120642857D01*
X214326190Y-120261904D01*
X213802380Y-121166666D02*
X213802380Y-121833333D01*
X214802380Y-121404761D01*
%TO.C,C1*%
X218566666Y-149357142D02*
X218614285Y-149404761D01*
X218757142Y-149452380D01*
X218852380Y-149452380D01*
X218995238Y-149404761D01*
X219090476Y-149309523D01*
X219138095Y-149214285D01*
X219185714Y-149023809D01*
X219185714Y-148880952D01*
X219138095Y-148690476D01*
X219090476Y-148595238D01*
X218995238Y-148500000D01*
X218852380Y-148452380D01*
X218757142Y-148452380D01*
X218614285Y-148500000D01*
X218566666Y-148547619D01*
X217614285Y-149452380D02*
X218185714Y-149452380D01*
X217900000Y-149452380D02*
X217900000Y-148452380D01*
X217995238Y-148595238D01*
X218090476Y-148690476D01*
X218185714Y-148738095D01*
%TO.C,R8*%
X216166666Y-141702380D02*
X216500000Y-141226190D01*
X216738095Y-141702380D02*
X216738095Y-140702380D01*
X216357142Y-140702380D01*
X216261904Y-140750000D01*
X216214285Y-140797619D01*
X216166666Y-140892857D01*
X216166666Y-141035714D01*
X216214285Y-141130952D01*
X216261904Y-141178571D01*
X216357142Y-141226190D01*
X216738095Y-141226190D01*
X215595238Y-141130952D02*
X215690476Y-141083333D01*
X215738095Y-141035714D01*
X215785714Y-140940476D01*
X215785714Y-140892857D01*
X215738095Y-140797619D01*
X215690476Y-140750000D01*
X215595238Y-140702380D01*
X215404761Y-140702380D01*
X215309523Y-140750000D01*
X215261904Y-140797619D01*
X215214285Y-140892857D01*
X215214285Y-140940476D01*
X215261904Y-141035714D01*
X215309523Y-141083333D01*
X215404761Y-141130952D01*
X215595238Y-141130952D01*
X215690476Y-141178571D01*
X215738095Y-141226190D01*
X215785714Y-141321428D01*
X215785714Y-141511904D01*
X215738095Y-141607142D01*
X215690476Y-141654761D01*
X215595238Y-141702380D01*
X215404761Y-141702380D01*
X215309523Y-141654761D01*
X215261904Y-141607142D01*
X215214285Y-141511904D01*
X215214285Y-141321428D01*
X215261904Y-141226190D01*
X215309523Y-141178571D01*
X215404761Y-141130952D01*
%TO.C,R6*%
X244666666Y-122802380D02*
X245000000Y-122326190D01*
X245238095Y-122802380D02*
X245238095Y-121802380D01*
X244857142Y-121802380D01*
X244761904Y-121850000D01*
X244714285Y-121897619D01*
X244666666Y-121992857D01*
X244666666Y-122135714D01*
X244714285Y-122230952D01*
X244761904Y-122278571D01*
X244857142Y-122326190D01*
X245238095Y-122326190D01*
X243809523Y-121802380D02*
X244000000Y-121802380D01*
X244095238Y-121850000D01*
X244142857Y-121897619D01*
X244238095Y-122040476D01*
X244285714Y-122230952D01*
X244285714Y-122611904D01*
X244238095Y-122707142D01*
X244190476Y-122754761D01*
X244095238Y-122802380D01*
X243904761Y-122802380D01*
X243809523Y-122754761D01*
X243761904Y-122707142D01*
X243714285Y-122611904D01*
X243714285Y-122373809D01*
X243761904Y-122278571D01*
X243809523Y-122230952D01*
X243904761Y-122183333D01*
X244095238Y-122183333D01*
X244190476Y-122230952D01*
X244238095Y-122278571D01*
X244285714Y-122373809D01*
%TO.C,C22*%
X148881605Y-129857142D02*
X148929224Y-129904761D01*
X149072081Y-129952380D01*
X149167319Y-129952380D01*
X149310176Y-129904761D01*
X149405414Y-129809523D01*
X149453033Y-129714285D01*
X149500652Y-129523809D01*
X149500652Y-129380952D01*
X149453033Y-129190476D01*
X149405414Y-129095238D01*
X149310176Y-129000000D01*
X149167319Y-128952380D01*
X149072081Y-128952380D01*
X148929224Y-129000000D01*
X148881605Y-129047619D01*
X148500652Y-129047619D02*
X148453033Y-129000000D01*
X148357795Y-128952380D01*
X148119700Y-128952380D01*
X148024462Y-129000000D01*
X147976843Y-129047619D01*
X147929224Y-129142857D01*
X147929224Y-129238095D01*
X147976843Y-129380952D01*
X148548271Y-129952380D01*
X147929224Y-129952380D01*
X147548271Y-129047619D02*
X147500652Y-129000000D01*
X147405414Y-128952380D01*
X147167319Y-128952380D01*
X147072081Y-129000000D01*
X147024462Y-129047619D01*
X146976843Y-129142857D01*
X146976843Y-129238095D01*
X147024462Y-129380952D01*
X147595890Y-129952380D01*
X146976843Y-129952380D01*
%TO.C,C2*%
X272566666Y-143294642D02*
X272614285Y-143342261D01*
X272757142Y-143389880D01*
X272852380Y-143389880D01*
X272995238Y-143342261D01*
X273090476Y-143247023D01*
X273138095Y-143151785D01*
X273185714Y-142961309D01*
X273185714Y-142818452D01*
X273138095Y-142627976D01*
X273090476Y-142532738D01*
X272995238Y-142437500D01*
X272852380Y-142389880D01*
X272757142Y-142389880D01*
X272614285Y-142437500D01*
X272566666Y-142485119D01*
X272185714Y-142485119D02*
X272138095Y-142437500D01*
X272042857Y-142389880D01*
X271804761Y-142389880D01*
X271709523Y-142437500D01*
X271661904Y-142485119D01*
X271614285Y-142580357D01*
X271614285Y-142675595D01*
X271661904Y-142818452D01*
X272233333Y-143389880D01*
X271614285Y-143389880D01*
%TO.C,C10*%
X189442857Y-149157142D02*
X189490476Y-149204761D01*
X189633333Y-149252380D01*
X189728571Y-149252380D01*
X189871428Y-149204761D01*
X189966666Y-149109523D01*
X190014285Y-149014285D01*
X190061904Y-148823809D01*
X190061904Y-148680952D01*
X190014285Y-148490476D01*
X189966666Y-148395238D01*
X189871428Y-148300000D01*
X189728571Y-148252380D01*
X189633333Y-148252380D01*
X189490476Y-148300000D01*
X189442857Y-148347619D01*
X188490476Y-149252380D02*
X189061904Y-149252380D01*
X188776190Y-149252380D02*
X188776190Y-148252380D01*
X188871428Y-148395238D01*
X188966666Y-148490476D01*
X189061904Y-148538095D01*
X187871428Y-148252380D02*
X187776190Y-148252380D01*
X187680952Y-148300000D01*
X187633333Y-148347619D01*
X187585714Y-148442857D01*
X187538095Y-148633333D01*
X187538095Y-148871428D01*
X187585714Y-149061904D01*
X187633333Y-149157142D01*
X187680952Y-149204761D01*
X187776190Y-149252380D01*
X187871428Y-149252380D01*
X187966666Y-149204761D01*
X188014285Y-149157142D01*
X188061904Y-149061904D01*
X188109523Y-148871428D01*
X188109523Y-148633333D01*
X188061904Y-148442857D01*
X188014285Y-148347619D01*
X187966666Y-148300000D01*
X187871428Y-148252380D01*
%TO.C,C4*%
X270166666Y-143357142D02*
X270214285Y-143404761D01*
X270357142Y-143452380D01*
X270452380Y-143452380D01*
X270595238Y-143404761D01*
X270690476Y-143309523D01*
X270738095Y-143214285D01*
X270785714Y-143023809D01*
X270785714Y-142880952D01*
X270738095Y-142690476D01*
X270690476Y-142595238D01*
X270595238Y-142500000D01*
X270452380Y-142452380D01*
X270357142Y-142452380D01*
X270214285Y-142500000D01*
X270166666Y-142547619D01*
X269309523Y-142785714D02*
X269309523Y-143452380D01*
X269547619Y-142404761D02*
X269785714Y-143119047D01*
X269166666Y-143119047D01*
%TO.C,R9*%
X149252380Y-134233333D02*
X148776190Y-133900000D01*
X149252380Y-133661904D02*
X148252380Y-133661904D01*
X148252380Y-134042857D01*
X148300000Y-134138095D01*
X148347619Y-134185714D01*
X148442857Y-134233333D01*
X148585714Y-134233333D01*
X148680952Y-134185714D01*
X148728571Y-134138095D01*
X148776190Y-134042857D01*
X148776190Y-133661904D01*
X149252380Y-134709523D02*
X149252380Y-134900000D01*
X149204761Y-134995238D01*
X149157142Y-135042857D01*
X149014285Y-135138095D01*
X148823809Y-135185714D01*
X148442857Y-135185714D01*
X148347619Y-135138095D01*
X148300000Y-135090476D01*
X148252380Y-134995238D01*
X148252380Y-134804761D01*
X148300000Y-134709523D01*
X148347619Y-134661904D01*
X148442857Y-134614285D01*
X148680952Y-134614285D01*
X148776190Y-134661904D01*
X148823809Y-134709523D01*
X148871428Y-134804761D01*
X148871428Y-134995238D01*
X148823809Y-135090476D01*
X148776190Y-135138095D01*
X148680952Y-135185714D01*
%TO.C,C16*%
X145292857Y-79477142D02*
X145340476Y-79524761D01*
X145483333Y-79572380D01*
X145578571Y-79572380D01*
X145721428Y-79524761D01*
X145816666Y-79429523D01*
X145864285Y-79334285D01*
X145911904Y-79143809D01*
X145911904Y-79000952D01*
X145864285Y-78810476D01*
X145816666Y-78715238D01*
X145721428Y-78620000D01*
X145578571Y-78572380D01*
X145483333Y-78572380D01*
X145340476Y-78620000D01*
X145292857Y-78667619D01*
X144340476Y-79572380D02*
X144911904Y-79572380D01*
X144626190Y-79572380D02*
X144626190Y-78572380D01*
X144721428Y-78715238D01*
X144816666Y-78810476D01*
X144911904Y-78858095D01*
X143483333Y-78572380D02*
X143673809Y-78572380D01*
X143769047Y-78620000D01*
X143816666Y-78667619D01*
X143911904Y-78810476D01*
X143959523Y-79000952D01*
X143959523Y-79381904D01*
X143911904Y-79477142D01*
X143864285Y-79524761D01*
X143769047Y-79572380D01*
X143578571Y-79572380D01*
X143483333Y-79524761D01*
X143435714Y-79477142D01*
X143388095Y-79381904D01*
X143388095Y-79143809D01*
X143435714Y-79048571D01*
X143483333Y-79000952D01*
X143578571Y-78953333D01*
X143769047Y-78953333D01*
X143864285Y-79000952D01*
X143911904Y-79048571D01*
X143959523Y-79143809D01*
%TO.C,C13*%
X192442857Y-149157142D02*
X192490476Y-149204761D01*
X192633333Y-149252380D01*
X192728571Y-149252380D01*
X192871428Y-149204761D01*
X192966666Y-149109523D01*
X193014285Y-149014285D01*
X193061904Y-148823809D01*
X193061904Y-148680952D01*
X193014285Y-148490476D01*
X192966666Y-148395238D01*
X192871428Y-148300000D01*
X192728571Y-148252380D01*
X192633333Y-148252380D01*
X192490476Y-148300000D01*
X192442857Y-148347619D01*
X191490476Y-149252380D02*
X192061904Y-149252380D01*
X191776190Y-149252380D02*
X191776190Y-148252380D01*
X191871428Y-148395238D01*
X191966666Y-148490476D01*
X192061904Y-148538095D01*
X191157142Y-148252380D02*
X190538095Y-148252380D01*
X190871428Y-148633333D01*
X190728571Y-148633333D01*
X190633333Y-148680952D01*
X190585714Y-148728571D01*
X190538095Y-148823809D01*
X190538095Y-149061904D01*
X190585714Y-149157142D01*
X190633333Y-149204761D01*
X190728571Y-149252380D01*
X191014285Y-149252380D01*
X191109523Y-149204761D01*
X191157142Y-149157142D01*
%TO.C,C9*%
X149357142Y-138333333D02*
X149404761Y-138285714D01*
X149452380Y-138142857D01*
X149452380Y-138047619D01*
X149404761Y-137904761D01*
X149309523Y-137809523D01*
X149214285Y-137761904D01*
X149023809Y-137714285D01*
X148880952Y-137714285D01*
X148690476Y-137761904D01*
X148595238Y-137809523D01*
X148500000Y-137904761D01*
X148452380Y-138047619D01*
X148452380Y-138142857D01*
X148500000Y-138285714D01*
X148547619Y-138333333D01*
X149452380Y-138809523D02*
X149452380Y-139000000D01*
X149404761Y-139095238D01*
X149357142Y-139142857D01*
X149214285Y-139238095D01*
X149023809Y-139285714D01*
X148642857Y-139285714D01*
X148547619Y-139238095D01*
X148500000Y-139190476D01*
X148452380Y-139095238D01*
X148452380Y-138904761D01*
X148500000Y-138809523D01*
X148547619Y-138761904D01*
X148642857Y-138714285D01*
X148880952Y-138714285D01*
X148976190Y-138761904D01*
X149023809Y-138809523D01*
X149071428Y-138904761D01*
X149071428Y-139095238D01*
X149023809Y-139190476D01*
X148976190Y-139238095D01*
X148880952Y-139285714D01*
%TO.C,C15*%
X172357142Y-88857142D02*
X172404761Y-88809523D01*
X172452380Y-88666666D01*
X172452380Y-88571428D01*
X172404761Y-88428571D01*
X172309523Y-88333333D01*
X172214285Y-88285714D01*
X172023809Y-88238095D01*
X171880952Y-88238095D01*
X171690476Y-88285714D01*
X171595238Y-88333333D01*
X171500000Y-88428571D01*
X171452380Y-88571428D01*
X171452380Y-88666666D01*
X171500000Y-88809523D01*
X171547619Y-88857142D01*
X172452380Y-89809523D02*
X172452380Y-89238095D01*
X172452380Y-89523809D02*
X171452380Y-89523809D01*
X171595238Y-89428571D01*
X171690476Y-89333333D01*
X171738095Y-89238095D01*
X171452380Y-90714285D02*
X171452380Y-90238095D01*
X171928571Y-90190476D01*
X171880952Y-90238095D01*
X171833333Y-90333333D01*
X171833333Y-90571428D01*
X171880952Y-90666666D01*
X171928571Y-90714285D01*
X172023809Y-90761904D01*
X172261904Y-90761904D01*
X172357142Y-90714285D01*
X172404761Y-90666666D01*
X172452380Y-90571428D01*
X172452380Y-90333333D01*
X172404761Y-90238095D01*
X172357142Y-90190476D01*
%TO.C,C5*%
X133230152Y-152712823D02*
X133277771Y-152665204D01*
X133325390Y-152522347D01*
X133325390Y-152427109D01*
X133277771Y-152284251D01*
X133182533Y-152189013D01*
X133087295Y-152141394D01*
X132896819Y-152093775D01*
X132753962Y-152093775D01*
X132563486Y-152141394D01*
X132468248Y-152189013D01*
X132373010Y-152284251D01*
X132325390Y-152427109D01*
X132325390Y-152522347D01*
X132373010Y-152665204D01*
X132420629Y-152712823D01*
X132325390Y-153617585D02*
X132325390Y-153141394D01*
X132801581Y-153093775D01*
X132753962Y-153141394D01*
X132706343Y-153236632D01*
X132706343Y-153474728D01*
X132753962Y-153569966D01*
X132801581Y-153617585D01*
X132896819Y-153665204D01*
X133134914Y-153665204D01*
X133230152Y-153617585D01*
X133277771Y-153569966D01*
X133325390Y-153474728D01*
X133325390Y-153236632D01*
X133277771Y-153141394D01*
X133230152Y-153093775D01*
%TO.C,R3*%
X189802380Y-125833333D02*
X189326190Y-125500000D01*
X189802380Y-125261904D02*
X188802380Y-125261904D01*
X188802380Y-125642857D01*
X188850000Y-125738095D01*
X188897619Y-125785714D01*
X188992857Y-125833333D01*
X189135714Y-125833333D01*
X189230952Y-125785714D01*
X189278571Y-125738095D01*
X189326190Y-125642857D01*
X189326190Y-125261904D01*
X188802380Y-126166666D02*
X188802380Y-126785714D01*
X189183333Y-126452380D01*
X189183333Y-126595238D01*
X189230952Y-126690476D01*
X189278571Y-126738095D01*
X189373809Y-126785714D01*
X189611904Y-126785714D01*
X189707142Y-126738095D01*
X189754761Y-126690476D01*
X189802380Y-126595238D01*
X189802380Y-126309523D01*
X189754761Y-126214285D01*
X189707142Y-126166666D01*
%TO.C,C11*%
X244242857Y-142757142D02*
X244290476Y-142804761D01*
X244433333Y-142852380D01*
X244528571Y-142852380D01*
X244671428Y-142804761D01*
X244766666Y-142709523D01*
X244814285Y-142614285D01*
X244861904Y-142423809D01*
X244861904Y-142280952D01*
X244814285Y-142090476D01*
X244766666Y-141995238D01*
X244671428Y-141900000D01*
X244528571Y-141852380D01*
X244433333Y-141852380D01*
X244290476Y-141900000D01*
X244242857Y-141947619D01*
X243290476Y-142852380D02*
X243861904Y-142852380D01*
X243576190Y-142852380D02*
X243576190Y-141852380D01*
X243671428Y-141995238D01*
X243766666Y-142090476D01*
X243861904Y-142138095D01*
X242338095Y-142852380D02*
X242909523Y-142852380D01*
X242623809Y-142852380D02*
X242623809Y-141852380D01*
X242719047Y-141995238D01*
X242814285Y-142090476D01*
X242909523Y-142138095D01*
%TO.C,C7*%
X144942652Y-135550323D02*
X144990271Y-135502704D01*
X145037890Y-135359847D01*
X145037890Y-135264609D01*
X144990271Y-135121751D01*
X144895033Y-135026513D01*
X144799795Y-134978894D01*
X144609319Y-134931275D01*
X144466462Y-134931275D01*
X144275986Y-134978894D01*
X144180748Y-135026513D01*
X144085510Y-135121751D01*
X144037890Y-135264609D01*
X144037890Y-135359847D01*
X144085510Y-135502704D01*
X144133129Y-135550323D01*
X144037890Y-135883656D02*
X144037890Y-136550323D01*
X145037890Y-136121751D01*
%TO.C,C12*%
X121942652Y-141736632D02*
X121990271Y-141689013D01*
X122037890Y-141546156D01*
X122037890Y-141450918D01*
X121990271Y-141308061D01*
X121895033Y-141212823D01*
X121799795Y-141165204D01*
X121609319Y-141117585D01*
X121466462Y-141117585D01*
X121275986Y-141165204D01*
X121180748Y-141212823D01*
X121085510Y-141308061D01*
X121037890Y-141450918D01*
X121037890Y-141546156D01*
X121085510Y-141689013D01*
X121133129Y-141736632D01*
X122037890Y-142689013D02*
X122037890Y-142117585D01*
X122037890Y-142403299D02*
X121037890Y-142403299D01*
X121180748Y-142308061D01*
X121275986Y-142212823D01*
X121323605Y-142117585D01*
X121133129Y-143069966D02*
X121085510Y-143117585D01*
X121037890Y-143212823D01*
X121037890Y-143450918D01*
X121085510Y-143546156D01*
X121133129Y-143593775D01*
X121228367Y-143641394D01*
X121323605Y-143641394D01*
X121466462Y-143593775D01*
X122037890Y-143022347D01*
X122037890Y-143641394D01*
%TO.C,C17*%
X140642857Y-108857142D02*
X140690476Y-108904761D01*
X140833333Y-108952380D01*
X140928571Y-108952380D01*
X141071428Y-108904761D01*
X141166666Y-108809523D01*
X141214285Y-108714285D01*
X141261904Y-108523809D01*
X141261904Y-108380952D01*
X141214285Y-108190476D01*
X141166666Y-108095238D01*
X141071428Y-108000000D01*
X140928571Y-107952380D01*
X140833333Y-107952380D01*
X140690476Y-108000000D01*
X140642857Y-108047619D01*
X139690476Y-108952380D02*
X140261904Y-108952380D01*
X139976190Y-108952380D02*
X139976190Y-107952380D01*
X140071428Y-108095238D01*
X140166666Y-108190476D01*
X140261904Y-108238095D01*
X139357142Y-107952380D02*
X138690476Y-107952380D01*
X139119047Y-108952380D01*
%TO.C,C8*%
X244166666Y-148557142D02*
X244214285Y-148604761D01*
X244357142Y-148652380D01*
X244452380Y-148652380D01*
X244595238Y-148604761D01*
X244690476Y-148509523D01*
X244738095Y-148414285D01*
X244785714Y-148223809D01*
X244785714Y-148080952D01*
X244738095Y-147890476D01*
X244690476Y-147795238D01*
X244595238Y-147700000D01*
X244452380Y-147652380D01*
X244357142Y-147652380D01*
X244214285Y-147700000D01*
X244166666Y-147747619D01*
X243595238Y-148080952D02*
X243690476Y-148033333D01*
X243738095Y-147985714D01*
X243785714Y-147890476D01*
X243785714Y-147842857D01*
X243738095Y-147747619D01*
X243690476Y-147700000D01*
X243595238Y-147652380D01*
X243404761Y-147652380D01*
X243309523Y-147700000D01*
X243261904Y-147747619D01*
X243214285Y-147842857D01*
X243214285Y-147890476D01*
X243261904Y-147985714D01*
X243309523Y-148033333D01*
X243404761Y-148080952D01*
X243595238Y-148080952D01*
X243690476Y-148128571D01*
X243738095Y-148176190D01*
X243785714Y-148271428D01*
X243785714Y-148461904D01*
X243738095Y-148557142D01*
X243690476Y-148604761D01*
X243595238Y-148652380D01*
X243404761Y-148652380D01*
X243309523Y-148604761D01*
X243261904Y-148557142D01*
X243214285Y-148461904D01*
X243214285Y-148271428D01*
X243261904Y-148176190D01*
X243309523Y-148128571D01*
X243404761Y-148080952D01*
%TO.C,C23*%
X183293367Y-132617142D02*
X183340986Y-132664761D01*
X183483843Y-132712380D01*
X183579081Y-132712380D01*
X183721938Y-132664761D01*
X183817176Y-132569523D01*
X183864795Y-132474285D01*
X183912414Y-132283809D01*
X183912414Y-132140952D01*
X183864795Y-131950476D01*
X183817176Y-131855238D01*
X183721938Y-131760000D01*
X183579081Y-131712380D01*
X183483843Y-131712380D01*
X183340986Y-131760000D01*
X183293367Y-131807619D01*
X182912414Y-131807619D02*
X182864795Y-131760000D01*
X182769557Y-131712380D01*
X182531462Y-131712380D01*
X182436224Y-131760000D01*
X182388605Y-131807619D01*
X182340986Y-131902857D01*
X182340986Y-131998095D01*
X182388605Y-132140952D01*
X182960033Y-132712380D01*
X182340986Y-132712380D01*
X182007652Y-131712380D02*
X181388605Y-131712380D01*
X181721938Y-132093333D01*
X181579081Y-132093333D01*
X181483843Y-132140952D01*
X181436224Y-132188571D01*
X181388605Y-132283809D01*
X181388605Y-132521904D01*
X181436224Y-132617142D01*
X181483843Y-132664761D01*
X181579081Y-132712380D01*
X181864795Y-132712380D01*
X181960033Y-132664761D01*
X182007652Y-132617142D01*
%TO.C,R13*%
X147213367Y-125052380D02*
X147546700Y-124576190D01*
X147784795Y-125052380D02*
X147784795Y-124052380D01*
X147403843Y-124052380D01*
X147308605Y-124100000D01*
X147260986Y-124147619D01*
X147213367Y-124242857D01*
X147213367Y-124385714D01*
X147260986Y-124480952D01*
X147308605Y-124528571D01*
X147403843Y-124576190D01*
X147784795Y-124576190D01*
X146260986Y-125052380D02*
X146832414Y-125052380D01*
X146546700Y-125052380D02*
X146546700Y-124052380D01*
X146641938Y-124195238D01*
X146737176Y-124290476D01*
X146832414Y-124338095D01*
X145927652Y-124052380D02*
X145308605Y-124052380D01*
X145641938Y-124433333D01*
X145499081Y-124433333D01*
X145403843Y-124480952D01*
X145356224Y-124528571D01*
X145308605Y-124623809D01*
X145308605Y-124861904D01*
X145356224Y-124957142D01*
X145403843Y-125004761D01*
X145499081Y-125052380D01*
X145784795Y-125052380D01*
X145880033Y-125004761D01*
X145927652Y-124957142D01*
%TO.C,R12*%
X272142857Y-138802380D02*
X272476190Y-138326190D01*
X272714285Y-138802380D02*
X272714285Y-137802380D01*
X272333333Y-137802380D01*
X272238095Y-137850000D01*
X272190476Y-137897619D01*
X272142857Y-137992857D01*
X272142857Y-138135714D01*
X272190476Y-138230952D01*
X272238095Y-138278571D01*
X272333333Y-138326190D01*
X272714285Y-138326190D01*
X271190476Y-138802380D02*
X271761904Y-138802380D01*
X271476190Y-138802380D02*
X271476190Y-137802380D01*
X271571428Y-137945238D01*
X271666666Y-138040476D01*
X271761904Y-138088095D01*
X270809523Y-137897619D02*
X270761904Y-137850000D01*
X270666666Y-137802380D01*
X270428571Y-137802380D01*
X270333333Y-137850000D01*
X270285714Y-137897619D01*
X270238095Y-137992857D01*
X270238095Y-138088095D01*
X270285714Y-138230952D01*
X270857142Y-138802380D01*
X270238095Y-138802380D01*
%TO.C,C14*%
X119442652Y-141736632D02*
X119490271Y-141689013D01*
X119537890Y-141546156D01*
X119537890Y-141450918D01*
X119490271Y-141308061D01*
X119395033Y-141212823D01*
X119299795Y-141165204D01*
X119109319Y-141117585D01*
X118966462Y-141117585D01*
X118775986Y-141165204D01*
X118680748Y-141212823D01*
X118585510Y-141308061D01*
X118537890Y-141450918D01*
X118537890Y-141546156D01*
X118585510Y-141689013D01*
X118633129Y-141736632D01*
X119537890Y-142689013D02*
X119537890Y-142117585D01*
X119537890Y-142403299D02*
X118537890Y-142403299D01*
X118680748Y-142308061D01*
X118775986Y-142212823D01*
X118823605Y-142117585D01*
X118871224Y-143546156D02*
X119537890Y-143546156D01*
X118490271Y-143308061D02*
X119204557Y-143069966D01*
X119204557Y-143689013D01*
%TO.C,R10*%
X214802380Y-125357142D02*
X214326190Y-125023809D01*
X214802380Y-124785714D02*
X213802380Y-124785714D01*
X213802380Y-125166666D01*
X213850000Y-125261904D01*
X213897619Y-125309523D01*
X213992857Y-125357142D01*
X214135714Y-125357142D01*
X214230952Y-125309523D01*
X214278571Y-125261904D01*
X214326190Y-125166666D01*
X214326190Y-124785714D01*
X214802380Y-126309523D02*
X214802380Y-125738095D01*
X214802380Y-126023809D02*
X213802380Y-126023809D01*
X213945238Y-125928571D01*
X214040476Y-125833333D01*
X214088095Y-125738095D01*
X213802380Y-126928571D02*
X213802380Y-127023809D01*
X213850000Y-127119047D01*
X213897619Y-127166666D01*
X213992857Y-127214285D01*
X214183333Y-127261904D01*
X214421428Y-127261904D01*
X214611904Y-127214285D01*
X214707142Y-127166666D01*
X214754761Y-127119047D01*
X214802380Y-127023809D01*
X214802380Y-126928571D01*
X214754761Y-126833333D01*
X214707142Y-126785714D01*
X214611904Y-126738095D01*
X214421428Y-126690476D01*
X214183333Y-126690476D01*
X213992857Y-126738095D01*
X213897619Y-126785714D01*
X213850000Y-126833333D01*
X213802380Y-126928571D01*
%TO.C,R4*%
X189802380Y-120833333D02*
X189326190Y-120500000D01*
X189802380Y-120261904D02*
X188802380Y-120261904D01*
X188802380Y-120642857D01*
X188850000Y-120738095D01*
X188897619Y-120785714D01*
X188992857Y-120833333D01*
X189135714Y-120833333D01*
X189230952Y-120785714D01*
X189278571Y-120738095D01*
X189326190Y-120642857D01*
X189326190Y-120261904D01*
X189135714Y-121690476D02*
X189802380Y-121690476D01*
X188754761Y-121452380D02*
X189469047Y-121214285D01*
X189469047Y-121833333D01*
D11*
%TO.C,J5*%
X109286000Y-142850000D02*
G75*
G03*
X109286000Y-142850000I-381000J0D01*
G01*
%TO.C,J1*%
X206991000Y-86405000D02*
G75*
G03*
X206991000Y-86405000I-381000J0D01*
G01*
%TO.C,J2*%
X229991000Y-86405000D02*
G75*
G03*
X229991000Y-86405000I-381000J0D01*
G01*
D12*
%TO.C,R11*%
X269772936Y-120765000D02*
X270227064Y-120765000D01*
X269772936Y-122235000D02*
X270227064Y-122235000D01*
%TO.C,R5*%
X244727064Y-128265000D02*
X244272936Y-128265000D01*
X244727064Y-129735000D02*
X244272936Y-129735000D01*
%TO.C,C3*%
X216735000Y-146511252D02*
X216735000Y-145988748D01*
X215265000Y-146511252D02*
X215265000Y-145988748D01*
%TO.C,R1*%
X158235000Y-134727064D02*
X158235000Y-134272936D01*
X156765000Y-134727064D02*
X156765000Y-134272936D01*
%TO.C,C6*%
X136134262Y-156114490D02*
X135611758Y-156114490D01*
X136134262Y-154644490D02*
X135611758Y-154644490D01*
%TO.C,R15*%
X159385000Y-84572936D02*
X159385000Y-85027064D01*
X157915000Y-84572936D02*
X157915000Y-85027064D01*
%TO.C,R14*%
X270265000Y-128227064D02*
X270265000Y-127772936D01*
X271735000Y-128227064D02*
X271735000Y-127772936D01*
%TO.C,R7*%
X215265000Y-120772936D02*
X215265000Y-121227064D01*
X216735000Y-120772936D02*
X216735000Y-121227064D01*
%TO.C,C1*%
X219235000Y-146511252D02*
X219235000Y-145988748D01*
X217765000Y-146511252D02*
X217765000Y-145988748D01*
%TO.C,R8*%
X218735000Y-141022936D02*
X218735000Y-141477064D01*
X217265000Y-141022936D02*
X217265000Y-141477064D01*
%TO.C,R6*%
X244727064Y-124735000D02*
X244272936Y-124735000D01*
X244727064Y-123265000D02*
X244272936Y-123265000D01*
%TO.C,C22*%
X148761252Y-126765000D02*
X148238748Y-126765000D01*
X148761252Y-128235000D02*
X148238748Y-128235000D01*
%TO.C,C2*%
X271665000Y-145698752D02*
X271665000Y-145176248D01*
X273135000Y-145698752D02*
X273135000Y-145176248D01*
%TO.C,C10*%
X189735000Y-146548752D02*
X189735000Y-146026248D01*
X188265000Y-146548752D02*
X188265000Y-146026248D01*
%TO.C,C4*%
X270735000Y-145761252D02*
X270735000Y-145238748D01*
X269265000Y-145761252D02*
X269265000Y-145238748D01*
%TO.C,R9*%
X147735000Y-134272936D02*
X147735000Y-134727064D01*
X146265000Y-134272936D02*
X146265000Y-134727064D01*
%TO.C,C16*%
X144911252Y-81535000D02*
X144388748Y-81535000D01*
X144911252Y-80065000D02*
X144388748Y-80065000D01*
%TO.C,C13*%
X190765000Y-146548752D02*
X190765000Y-146026248D01*
X192235000Y-146548752D02*
X192235000Y-146026248D01*
%TO.C,C9*%
X147820510Y-138978242D02*
X147820510Y-138455738D01*
X146350510Y-138978242D02*
X146350510Y-138455738D01*
%TO.C,C15*%
X174735000Y-89761252D02*
X174735000Y-89238748D01*
X173265000Y-89761252D02*
X173265000Y-89238748D01*
%TO.C,C5*%
X136134262Y-152144490D02*
X135611758Y-152144490D01*
X136134262Y-153614490D02*
X135611758Y-153614490D01*
%TO.C,R3*%
X190265000Y-125772936D02*
X190265000Y-126227064D01*
X191735000Y-125772936D02*
X191735000Y-126227064D01*
%TO.C,C11*%
X244761252Y-144735000D02*
X244238748Y-144735000D01*
X244761252Y-143265000D02*
X244238748Y-143265000D01*
%TO.C,C7*%
X143850510Y-138978242D02*
X143850510Y-138455738D01*
X145320510Y-138978242D02*
X145320510Y-138455738D01*
%TO.C,C12*%
X120850510Y-145618238D02*
X120850510Y-146140742D01*
X122320510Y-145618238D02*
X122320510Y-146140742D01*
%TO.C,C17*%
X139265000Y-110738748D02*
X139265000Y-111261252D01*
X140735000Y-110738748D02*
X140735000Y-111261252D01*
%TO.C,C8*%
X244761252Y-145765000D02*
X244238748Y-145765000D01*
X244761252Y-147235000D02*
X244238748Y-147235000D01*
%TO.C,C23*%
X179415510Y-132521252D02*
X179415510Y-131998748D01*
X180885510Y-132521252D02*
X180885510Y-131998748D01*
%TO.C,R13*%
X149885510Y-124487064D02*
X149885510Y-124032936D01*
X148415510Y-124487064D02*
X148415510Y-124032936D01*
%TO.C,R12*%
X271727064Y-139265000D02*
X271272936Y-139265000D01*
X271727064Y-140735000D02*
X271272936Y-140735000D01*
%TO.C,C14*%
X119820510Y-145618238D02*
X119820510Y-146140742D01*
X118350510Y-145618238D02*
X118350510Y-146140742D01*
%TO.C,R10*%
X216735000Y-125772936D02*
X216735000Y-126227064D01*
X215265000Y-125772936D02*
X215265000Y-126227064D01*
%TO.C,R4*%
X190265000Y-120772936D02*
X190265000Y-121227064D01*
X191735000Y-120772936D02*
X191735000Y-121227064D01*
%TD*%
M02*
