M48
; DRILL file {KiCad (6.0.0)} date Wed Jun 19 19:29:11 2024
; FORMAT={-:-/ absolute / metric / decimal}
; #@! TF.CreationDate,2024-06-19T19:29:11-04:00
; #@! TF.GenerationSoftware,Kicad,Pcbnew,(6.0.0)
; #@! TF.FileFunction,Plated,1,2,PTH
FMAT,2
METRIC
; #@! TA.AperFunction,Plated,PTH,ViaDrill
T1C0.400
; #@! TA.AperFunction,Plated,PTH,ViaDrill
T2C0.500
; #@! TA.AperFunction,Plated,PTH,ComponentDrill
T3C0.650
; #@! TA.AperFunction,Plated,PTH,ComponentDrill
T4C0.711
; #@! TA.AperFunction,Plated,PTH,ComponentDrill
T5C0.737
; #@! TA.AperFunction,Plated,PTH,ComponentDrill
T6C0.800
; #@! TA.AperFunction,Plated,PTH,ComponentDrill
T7C0.864
; #@! TA.AperFunction,Plated,PTH,ComponentDrill
T8C1.100
%
G90
G05
T1
X102.85Y-76.86
X102.85Y-79.4
X102.85Y-81.94
X102.85Y-155.6
X102.85Y-158.14
X102.85Y-160.68
X102.85Y-163.22
X102.85Y-170.84
X102.85Y-173.38
X102.85Y-175.92
X102.85Y-178.46
X102.85Y-181.0
X103.75Y-184.0
X104.017Y-141.57
X105.0Y-175.92
X105.25Y-81.75
X105.313Y-101.45
X105.39Y-76.86
X105.39Y-79.4
X105.39Y-99.72
X105.39Y-127.66
X105.39Y-130.2
X105.39Y-132.74
X105.39Y-135.28
X105.39Y-137.82
X105.39Y-145.44
X105.39Y-147.98
X105.39Y-150.52
X105.39Y-153.06
X105.39Y-158.14
X105.39Y-160.68
X105.39Y-163.22
X105.39Y-170.84
X105.75Y-184.0
X106.25Y-74.0
X107.5Y-172.25
X107.75Y-184.0
X107.93Y-89.56
X107.93Y-97.18
X107.93Y-127.66
X107.93Y-132.74
X107.93Y-135.28
X107.93Y-137.82
X107.93Y-140.36
X107.93Y-158.14
X107.93Y-160.68
X107.93Y-179.0
X107.93Y-181.0
X108.25Y-74.0
X108.5Y-176.0
X108.767Y-162.82
X109.517Y-130.82
X109.75Y-184.0
X110.25Y-74.0
X110.47Y-84.48
X111.017Y-152.57
X111.75Y-184.0
X112.25Y-74.0
X113.01Y-87.02
X113.01Y-89.56
X113.01Y-94.64
X113.01Y-173.38
X113.01Y-175.92
X113.01Y-178.46
X113.01Y-181.0
X113.017Y-130.32
X113.017Y-131.82
X113.267Y-163.82
X113.75Y-184.0
X114.25Y-74.0
X114.767Y-131.57
X115.017Y-133.07
X115.55Y-79.4
X115.55Y-81.94
X115.55Y-89.56
X115.55Y-97.18
X115.55Y-99.72
X115.55Y-102.26
X115.55Y-104.8
X115.55Y-107.34
X115.55Y-165.76
X115.55Y-168.3
X115.55Y-170.84
X115.55Y-175.92
X115.55Y-178.46
X115.55Y-181.0
X115.75Y-184.0
X116.25Y-74.0
X117.267Y-160.82
X117.75Y-184.0
X118.017Y-95.32
X118.09Y-81.94
X118.09Y-84.48
X118.09Y-92.1
X118.09Y-104.8
X118.09Y-107.34
X118.09Y-109.88
X118.09Y-112.42
X118.09Y-137.82
X118.09Y-140.36
X118.09Y-142.9
X118.09Y-158.14
X118.09Y-165.76
X118.09Y-168.3
X118.09Y-170.84
X118.09Y-181.0
X118.25Y-74.0
X118.267Y-161.82
X119.267Y-162.82
X119.75Y-184.0
X119.767Y-156.57
X120.25Y-74.0
X120.25Y-140.36
X120.267Y-163.82
X120.313Y-96.45
X120.313Y-101.45
X120.313Y-106.45
X120.63Y-87.02
X120.63Y-165.76
X120.63Y-168.3
X120.63Y-175.92
X120.63Y-178.46
X120.63Y-181.0
X121.25Y-128.25
X121.267Y-156.57
X121.517Y-149.57
X121.517Y-155.32
X121.75Y-184.0
X122.25Y-74.0
X122.267Y-123.57
X122.267Y-153.07
X122.5Y-129.25
X122.517Y-122.07
X123.17Y-170.84
X123.17Y-173.38
X123.17Y-175.92
X123.17Y-178.46
X123.17Y-181.0
X123.75Y-130.25
X123.75Y-184.0
X124.25Y-74.0
X124.75Y-131.25
X125.017Y-157.82
X125.25Y-83.0
X125.71Y-84.48
X125.71Y-165.76
X125.71Y-168.3
X125.71Y-170.84
X125.71Y-173.38
X125.71Y-175.92
X125.71Y-178.46
X125.71Y-181.0
X125.75Y-184.0
X125.767Y-156.82
X126.25Y-74.0
X126.267Y-155.82
X127.75Y-184.0
X128.25Y-74.0
X128.25Y-81.94
X128.25Y-165.76
X128.25Y-168.3
X128.25Y-170.84
X128.25Y-173.38
X128.25Y-175.92
X128.25Y-178.46
X128.25Y-181.0
X129.75Y-112.46
X129.75Y-115.0
X129.75Y-117.54
X129.75Y-120.08
X129.75Y-184.0
X130.25Y-74.0
X130.267Y-125.32
X130.313Y-101.45
X130.75Y-141.25
X130.767Y-89.07
X130.79Y-83.25
X130.79Y-107.34
X130.79Y-109.88
X130.79Y-142.9
X130.79Y-165.76
X130.79Y-168.3
X130.79Y-170.84
X130.79Y-173.38
X130.79Y-175.92
X130.79Y-178.46
X130.79Y-181.0
X131.75Y-184.0
X132.25Y-74.0
X132.75Y-141.5
X133.0Y-149.25
X133.33Y-81.94
X133.33Y-99.72
X133.33Y-102.26
X133.33Y-104.8
X133.33Y-109.88
X133.33Y-112.42
X133.33Y-114.96
X133.33Y-117.5
X133.33Y-120.04
X133.33Y-125.12
X133.33Y-168.3
X133.33Y-170.84
X133.33Y-173.38
X133.33Y-175.92
X133.33Y-178.46
X133.33Y-181.0
X133.517Y-107.57
X133.75Y-184.0
X134.25Y-74.0
X135.313Y-106.45
X135.313Y-121.45
X135.313Y-126.45
X135.75Y-184.0
X135.87Y-81.94
X135.87Y-104.8
X135.87Y-109.88
X135.87Y-114.96
X135.87Y-117.5
X135.87Y-170.84
X135.87Y-173.38
X135.87Y-175.92
X135.87Y-178.46
X135.87Y-181.0
X136.25Y-74.0
X137.267Y-121.32
X137.75Y-184.0
X138.25Y-74.0
X138.41Y-109.88
X138.41Y-114.96
X138.41Y-173.38
X138.41Y-175.92
X138.41Y-178.46
X138.41Y-181.0
X138.767Y-122.07
X139.017Y-124.57
X139.75Y-184.0
X140.017Y-133.07
X140.25Y-74.0
X140.313Y-156.75
X140.95Y-97.18
X140.95Y-99.72
X140.95Y-117.5
X140.95Y-175.92
X140.95Y-178.46
X140.95Y-181.0
X141.25Y-123.25
X141.75Y-184.0
X142.25Y-74.0
X142.25Y-111.0
X143.267Y-136.07
X143.49Y-97.18
X143.49Y-117.5
X143.49Y-120.04
X143.49Y-132.74
X143.49Y-153.06
X143.49Y-158.14
X143.49Y-178.46
X143.49Y-181.0
X143.5Y-155.5
X144.0Y-184.0
X144.25Y-74.0
X144.25Y-123.25
X144.5Y-112.5
X145.0Y-93.75
X145.0Y-128.75
X145.75Y-137.0
X145.758Y-141.492
X145.767Y-123.75
X145.767Y-125.603
X146.0Y-135.0
X146.0Y-184.0
X146.03Y-99.72
X146.03Y-155.6
X146.03Y-158.14
X146.03Y-181.0
X146.25Y-74.0
X146.5Y-92.0
X146.5Y-138.75
X146.75Y-122.0
X147.25Y-93.75
X147.417Y-133.87
X147.517Y-128.32
X147.974Y-143.026
X148.0Y-139.75
X148.0Y-141.5
X148.0Y-184.0
X148.5Y-74.0
X148.57Y-79.4
X148.57Y-97.18
X148.57Y-99.72
X148.57Y-120.04
X148.57Y-158.14
X148.75Y-92.0
X149.25Y-117.5
X150.0Y-123.0
X150.0Y-184.0
X150.313Y-141.45
X150.313Y-156.45
X150.5Y-74.0
X150.75Y-124.75
X151.11Y-79.4
X151.11Y-84.48
X151.11Y-120.04
X151.11Y-158.14
X151.11Y-165.76
X152.0Y-123.0
X152.0Y-184.0
X152.5Y-74.0
X153.65Y-79.4
X153.65Y-81.94
X153.65Y-104.8
X153.65Y-158.14
X153.65Y-165.76
X153.65Y-168.3
X154.0Y-184.0
X154.5Y-74.0
X154.767Y-120.296
X155.313Y-106.45
X155.313Y-156.45
X156.0Y-184.0
X156.19Y-79.4
X156.19Y-81.94
X156.19Y-87.02
X156.19Y-92.1
X156.19Y-99.72
X156.19Y-102.26
X156.19Y-104.8
X156.19Y-130.2
X156.19Y-132.74
X156.19Y-142.9
X156.19Y-158.14
X156.19Y-165.76
X156.19Y-168.3
X156.19Y-170.84
X156.5Y-74.0
X156.767Y-135.07
X158.0Y-184.0
X158.5Y-74.0
X158.5Y-111.5
X158.73Y-79.4
X158.73Y-81.94
X158.73Y-92.1
X158.73Y-99.72
X158.73Y-102.26
X158.73Y-104.8
X158.73Y-109.88
X158.73Y-132.74
X158.73Y-140.36
X158.73Y-142.9
X158.73Y-158.14
X158.73Y-165.76
X158.73Y-168.3
X158.73Y-170.84
X160.0Y-184.0
X160.25Y-110.5
X160.267Y-112.07
X160.313Y-106.45
X160.5Y-74.0
X161.017Y-120.32
X161.27Y-92.1
X161.27Y-99.72
X161.27Y-102.26
X161.27Y-104.8
X161.27Y-130.2
X161.27Y-132.74
X161.27Y-135.28
X161.27Y-137.82
X161.27Y-140.36
X161.27Y-142.9
X161.27Y-165.76
X161.27Y-168.3
X161.27Y-170.84
X161.5Y-159.5
X162.0Y-184.0
X162.017Y-160.82
X162.5Y-74.0
X162.767Y-113.07
X162.767Y-161.82
X163.017Y-87.57
X163.517Y-119.57
X163.517Y-162.82
X163.81Y-84.48
X163.81Y-99.72
X163.81Y-102.26
X163.81Y-104.8
X163.81Y-130.2
X163.81Y-132.74
X163.81Y-135.28
X163.81Y-137.82
X163.81Y-140.36
X163.81Y-142.9
X163.81Y-165.76
X163.81Y-168.3
X163.81Y-170.84
X163.85Y-108.6
X164.0Y-184.0
X164.18Y-163.82
X164.5Y-74.0
X165.0Y-165.0
X165.267Y-113.82
X165.313Y-106.45
X166.0Y-184.0
X166.017Y-118.82
X166.35Y-89.56
X166.35Y-99.72
X166.35Y-102.26
X166.35Y-104.8
X166.35Y-130.2
X166.35Y-132.74
X166.35Y-135.28
X166.35Y-137.82
X166.35Y-140.36
X166.35Y-142.9
X166.35Y-165.76
X166.35Y-168.3
X166.35Y-170.84
X166.5Y-74.0
X166.5Y-82.5
X167.0Y-84.5
X167.0Y-87.0
X168.0Y-165.75
X168.0Y-184.0
X168.247Y-84.503
X168.247Y-87.003
X168.286Y-164.214
X168.5Y-74.0
X168.517Y-115.64
X168.89Y-99.72
X168.89Y-102.26
X168.89Y-104.8
X168.89Y-130.2
X168.89Y-132.74
X168.89Y-135.28
X168.89Y-137.82
X168.89Y-140.36
X168.89Y-142.9
X168.89Y-168.3
X168.89Y-170.84
X169.0Y-163.25
X169.017Y-160.07
X169.017Y-161.57
X169.517Y-116.57
X170.0Y-184.0
X170.3Y-108.6
X170.313Y-106.45
X170.5Y-74.0
X171.43Y-99.72
X171.43Y-102.26
X171.43Y-104.8
X171.43Y-130.2
X171.43Y-132.74
X171.43Y-135.28
X171.43Y-137.82
X171.43Y-140.36
X171.43Y-142.9
X171.43Y-170.84
X172.0Y-184.0
X172.5Y-74.0
X173.97Y-84.48
X173.97Y-87.02
X173.97Y-89.56
X173.97Y-99.72
X173.97Y-102.26
X174.0Y-82.5
X174.0Y-184.0
X174.5Y-74.0
X175.517Y-171.57
X176.0Y-105.65
X176.0Y-184.0
X176.5Y-74.0
X176.51Y-79.4
X176.51Y-81.94
X176.51Y-84.48
X176.51Y-89.56
X176.51Y-92.1
X176.51Y-97.18
X176.51Y-99.72
X178.0Y-184.0
X178.5Y-74.0
X178.5Y-94.75
X178.767Y-171.57
X179.05Y-79.4
X179.05Y-81.94
X179.05Y-97.18
X179.75Y-84.5
X179.75Y-87.02
X179.75Y-89.5
X180.0Y-92.1
X180.0Y-184.0
X180.313Y-131.45
X180.35Y-101.35
X180.5Y-74.0
X181.59Y-81.94
X181.59Y-84.48
X181.59Y-87.02
X181.59Y-89.56
X181.59Y-92.1
X181.59Y-94.64
X181.59Y-125.12
X181.59Y-127.66
X181.767Y-171.57
X182.0Y-184.0
X182.5Y-74.0
X184.0Y-184.0
X184.13Y-76.86
X184.13Y-84.48
X184.13Y-87.02
X184.13Y-89.56
X184.13Y-92.1
X184.13Y-122.58
X184.13Y-125.12
X184.13Y-127.66
X184.5Y-74.0
X184.65Y-97.0
X185.0Y-150.25
X186.0Y-184.0
X186.5Y-74.0
X186.67Y-76.86
X186.67Y-79.4
X186.67Y-87.02
X186.67Y-89.56
X186.67Y-120.04
X186.67Y-122.58
X186.67Y-125.12
X187.267Y-135.07
X188.0Y-184.0
X188.05Y-93.65
X188.5Y-74.0
X188.517Y-133.57
X189.21Y-76.86
X189.21Y-79.4
X189.21Y-81.94
X189.21Y-173.38
X189.267Y-171.82
X189.75Y-139.75
X189.75Y-142.5
X189.75Y-145.5
X190.0Y-184.0
X190.5Y-74.0
X190.517Y-133.57
X191.75Y-76.86
X191.75Y-79.4
X191.75Y-81.94
X191.75Y-84.48
X191.75Y-87.02
X191.75Y-89.56
X191.75Y-114.96
X191.75Y-117.5
X191.75Y-120.04
X191.75Y-135.28
X191.75Y-173.38
X191.767Y-171.82
X192.0Y-184.0
X192.5Y-74.0
X193.517Y-97.57
X194.0Y-184.0
X194.267Y-171.82
X194.29Y-76.86
X194.29Y-79.4
X194.29Y-81.94
X194.29Y-84.48
X194.29Y-87.02
X194.29Y-89.56
X194.29Y-173.38
X194.5Y-74.0
X194.667Y-153.37
X195.017Y-98.57
X195.667Y-156.37
X196.0Y-184.0
X196.017Y-99.57
X196.5Y-74.0
X196.667Y-157.37
X196.767Y-171.82
X196.83Y-76.86
X196.83Y-79.4
X196.83Y-81.94
X196.83Y-84.48
X196.83Y-87.02
X196.83Y-89.56
X196.83Y-122.58
X196.83Y-125.12
X196.83Y-127.66
X196.83Y-132.74
X196.83Y-173.38
X197.017Y-100.57
X197.667Y-162.37
X198.0Y-184.0
X198.017Y-101.57
X198.5Y-74.0
X198.614Y-161.279
X199.37Y-76.86
X199.37Y-79.4
X199.37Y-81.94
X199.37Y-84.48
X199.37Y-87.02
X199.37Y-89.56
X199.37Y-112.42
X199.37Y-114.96
X199.37Y-117.5
X199.37Y-120.04
X199.37Y-122.58
X199.37Y-125.12
X199.37Y-127.66
X199.37Y-130.2
X199.37Y-135.28
X199.37Y-173.38
X199.517Y-171.82
X199.614Y-159.37
X200.0Y-184.0
X200.5Y-74.0
X200.667Y-160.37
X201.91Y-76.86
X201.91Y-79.4
X201.91Y-81.94
X201.91Y-84.48
X201.91Y-87.02
X201.91Y-89.56
X201.91Y-112.42
X201.91Y-114.96
X201.91Y-117.5
X201.91Y-120.04
X201.91Y-122.58
X201.91Y-125.12
X201.91Y-127.66
X201.91Y-130.2
X201.91Y-132.74
X201.91Y-135.28
X201.91Y-137.82
X201.91Y-173.38
X202.0Y-184.0
X202.017Y-171.82
X202.167Y-165.37
X202.5Y-74.0
X203.131Y-164.263
X203.267Y-92.82
X204.0Y-184.0
X204.167Y-163.37
X204.45Y-76.86
X204.45Y-79.4
X204.45Y-81.94
X204.45Y-84.48
X204.45Y-89.56
X204.45Y-120.04
X204.45Y-122.58
X204.45Y-125.12
X204.45Y-127.66
X204.45Y-130.2
X204.45Y-132.74
X204.45Y-135.28
X204.45Y-173.38
X204.5Y-74.0
X204.5Y-86.25
X204.517Y-171.82
X205.017Y-94.57
X205.167Y-158.37
X206.0Y-184.0
X206.017Y-95.57
X206.167Y-155.37
X206.5Y-74.0
X206.99Y-122.58
X206.99Y-125.12
X206.99Y-127.66
X206.99Y-130.2
X206.99Y-132.74
X206.99Y-173.38
X207.017Y-96.57
X207.017Y-171.82
X207.09Y-84.5
X207.167Y-154.37
X208.0Y-184.0
X208.5Y-74.0
X209.017Y-166.37
X209.5Y-152.0
X209.517Y-171.82
X209.53Y-173.38
X209.63Y-84.5
X210.0Y-184.0
X210.017Y-167.57
X210.313Y-111.45
X210.313Y-116.45
X210.313Y-121.45
X210.5Y-74.0
X210.767Y-168.57
X211.767Y-169.57
X212.0Y-184.0
X212.07Y-112.42
X212.07Y-114.96
X212.07Y-117.5
X212.07Y-120.04
X212.07Y-122.58
X212.17Y-84.5
X212.5Y-74.0
X212.517Y-92.82
X213.017Y-170.57
X214.0Y-184.0
X214.5Y-74.0
X214.61Y-112.42
X214.61Y-114.96
X214.61Y-117.5
X214.61Y-120.04
X214.617Y-126.47
X214.71Y-84.5
X214.767Y-91.07
X215.164Y-132.87
X215.313Y-176.45
X216.0Y-184.0
X216.25Y-134.25
X216.25Y-138.5
X216.25Y-142.75
X216.25Y-146.0
X216.5Y-74.0
X217.15Y-175.92
X217.25Y-84.5
X217.417Y-146.67
X218.0Y-184.0
X218.5Y-74.0
X219.5Y-110.75
X219.5Y-118.75
X219.5Y-123.75
X219.69Y-173.38
X219.69Y-175.92
X219.84Y-84.5
X220.0Y-152.25
X220.0Y-184.0
X220.5Y-74.0
X220.517Y-97.57
X222.0Y-184.0
X222.017Y-98.57
X222.167Y-155.37
X222.23Y-125.12
X222.23Y-173.38
X222.23Y-175.92
X222.25Y-131.75
X222.38Y-84.5
X222.5Y-74.0
X223.017Y-99.57
X223.167Y-157.37
X224.0Y-184.0
X224.017Y-100.57
X224.167Y-162.37
X224.25Y-133.5
X224.5Y-74.0
X224.77Y-122.58
X224.77Y-125.12
X224.77Y-127.66
X224.77Y-173.38
X224.77Y-175.92
X224.92Y-84.5
X225.017Y-101.57
X225.167Y-161.37
X225.75Y-135.25
X226.0Y-184.0
X226.167Y-159.37
X226.5Y-74.0
X227.167Y-160.37
X227.31Y-87.02
X227.31Y-89.56
X227.31Y-99.72
X227.31Y-112.42
X227.31Y-114.96
X227.31Y-117.5
X227.31Y-120.04
X227.31Y-122.58
X227.31Y-125.12
X227.31Y-127.66
X227.31Y-130.2
X227.31Y-173.38
X227.31Y-175.92
X227.46Y-84.5
X228.0Y-184.0
X228.5Y-74.0
X228.667Y-166.37
X229.667Y-165.37
X229.85Y-99.72
X229.85Y-112.42
X229.85Y-114.96
X229.85Y-117.5
X229.85Y-120.04
X229.85Y-122.58
X229.85Y-125.12
X229.85Y-127.66
X229.85Y-130.2
X229.85Y-132.74
X229.85Y-135.28
X229.85Y-173.38
X229.85Y-175.92
X230.0Y-84.5
X230.0Y-184.0
X230.313Y-101.45
X230.5Y-74.0
X230.667Y-164.37
X231.667Y-163.37
X232.0Y-184.0
X232.017Y-94.57
X232.39Y-120.04
X232.39Y-122.58
X232.39Y-125.12
X232.39Y-127.66
X232.39Y-130.2
X232.39Y-132.74
X232.39Y-173.38
X232.39Y-175.92
X232.5Y-74.0
X232.59Y-84.5
X232.667Y-158.37
X233.017Y-95.57
X233.667Y-156.37
X234.0Y-184.0
X234.017Y-96.57
X234.5Y-74.0
X234.667Y-154.37
X234.93Y-173.38
X234.93Y-175.92
X235.13Y-84.5
X235.517Y-102.57
X236.0Y-184.0
X236.5Y-74.0
X236.5Y-152.5
X236.517Y-103.57
X236.517Y-167.57
X237.267Y-168.57
X237.47Y-112.42
X237.47Y-114.96
X237.47Y-117.5
X237.47Y-120.04
X237.47Y-173.38
X237.517Y-104.57
X237.67Y-84.5
X238.0Y-184.0
X238.017Y-169.57
X238.5Y-74.0
X238.517Y-105.57
X239.017Y-170.57
X239.517Y-106.57
X240.0Y-184.0
X240.01Y-112.42
X240.01Y-114.96
X240.01Y-117.5
X240.01Y-120.04
X240.01Y-122.58
X240.01Y-178.46
X240.21Y-84.5
X240.5Y-74.0
X240.517Y-107.57
X241.517Y-108.57
X241.767Y-128.07
X242.0Y-184.0
X242.017Y-130.57
X242.5Y-74.0
X242.517Y-109.57
X242.55Y-112.42
X242.55Y-114.96
X242.55Y-117.5
X242.55Y-120.04
X242.55Y-122.58
X242.55Y-125.12
X242.55Y-175.92
X242.55Y-178.46
X242.75Y-84.5
X243.75Y-134.75
X243.75Y-137.75
X243.75Y-140.75
X243.75Y-143.75
X244.0Y-184.0
X244.017Y-93.82
X244.5Y-74.0
X245.0Y-84.5
X245.09Y-173.38
X245.09Y-175.92
X245.09Y-178.46
X245.313Y-151.45
X245.517Y-125.57
X246.0Y-184.0
X246.5Y-74.0
X247.0Y-152.25
X247.517Y-105.623
X247.54Y-84.5
X247.63Y-89.56
X247.63Y-94.64
X247.63Y-97.18
X247.63Y-99.72
X247.63Y-173.38
X247.63Y-175.92
X247.63Y-178.46
X248.0Y-184.0
X248.5Y-74.0
X248.82Y-153.217
X249.517Y-106.57
X249.549Y-156.316
X250.0Y-184.0
X250.17Y-76.75
X250.17Y-79.29
X250.17Y-81.94
X250.17Y-84.48
X250.17Y-87.02
X250.17Y-89.56
X250.17Y-94.64
X250.17Y-97.18
X250.17Y-99.72
X250.17Y-122.58
X250.17Y-125.12
X250.17Y-132.74
X250.17Y-175.92
X250.17Y-178.46
X250.313Y-101.45
X250.5Y-74.0
X250.517Y-107.57
X250.874Y-157.324
X251.517Y-108.57
X251.82Y-162.316
X252.0Y-184.0
X252.5Y-74.0
X252.517Y-109.57
X252.517Y-175.82
X252.71Y-76.75
X252.71Y-79.29
X252.71Y-81.94
X252.71Y-84.48
X252.71Y-87.02
X252.71Y-89.56
X252.71Y-94.64
X252.71Y-97.18
X252.71Y-99.72
X252.71Y-120.04
X252.71Y-122.58
X252.71Y-125.12
X252.71Y-127.66
X252.71Y-135.28
X252.71Y-173.38
X252.71Y-178.46
X253.017Y-161.126
X253.767Y-159.217
X254.0Y-184.0
X254.5Y-74.0
X254.82Y-160.217
X255.25Y-76.75
X255.25Y-79.29
X255.25Y-81.94
X255.25Y-84.48
X255.25Y-87.02
X255.25Y-89.56
X255.25Y-94.64
X255.25Y-97.18
X255.25Y-99.72
X255.25Y-112.42
X255.25Y-114.96
X255.25Y-117.5
X255.25Y-120.04
X255.25Y-122.58
X255.25Y-125.12
X255.25Y-127.66
X255.25Y-130.2
X255.25Y-173.38
X255.25Y-178.46
X255.313Y-101.45
X256.0Y-184.0
X256.5Y-74.0
X256.517Y-165.316
X257.508Y-164.324
X257.79Y-89.56
X257.79Y-94.64
X257.79Y-97.18
X257.79Y-99.72
X257.79Y-112.42
X257.79Y-114.96
X257.79Y-117.5
X257.79Y-120.04
X257.79Y-122.58
X257.79Y-125.12
X257.79Y-127.66
X257.79Y-130.2
X257.79Y-132.74
X257.79Y-135.28
X257.79Y-137.82
X257.79Y-173.38
X257.79Y-178.46
X258.0Y-184.0
X258.417Y-163.27
X258.5Y-74.0
X259.017Y-102.57
X259.517Y-158.271
X260.0Y-184.0
X260.017Y-103.57
X260.33Y-89.56
X260.33Y-94.64
X260.33Y-97.18
X260.33Y-99.72
X260.33Y-120.04
X260.33Y-122.58
X260.33Y-125.12
X260.33Y-127.66
X260.33Y-130.2
X260.33Y-132.74
X260.33Y-135.28
X260.33Y-173.38
X260.5Y-74.0
X260.517Y-155.217
X261.017Y-104.57
X261.351Y-154.07
X262.0Y-184.0
X262.5Y-74.0
X262.87Y-89.56
X262.87Y-94.64
X262.87Y-97.18
X262.87Y-99.72
X262.87Y-173.38
X263.25Y-152.75
X263.267Y-166.57
X264.0Y-184.0
X264.5Y-74.0
X264.517Y-167.57
X265.403Y-97.23
X265.41Y-89.56
X265.41Y-99.72
X265.41Y-112.42
X265.41Y-114.96
X265.41Y-117.5
X265.41Y-120.04
X265.5Y-94.75
X265.5Y-101.45
X265.517Y-168.57
X265.767Y-180.07
X266.0Y-184.0
X266.267Y-169.57
X266.267Y-175.07
X266.5Y-74.0
X266.767Y-123.07
X267.017Y-170.57
X267.25Y-95.0
X267.25Y-97.25
X267.25Y-99.75
X267.25Y-101.5
X267.267Y-176.32
X267.95Y-89.56
X267.95Y-178.46
X267.95Y-181.0
X268.0Y-184.0
X268.267Y-93.57
X268.5Y-74.0
X268.614Y-153.07
X269.017Y-115.07
X269.164Y-134.87
X269.517Y-136.57
X269.517Y-139.57
X269.767Y-91.82
X270.0Y-184.0
X270.017Y-145.07
X270.267Y-171.82
X270.313Y-101.45
X270.49Y-89.56
X270.49Y-99.72
X270.49Y-112.42
X270.49Y-117.5
X270.49Y-120.04
X270.49Y-122.58
X270.49Y-127.66
X270.49Y-175.92
X270.49Y-178.46
X270.49Y-181.0
X270.5Y-74.0
X270.517Y-133.82
X270.75Y-94.75
X271.0Y-97.25
X271.267Y-153.07
X271.767Y-134.82
X271.767Y-139.57
X272.0Y-184.75
X272.017Y-171.82
X272.5Y-74.0
X272.531Y-144.806
X273.017Y-154.07
X273.03Y-89.56
X273.03Y-92.1
X274.0Y-184.75
X274.017Y-155.07
X274.5Y-74.0
X274.517Y-105.57
X275.017Y-156.316
X275.313Y-101.45
X275.57Y-99.72
X275.71Y-92.25
X275.71Y-94.75
X275.71Y-97.25
X275.767Y-157.32
X276.0Y-184.75
X276.017Y-155.07
X276.5Y-74.0
X276.517Y-106.57
X276.517Y-158.32
X277.017Y-157.263
X277.517Y-107.57
X278.0Y-173.0
X278.0Y-184.75
X278.017Y-162.11
X278.11Y-99.72
X278.11Y-122.58
X278.11Y-125.12
X278.11Y-127.66
X278.11Y-132.74
X278.25Y-92.25
X278.25Y-94.75
X278.25Y-97.25
X278.5Y-74.0
X278.517Y-108.57
X279.017Y-161.11
X279.517Y-109.57
X280.017Y-159.217
X280.25Y-184.75
X280.313Y-101.45
X280.5Y-74.0
X280.65Y-99.72
X280.65Y-107.34
X280.65Y-112.42
X280.65Y-114.96
X280.65Y-117.5
X280.65Y-120.04
X280.65Y-122.58
X280.65Y-125.12
X280.65Y-127.66
X280.65Y-130.2
X280.79Y-92.25
X280.79Y-94.75
X280.79Y-97.25
X281.017Y-160.07
X281.267Y-162.07
X282.25Y-184.75
X282.5Y-74.0
X282.517Y-166.82
X283.017Y-171.82
X283.19Y-99.72
X283.19Y-107.34
X283.19Y-109.88
X283.19Y-112.42
X283.19Y-114.96
X283.19Y-117.5
X283.19Y-120.04
X283.19Y-122.58
X283.19Y-125.12
X283.19Y-127.66
X283.19Y-130.2
X283.19Y-132.74
X283.19Y-135.28
X283.33Y-92.25
X283.33Y-94.75
X283.33Y-97.25
X283.608Y-165.525
X284.25Y-184.75
X284.5Y-74.0
X284.517Y-164.57
X285.5Y-173.25
X285.517Y-162.82
X285.73Y-99.72
X285.73Y-117.5
X285.73Y-120.04
X285.73Y-122.58
X285.73Y-125.12
X285.73Y-127.66
X285.73Y-130.2
X285.73Y-132.74
X285.87Y-92.25
X285.87Y-94.75
X285.87Y-97.25
X286.017Y-102.57
X286.25Y-184.75
X286.267Y-165.57
X286.5Y-74.0
X286.517Y-158.07
X286.75Y-159.5
X286.75Y-161.75
X287.0Y-164.0
X287.017Y-103.57
X287.517Y-156.57
X287.767Y-172.57
X288.017Y-104.57
X288.25Y-158.0
X288.25Y-184.75
X288.27Y-99.72
X288.27Y-120.04
X288.27Y-122.58
X288.27Y-125.12
X288.27Y-127.66
X288.27Y-130.2
X288.27Y-160.68
X288.41Y-92.25
X288.41Y-94.75
X288.41Y-97.25
X288.5Y-74.0
X288.517Y-154.07
X289.517Y-164.07
X290.25Y-184.75
X290.5Y-74.0
X290.5Y-161.25
X290.767Y-164.32
X290.81Y-99.72
X290.81Y-102.26
X290.81Y-104.8
X290.81Y-107.34
X290.81Y-109.88
X290.81Y-153.06
X290.81Y-155.6
X290.81Y-158.14
X290.95Y-94.75
X290.95Y-97.25
X290.96Y-92.25
X292.017Y-164.57
X292.5Y-74.0
X293.35Y-99.72
X293.35Y-102.26
X293.35Y-104.8
X293.35Y-107.34
X293.35Y-109.88
X293.35Y-112.42
X293.35Y-114.96
X293.35Y-117.5
X293.35Y-120.04
X293.35Y-122.58
X293.49Y-94.75
X293.49Y-97.25
X293.5Y-92.25
X294.5Y-74.0
X295.89Y-76.86
X295.89Y-79.4
X295.89Y-81.94
X295.89Y-84.48
X295.89Y-87.02
X295.89Y-89.56
X295.89Y-92.1
X295.89Y-94.64
X295.89Y-97.18
X295.89Y-99.72
X295.89Y-102.26
X295.89Y-104.8
X295.89Y-107.34
X295.89Y-109.88
X295.89Y-112.42
X295.89Y-114.96
X295.89Y-117.5
X295.89Y-120.04
X295.89Y-122.58
X295.89Y-125.12
X295.89Y-127.66
X295.89Y-130.2
X295.89Y-132.74
X295.89Y-135.28
X295.89Y-137.82
X295.89Y-140.36
X295.89Y-142.9
X295.89Y-145.44
X295.89Y-147.98
X295.89Y-150.52
X295.89Y-153.06
X295.89Y-155.6
X295.89Y-158.14
X295.89Y-160.68
X295.89Y-163.22
X295.89Y-165.76
X295.89Y-168.3
X295.89Y-170.84
X295.89Y-173.38
X295.89Y-175.92
X295.89Y-177.75
X295.89Y-181.0
T2
X114.017Y-110.07
X114.017Y-113.07
X114.017Y-116.07
X114.017Y-119.07
X114.017Y-122.07
X114.017Y-125.07
X147.767Y-83.32
X159.25Y-85.25
X189.517Y-123.07
X189.517Y-128.32
X216.517Y-121.07
X217.267Y-140.82
X217.407Y-127.07
T3
X135.207Y-112.95
X135.207Y-128.19
X142.827Y-112.95
X142.827Y-128.19
X161.047Y-86.06
X161.047Y-93.68
X176.287Y-86.06
X176.287Y-93.68
T4
X105.517Y-83.76
X105.517Y-86.3
X105.517Y-88.84
X105.517Y-91.38
X107.567Y-143.72
X107.567Y-146.26
X107.567Y-148.8
X107.567Y-151.34
X107.567Y-153.88
X107.567Y-156.42
X109.477Y-78.57
X112.017Y-78.57
X118.167Y-78.57
X120.707Y-78.57
X123.247Y-78.57
X125.787Y-78.57
X128.327Y-78.57
X130.867Y-78.57
X160.65Y-78.57
X163.19Y-78.57
X165.73Y-78.57
X168.27Y-78.57
X170.81Y-78.57
X173.35Y-78.57
X206.627Y-87.57
X209.167Y-87.57
X211.707Y-87.57
X214.247Y-87.57
X216.787Y-87.57
X219.327Y-87.57
X221.867Y-87.57
X224.407Y-87.57
X229.627Y-87.57
X232.167Y-87.57
X234.707Y-87.57
X237.247Y-87.57
X239.787Y-87.57
X242.327Y-87.57
X244.867Y-87.57
X247.407Y-87.57
X272.857Y-177.501
X272.857Y-180.041
X275.397Y-177.501
X275.397Y-180.041
X277.937Y-177.501
X277.937Y-180.041
X280.477Y-177.501
X280.477Y-180.041
X283.017Y-177.501
X283.017Y-180.041
X285.557Y-177.501
X285.557Y-180.041
X288.097Y-177.501
X288.097Y-180.041
X290.637Y-177.501
X290.637Y-180.041
X293.177Y-177.501
X293.177Y-180.041
T5
X193.427Y-112.27
X193.427Y-114.81
X193.427Y-117.35
X193.427Y-119.89
X193.427Y-122.43
X193.427Y-124.97
X193.427Y-127.51
X193.427Y-130.05
X193.427Y-132.59
X193.427Y-135.13
X193.427Y-137.67
X193.427Y-140.21
X193.427Y-142.75
X193.427Y-145.29
X193.427Y-147.83
X193.427Y-150.37
X208.667Y-112.27
X208.667Y-114.81
X208.667Y-117.35
X208.667Y-119.89
X208.667Y-122.43
X208.667Y-124.97
X208.667Y-127.51
X208.667Y-130.05
X208.667Y-132.59
X208.667Y-135.13
X208.667Y-137.67
X208.667Y-140.21
X208.667Y-142.75
X208.667Y-145.29
X208.667Y-147.83
X208.667Y-150.37
X220.667Y-112.27
X220.667Y-114.81
X220.667Y-117.35
X220.667Y-119.89
X220.667Y-122.43
X220.667Y-124.97
X220.667Y-127.51
X220.667Y-130.05
X220.667Y-132.59
X220.667Y-135.13
X220.667Y-137.67
X220.667Y-140.21
X220.667Y-142.75
X220.667Y-145.29
X220.667Y-147.83
X220.667Y-150.37
X235.907Y-112.27
X235.907Y-114.81
X235.907Y-117.35
X235.907Y-119.89
X235.907Y-122.43
X235.907Y-124.97
X235.907Y-127.51
X235.907Y-130.05
X235.907Y-132.59
X235.907Y-135.13
X235.907Y-137.67
X235.907Y-140.21
X235.907Y-142.75
X235.907Y-145.29
X235.907Y-147.83
X235.907Y-150.37
X247.597Y-111.81
X247.597Y-114.35
X247.597Y-116.89
X247.597Y-119.43
X247.597Y-121.97
X247.597Y-124.51
X247.597Y-127.05
X247.597Y-129.59
X247.597Y-132.13
X247.597Y-134.67
X247.597Y-137.21
X247.597Y-139.75
X247.597Y-142.29
X247.597Y-144.83
X247.597Y-147.37
X247.597Y-149.91
X262.837Y-111.81
X262.837Y-114.35
X262.837Y-116.89
X262.837Y-119.43
X262.837Y-121.97
X262.837Y-124.51
X262.837Y-127.05
X262.837Y-129.59
X262.837Y-132.13
X262.837Y-134.67
X262.837Y-137.21
X262.837Y-139.75
X262.837Y-142.29
X262.837Y-144.83
X262.837Y-147.37
X262.837Y-149.91
X274.667Y-111.77
X274.667Y-114.31
X274.667Y-116.85
X274.667Y-119.39
X274.667Y-121.93
X274.667Y-124.47
X274.667Y-127.01
X274.667Y-129.55
X274.667Y-132.09
X274.667Y-134.63
X274.667Y-137.17
X274.667Y-139.71
X274.667Y-142.25
X274.667Y-144.79
X274.667Y-147.33
X274.667Y-149.87
X289.907Y-111.77
X289.907Y-114.31
X289.907Y-116.85
X289.907Y-119.39
X289.907Y-121.93
X289.907Y-124.47
X289.907Y-127.01
X289.907Y-129.55
X289.907Y-132.09
X289.907Y-134.63
X289.907Y-137.17
X289.907Y-139.71
X289.907Y-142.25
X289.907Y-144.79
X289.907Y-147.33
X289.907Y-149.87
T6
X151.968Y-126.17
X151.968Y-128.71
X151.968Y-131.25
X151.968Y-133.79
X151.968Y-136.33
X151.968Y-138.87
X151.968Y-141.41
X151.968Y-143.95
X151.968Y-146.49
X154.508Y-123.63
X154.508Y-126.17
X154.508Y-128.71
X154.508Y-131.25
X154.508Y-133.79
X154.508Y-136.33
X154.508Y-138.87
X154.508Y-141.41
X154.508Y-143.95
X154.508Y-146.49
X154.508Y-149.03
X157.048Y-123.63
X157.048Y-126.17
X157.048Y-146.49
X157.048Y-149.03
X159.588Y-123.63
X159.588Y-126.17
X159.588Y-146.49
X159.588Y-149.03
X162.128Y-123.63
X162.128Y-126.17
X162.128Y-146.49
X162.128Y-149.03
X164.668Y-123.63
X164.668Y-126.17
X164.668Y-146.49
X164.668Y-149.03
X167.208Y-123.63
X167.208Y-126.17
X167.208Y-146.49
X167.208Y-149.03
X169.748Y-123.63
X169.748Y-126.17
X169.748Y-146.49
X169.748Y-149.03
X172.288Y-123.63
X172.288Y-126.17
X172.288Y-146.49
X172.288Y-149.03
X174.828Y-123.63
X174.828Y-126.17
X174.828Y-128.71
X174.828Y-131.25
X174.828Y-133.79
X174.828Y-136.33
X174.828Y-138.87
X174.828Y-141.41
X174.828Y-143.95
X174.828Y-146.49
X174.828Y-149.03
X177.368Y-126.17
X177.368Y-128.71
X177.368Y-131.25
X177.368Y-133.79
X177.368Y-136.33
X177.368Y-138.87
X177.368Y-141.41
X177.368Y-143.95
X177.368Y-146.49
T7
X124.177Y-137.72
X124.177Y-140.26
X124.177Y-142.8
X124.177Y-145.34
X124.177Y-147.88
X124.177Y-150.42
X126.717Y-135.18
X126.717Y-137.72
X126.717Y-140.26
X126.717Y-142.8
X126.717Y-145.34
X126.717Y-147.88
X126.717Y-150.42
X126.717Y-152.96
X129.257Y-135.18
X129.257Y-137.72
X129.257Y-150.42
X129.257Y-152.96
X131.797Y-135.18
X131.797Y-137.72
X131.797Y-150.42
X131.797Y-152.96
X134.337Y-135.18
X134.337Y-137.72
X134.337Y-150.42
X134.337Y-152.96
X135.777Y-89.52
X135.777Y-92.06
X135.777Y-94.6
X135.777Y-97.14
X135.777Y-99.68
X135.777Y-102.22
X136.877Y-135.18
X136.877Y-137.72
X136.877Y-150.42
X136.877Y-152.96
X138.317Y-86.98
X138.317Y-89.52
X138.317Y-92.06
X138.317Y-94.6
X138.317Y-97.14
X138.317Y-99.68
X138.317Y-102.22
X138.317Y-104.76
X139.417Y-135.18
X139.417Y-137.72
X139.417Y-140.26
X139.417Y-142.8
X139.417Y-145.34
X139.417Y-147.88
X139.417Y-150.42
X139.417Y-152.96
X140.857Y-86.98
X140.857Y-89.52
X140.857Y-102.22
X140.857Y-104.76
X141.957Y-137.72
X141.957Y-140.26
X141.957Y-142.8
X141.957Y-145.34
X141.957Y-147.88
X141.957Y-150.42
X143.397Y-86.98
X143.397Y-89.52
X143.397Y-102.22
X143.397Y-104.76
X145.937Y-86.98
X145.937Y-89.52
X145.937Y-102.22
X145.937Y-104.76
X148.477Y-86.98
X148.477Y-89.52
X148.477Y-102.22
X148.477Y-104.76
X151.017Y-86.98
X151.017Y-89.52
X151.017Y-92.06
X151.017Y-94.6
X151.017Y-97.14
X151.017Y-99.68
X151.017Y-102.22
X151.017Y-104.76
X153.557Y-89.52
X153.557Y-92.06
X153.557Y-94.6
X153.557Y-97.14
X153.557Y-99.68
X153.557Y-102.22
T8
X105.267Y-173.32
X105.267Y-179.82
X109.767Y-173.32
X109.767Y-179.82
T0
M30
