%TF.GenerationSoftware,KiCad,Pcbnew,(6.0.0)*%
%TF.CreationDate,2024-06-19T19:19:11-04:00*%
%TF.ProjectId,MCD_Rev2,4d43445f-5265-4763-922e-6b696361645f,rev?*%
%TF.SameCoordinates,Original*%
%TF.FileFunction,Paste,Bot*%
%TF.FilePolarity,Positive*%
%FSLAX46Y46*%
G04 Gerber Fmt 4.6, Leading zero omitted, Abs format (unit mm)*
G04 Created by KiCad (PCBNEW (6.0.0)) date 2024-06-19 19:19:11*
%MOMM*%
%LPD*%
G01*
G04 APERTURE LIST*
G04 Aperture macros list*
%AMRoundRect*
0 Rectangle with rounded corners*
0 $1 Rounding radius*
0 $2 $3 $4 $5 $6 $7 $8 $9 X,Y pos of 4 corners*
0 Add a 4 corners polygon primitive as box body*
4,1,4,$2,$3,$4,$5,$6,$7,$8,$9,$2,$3,0*
0 Add four circle primitives for the rounded corners*
1,1,$1+$1,$2,$3*
1,1,$1+$1,$4,$5*
1,1,$1+$1,$6,$7*
1,1,$1+$1,$8,$9*
0 Add four rect primitives between the rounded corners*
20,1,$1+$1,$2,$3,$4,$5,0*
20,1,$1+$1,$4,$5,$6,$7,0*
20,1,$1+$1,$6,$7,$8,$9,0*
20,1,$1+$1,$8,$9,$2,$3,0*%
G04 Aperture macros list end*
%ADD10RoundRect,0.250000X-0.350000X-0.450000X0.350000X-0.450000X0.350000X0.450000X-0.350000X0.450000X0*%
%ADD11RoundRect,0.250000X0.350000X0.450000X-0.350000X0.450000X-0.350000X-0.450000X0.350000X-0.450000X0*%
%ADD12RoundRect,0.250000X0.475000X-0.337500X0.475000X0.337500X-0.475000X0.337500X-0.475000X-0.337500X0*%
%ADD13RoundRect,0.250000X0.450000X-0.350000X0.450000X0.350000X-0.450000X0.350000X-0.450000X-0.350000X0*%
%ADD14RoundRect,0.250000X0.337500X0.475000X-0.337500X0.475000X-0.337500X-0.475000X0.337500X-0.475000X0*%
%ADD15RoundRect,0.250000X-0.450000X0.350000X-0.450000X-0.350000X0.450000X-0.350000X0.450000X0.350000X0*%
%ADD16RoundRect,0.250000X-0.337500X-0.475000X0.337500X-0.475000X0.337500X0.475000X-0.337500X0.475000X0*%
%ADD17RoundRect,0.250000X-0.475000X0.337500X-0.475000X-0.337500X0.475000X-0.337500X0.475000X0.337500X0*%
G04 APERTURE END LIST*
D10*
%TO.C,R11*%
X269017123Y-124570000D03*
X271017123Y-124570000D03*
%TD*%
D11*
%TO.C,R5*%
X245517123Y-132070000D03*
X243517123Y-132070000D03*
%TD*%
D12*
%TO.C,C3*%
X216017123Y-150357500D03*
X216017123Y-148282500D03*
%TD*%
D13*
%TO.C,R1*%
X157517123Y-138570000D03*
X157517123Y-136570000D03*
%TD*%
D10*
%TO.C,R24*%
X141250000Y-95250000D03*
X143250000Y-95250000D03*
%TD*%
D14*
%TO.C,C6*%
X136877123Y-145820000D03*
X134802123Y-145820000D03*
%TD*%
D15*
%TO.C,R15*%
X158667123Y-86870000D03*
X158667123Y-88870000D03*
%TD*%
D13*
%TO.C,R14*%
X270517123Y-132170000D03*
X270517123Y-130170000D03*
%TD*%
D15*
%TO.C,R7*%
X216017123Y-123070000D03*
X216017123Y-125070000D03*
%TD*%
D12*
%TO.C,C1*%
X218517123Y-150357500D03*
X218517123Y-148282500D03*
%TD*%
D15*
%TO.C,R8*%
X218017123Y-143320000D03*
X218017123Y-145320000D03*
%TD*%
D11*
%TO.C,R6*%
X245517123Y-127070000D03*
X243517123Y-127070000D03*
%TD*%
D14*
%TO.C,C22*%
X149554623Y-130570000D03*
X147479623Y-130570000D03*
%TD*%
D12*
%TO.C,C2*%
X272417123Y-149545000D03*
X272417123Y-147470000D03*
%TD*%
%TO.C,C10*%
X189017123Y-150395000D03*
X189017123Y-148320000D03*
%TD*%
%TO.C,C4*%
X270017123Y-149607500D03*
X270017123Y-147532500D03*
%TD*%
D15*
%TO.C,R9*%
X149267123Y-136570000D03*
X149267123Y-138570000D03*
%TD*%
D14*
%TO.C,C16*%
X145704623Y-83870000D03*
X143629623Y-83870000D03*
%TD*%
D13*
%TO.C,R2*%
X149267123Y-146320000D03*
X149267123Y-144320000D03*
%TD*%
D12*
%TO.C,C13*%
X191517123Y-150395000D03*
X191517123Y-148320000D03*
%TD*%
D14*
%TO.C,C9*%
X136854623Y-142570000D03*
X134779623Y-142570000D03*
%TD*%
D12*
%TO.C,C15*%
X174017123Y-93607500D03*
X174017123Y-91532500D03*
%TD*%
D10*
%TO.C,R25*%
X141250000Y-92500000D03*
X143250000Y-92500000D03*
%TD*%
D14*
%TO.C,C5*%
X136854623Y-148070000D03*
X134779623Y-148070000D03*
%TD*%
D15*
%TO.C,R3*%
X191017123Y-128070000D03*
X191017123Y-130070000D03*
%TD*%
D14*
%TO.C,C11*%
X245554623Y-147070000D03*
X243479623Y-147070000D03*
%TD*%
%TO.C,C7*%
X136854623Y-140320000D03*
X134779623Y-140320000D03*
%TD*%
D16*
%TO.C,C12*%
X129492123Y-148070000D03*
X131567123Y-148070000D03*
%TD*%
D17*
%TO.C,C17*%
X140017123Y-113032500D03*
X140017123Y-115107500D03*
%TD*%
D14*
%TO.C,C8*%
X245554623Y-149570000D03*
X243479623Y-149570000D03*
%TD*%
D12*
%TO.C,C23*%
X180167633Y-136367500D03*
X180167633Y-134292500D03*
%TD*%
D13*
%TO.C,R13*%
X149167633Y-128330000D03*
X149167633Y-126330000D03*
%TD*%
D11*
%TO.C,R12*%
X272517123Y-143070000D03*
X270517123Y-143070000D03*
%TD*%
D16*
%TO.C,C14*%
X129529623Y-145820000D03*
X131604623Y-145820000D03*
%TD*%
D15*
%TO.C,R10*%
X216017123Y-128070000D03*
X216017123Y-130070000D03*
%TD*%
%TO.C,R4*%
X191017123Y-123070000D03*
X191017123Y-125070000D03*
%TD*%
M02*
