%TF.GenerationSoftware,KiCad,Pcbnew,(6.0.0)*%
%TF.CreationDate,2024-06-19T19:19:11-04:00*%
%TF.ProjectId,MCD_Rev2,4d43445f-5265-4763-922e-6b696361645f,rev?*%
%TF.SameCoordinates,Original*%
%TF.FileFunction,Legend,Bot*%
%TF.FilePolarity,Positive*%
%FSLAX46Y46*%
G04 Gerber Fmt 4.6, Leading zero omitted, Abs format (unit mm)*
G04 Created by KiCad (PCBNEW (6.0.0)) date 2024-06-19 19:19:11*
%MOMM*%
%LPD*%
G01*
G04 APERTURE LIST*
%ADD10C,0.150000*%
%ADD11C,0.508000*%
%ADD12C,0.120000*%
G04 APERTURE END LIST*
D10*
X187392857Y-173556071D02*
X187392857Y-173841785D01*
X186821428Y-173556071D02*
X186821428Y-173841785D01*
X186392857Y-173556071D02*
X185535714Y-173556071D01*
X185964285Y-175056071D02*
X185964285Y-173556071D01*
X185035714Y-175056071D02*
X185035714Y-173556071D01*
X184392857Y-175056071D02*
X184392857Y-174270357D01*
X184464285Y-174127500D01*
X184607142Y-174056071D01*
X184821428Y-174056071D01*
X184964285Y-174127500D01*
X185035714Y-174198928D01*
X183107142Y-174984642D02*
X183250000Y-175056071D01*
X183535714Y-175056071D01*
X183678571Y-174984642D01*
X183750000Y-174841785D01*
X183750000Y-174270357D01*
X183678571Y-174127500D01*
X183535714Y-174056071D01*
X183250000Y-174056071D01*
X183107142Y-174127500D01*
X183035714Y-174270357D01*
X183035714Y-174413214D01*
X183750000Y-174556071D01*
X182392857Y-175056071D02*
X182392857Y-174056071D01*
X182392857Y-174341785D02*
X182321428Y-174198928D01*
X182250000Y-174127500D01*
X182107142Y-174056071D01*
X181964285Y-174056071D01*
X180892857Y-174984642D02*
X181035714Y-175056071D01*
X181321428Y-175056071D01*
X181464285Y-174984642D01*
X181535714Y-174841785D01*
X181535714Y-174270357D01*
X181464285Y-174127500D01*
X181321428Y-174056071D01*
X181035714Y-174056071D01*
X180892857Y-174127500D01*
X180821428Y-174270357D01*
X180821428Y-174413214D01*
X181535714Y-174556071D01*
X180392857Y-174056071D02*
X179821428Y-174056071D01*
X180178571Y-175056071D02*
X180178571Y-173770357D01*
X180107142Y-173627500D01*
X179964285Y-173556071D01*
X179821428Y-173556071D01*
X179107142Y-175056071D02*
X179250000Y-174984642D01*
X179321428Y-174913214D01*
X179392857Y-174770357D01*
X179392857Y-174341785D01*
X179321428Y-174198928D01*
X179250000Y-174127500D01*
X179107142Y-174056071D01*
X178892857Y-174056071D01*
X178750000Y-174127500D01*
X178678571Y-174198928D01*
X178607142Y-174341785D01*
X178607142Y-174770357D01*
X178678571Y-174913214D01*
X178750000Y-174984642D01*
X178892857Y-175056071D01*
X179107142Y-175056071D01*
X177964285Y-175056071D02*
X177964285Y-174056071D01*
X177964285Y-174341785D02*
X177892857Y-174198928D01*
X177821428Y-174127500D01*
X177678571Y-174056071D01*
X177535714Y-174056071D01*
X176464285Y-174984642D02*
X176607142Y-175056071D01*
X176892857Y-175056071D01*
X177035714Y-174984642D01*
X177107142Y-174841785D01*
X177107142Y-174270357D01*
X177035714Y-174127500D01*
X176892857Y-174056071D01*
X176607142Y-174056071D01*
X176464285Y-174127500D01*
X176392857Y-174270357D01*
X176392857Y-174413214D01*
X177107142Y-174556071D01*
X175678571Y-174984642D02*
X175678571Y-175056071D01*
X175750000Y-175198928D01*
X175821428Y-175270357D01*
X173892857Y-175056071D02*
X173892857Y-174056071D01*
X173892857Y-173556071D02*
X173964285Y-173627500D01*
X173892857Y-173698928D01*
X173821428Y-173627500D01*
X173892857Y-173556071D01*
X173892857Y-173698928D01*
X173392857Y-174056071D02*
X172821428Y-174056071D01*
X173178571Y-175056071D02*
X173178571Y-173770357D01*
X173107142Y-173627500D01*
X172964285Y-173556071D01*
X172821428Y-173556071D01*
X170535714Y-175056071D02*
X170535714Y-174270357D01*
X170607142Y-174127500D01*
X170750000Y-174056071D01*
X171035714Y-174056071D01*
X171178571Y-174127500D01*
X170535714Y-174984642D02*
X170678571Y-175056071D01*
X171035714Y-175056071D01*
X171178571Y-174984642D01*
X171250000Y-174841785D01*
X171250000Y-174698928D01*
X171178571Y-174556071D01*
X171035714Y-174484642D01*
X170678571Y-174484642D01*
X170535714Y-174413214D01*
X169821428Y-174056071D02*
X169821428Y-175056071D01*
X169821428Y-174198928D02*
X169750000Y-174127500D01*
X169607142Y-174056071D01*
X169392857Y-174056071D01*
X169250000Y-174127500D01*
X169178571Y-174270357D01*
X169178571Y-175056071D01*
X168607142Y-174056071D02*
X168250000Y-175056071D01*
X167892857Y-174056071D02*
X168250000Y-175056071D01*
X168392857Y-175413214D01*
X168464285Y-175484642D01*
X168607142Y-175556071D01*
X167107142Y-175056071D02*
X167250000Y-174984642D01*
X167321428Y-174913214D01*
X167392857Y-174770357D01*
X167392857Y-174341785D01*
X167321428Y-174198928D01*
X167250000Y-174127500D01*
X167107142Y-174056071D01*
X166892857Y-174056071D01*
X166750000Y-174127500D01*
X166678571Y-174198928D01*
X166607142Y-174341785D01*
X166607142Y-174770357D01*
X166678571Y-174913214D01*
X166750000Y-174984642D01*
X166892857Y-175056071D01*
X167107142Y-175056071D01*
X165964285Y-174056071D02*
X165964285Y-175056071D01*
X165964285Y-174198928D02*
X165892857Y-174127500D01*
X165750000Y-174056071D01*
X165535714Y-174056071D01*
X165392857Y-174127500D01*
X165321428Y-174270357D01*
X165321428Y-175056071D01*
X164035714Y-174984642D02*
X164178571Y-175056071D01*
X164464285Y-175056071D01*
X164607142Y-174984642D01*
X164678571Y-174841785D01*
X164678571Y-174270357D01*
X164607142Y-174127500D01*
X164464285Y-174056071D01*
X164178571Y-174056071D01*
X164035714Y-174127500D01*
X163964285Y-174270357D01*
X163964285Y-174413214D01*
X164678571Y-174556071D01*
X162178571Y-175056071D02*
X162178571Y-174056071D01*
X162178571Y-173556071D02*
X162250000Y-173627500D01*
X162178571Y-173698928D01*
X162107142Y-173627500D01*
X162178571Y-173556071D01*
X162178571Y-173698928D01*
X161535714Y-174984642D02*
X161392857Y-175056071D01*
X161107142Y-175056071D01*
X160964285Y-174984642D01*
X160892857Y-174841785D01*
X160892857Y-174770357D01*
X160964285Y-174627500D01*
X161107142Y-174556071D01*
X161321428Y-174556071D01*
X161464285Y-174484642D01*
X161535714Y-174341785D01*
X161535714Y-174270357D01*
X161464285Y-174127500D01*
X161321428Y-174056071D01*
X161107142Y-174056071D01*
X160964285Y-174127500D01*
X159107142Y-175056071D02*
X159107142Y-174056071D01*
X159107142Y-173556071D02*
X159178571Y-173627500D01*
X159107142Y-173698928D01*
X159035714Y-173627500D01*
X159107142Y-173556071D01*
X159107142Y-173698928D01*
X158392857Y-174056071D02*
X158392857Y-175056071D01*
X158392857Y-174198928D02*
X158321428Y-174127500D01*
X158178571Y-174056071D01*
X157964285Y-174056071D01*
X157821428Y-174127500D01*
X157750000Y-174270357D01*
X157750000Y-175056071D01*
X155035714Y-174913214D02*
X155107142Y-174984642D01*
X155321428Y-175056071D01*
X155464285Y-175056071D01*
X155678571Y-174984642D01*
X155821428Y-174841785D01*
X155892857Y-174698928D01*
X155964285Y-174413214D01*
X155964285Y-174198928D01*
X155892857Y-173913214D01*
X155821428Y-173770357D01*
X155678571Y-173627500D01*
X155464285Y-173556071D01*
X155321428Y-173556071D01*
X155107142Y-173627500D01*
X155035714Y-173698928D01*
X154392857Y-175056071D02*
X154392857Y-173556071D01*
X153750000Y-175056071D02*
X153750000Y-174270357D01*
X153821428Y-174127500D01*
X153964285Y-174056071D01*
X154178571Y-174056071D01*
X154321428Y-174127500D01*
X154392857Y-174198928D01*
X153035714Y-175056071D02*
X153035714Y-174056071D01*
X153035714Y-174341785D02*
X152964285Y-174198928D01*
X152892857Y-174127500D01*
X152750000Y-174056071D01*
X152607142Y-174056071D01*
X152107142Y-175056071D02*
X152107142Y-174056071D01*
X152107142Y-173556071D02*
X152178571Y-173627500D01*
X152107142Y-173698928D01*
X152035714Y-173627500D01*
X152107142Y-173556071D01*
X152107142Y-173698928D01*
X151464285Y-174984642D02*
X151321428Y-175056071D01*
X151035714Y-175056071D01*
X150892857Y-174984642D01*
X150821428Y-174841785D01*
X150821428Y-174770357D01*
X150892857Y-174627500D01*
X151035714Y-174556071D01*
X151250000Y-174556071D01*
X151392857Y-174484642D01*
X151464285Y-174341785D01*
X151464285Y-174270357D01*
X151392857Y-174127500D01*
X151250000Y-174056071D01*
X151035714Y-174056071D01*
X150892857Y-174127500D01*
X150392857Y-174056071D02*
X149821428Y-174056071D01*
X150178571Y-173556071D02*
X150178571Y-174841785D01*
X150107142Y-174984642D01*
X149964285Y-175056071D01*
X149821428Y-175056071D01*
X149250000Y-174984642D02*
X149250000Y-175056071D01*
X149321428Y-175198928D01*
X149392857Y-175270357D01*
X187571428Y-177471071D02*
X187571428Y-175971071D01*
X186928571Y-177471071D02*
X186928571Y-176685357D01*
X187000000Y-176542500D01*
X187142857Y-176471071D01*
X187357142Y-176471071D01*
X187500000Y-176542500D01*
X187571428Y-176613928D01*
X185642857Y-177399642D02*
X185785714Y-177471071D01*
X186071428Y-177471071D01*
X186214285Y-177399642D01*
X186285714Y-177256785D01*
X186285714Y-176685357D01*
X186214285Y-176542500D01*
X186071428Y-176471071D01*
X185785714Y-176471071D01*
X185642857Y-176542500D01*
X185571428Y-176685357D01*
X185571428Y-176828214D01*
X186285714Y-176971071D01*
X183785714Y-177471071D02*
X183785714Y-176471071D01*
X183785714Y-175971071D02*
X183857142Y-176042500D01*
X183785714Y-176113928D01*
X183714285Y-176042500D01*
X183785714Y-175971071D01*
X183785714Y-176113928D01*
X183142857Y-177399642D02*
X183000000Y-177471071D01*
X182714285Y-177471071D01*
X182571428Y-177399642D01*
X182500000Y-177256785D01*
X182500000Y-177185357D01*
X182571428Y-177042500D01*
X182714285Y-176971071D01*
X182928571Y-176971071D01*
X183071428Y-176899642D01*
X183142857Y-176756785D01*
X183142857Y-176685357D01*
X183071428Y-176542500D01*
X182928571Y-176471071D01*
X182714285Y-176471071D01*
X182571428Y-176542500D01*
X180071428Y-177471071D02*
X180071428Y-176685357D01*
X180142857Y-176542500D01*
X180285714Y-176471071D01*
X180571428Y-176471071D01*
X180714285Y-176542500D01*
X180071428Y-177399642D02*
X180214285Y-177471071D01*
X180571428Y-177471071D01*
X180714285Y-177399642D01*
X180785714Y-177256785D01*
X180785714Y-177113928D01*
X180714285Y-176971071D01*
X180571428Y-176899642D01*
X180214285Y-176899642D01*
X180071428Y-176828214D01*
X178214285Y-176471071D02*
X178214285Y-177471071D01*
X178214285Y-176613928D02*
X178142857Y-176542500D01*
X178000000Y-176471071D01*
X177785714Y-176471071D01*
X177642857Y-176542500D01*
X177571428Y-176685357D01*
X177571428Y-177471071D01*
X176285714Y-177399642D02*
X176428571Y-177471071D01*
X176714285Y-177471071D01*
X176857142Y-177399642D01*
X176928571Y-177256785D01*
X176928571Y-176685357D01*
X176857142Y-176542500D01*
X176714285Y-176471071D01*
X176428571Y-176471071D01*
X176285714Y-176542500D01*
X176214285Y-176685357D01*
X176214285Y-176828214D01*
X176928571Y-176971071D01*
X175714285Y-176471071D02*
X175428571Y-177471071D01*
X175142857Y-176756785D01*
X174857142Y-177471071D01*
X174571428Y-176471071D01*
X172214285Y-177399642D02*
X172357142Y-177471071D01*
X172642857Y-177471071D01*
X172785714Y-177399642D01*
X172857142Y-177328214D01*
X172928571Y-177185357D01*
X172928571Y-176756785D01*
X172857142Y-176613928D01*
X172785714Y-176542500D01*
X172642857Y-176471071D01*
X172357142Y-176471071D01*
X172214285Y-176542500D01*
X171571428Y-177471071D02*
X171571428Y-176471071D01*
X171571428Y-176756785D02*
X171500000Y-176613928D01*
X171428571Y-176542500D01*
X171285714Y-176471071D01*
X171142857Y-176471071D01*
X170071428Y-177399642D02*
X170214285Y-177471071D01*
X170500000Y-177471071D01*
X170642857Y-177399642D01*
X170714285Y-177256785D01*
X170714285Y-176685357D01*
X170642857Y-176542500D01*
X170500000Y-176471071D01*
X170214285Y-176471071D01*
X170071428Y-176542500D01*
X170000000Y-176685357D01*
X170000000Y-176828214D01*
X170714285Y-176971071D01*
X168714285Y-177471071D02*
X168714285Y-176685357D01*
X168785714Y-176542500D01*
X168928571Y-176471071D01*
X169214285Y-176471071D01*
X169357142Y-176542500D01*
X168714285Y-177399642D02*
X168857142Y-177471071D01*
X169214285Y-177471071D01*
X169357142Y-177399642D01*
X169428571Y-177256785D01*
X169428571Y-177113928D01*
X169357142Y-176971071D01*
X169214285Y-176899642D01*
X168857142Y-176899642D01*
X168714285Y-176828214D01*
X168214285Y-176471071D02*
X167642857Y-176471071D01*
X168000000Y-175971071D02*
X168000000Y-177256785D01*
X167928571Y-177399642D01*
X167785714Y-177471071D01*
X167642857Y-177471071D01*
X167142857Y-177471071D02*
X167142857Y-176471071D01*
X167142857Y-175971071D02*
X167214285Y-176042500D01*
X167142857Y-176113928D01*
X167071428Y-176042500D01*
X167142857Y-175971071D01*
X167142857Y-176113928D01*
X166214285Y-177471071D02*
X166357142Y-177399642D01*
X166428571Y-177328214D01*
X166500000Y-177185357D01*
X166500000Y-176756785D01*
X166428571Y-176613928D01*
X166357142Y-176542500D01*
X166214285Y-176471071D01*
X166000000Y-176471071D01*
X165857142Y-176542500D01*
X165785714Y-176613928D01*
X165714285Y-176756785D01*
X165714285Y-177185357D01*
X165785714Y-177328214D01*
X165857142Y-177399642D01*
X166000000Y-177471071D01*
X166214285Y-177471071D01*
X165071428Y-176471071D02*
X165071428Y-177471071D01*
X165071428Y-176613928D02*
X165000000Y-176542500D01*
X164857142Y-176471071D01*
X164642857Y-176471071D01*
X164500000Y-176542500D01*
X164428571Y-176685357D01*
X164428571Y-177471071D01*
X163714285Y-177328214D02*
X163642857Y-177399642D01*
X163714285Y-177471071D01*
X163785714Y-177399642D01*
X163714285Y-177328214D01*
X163714285Y-177471071D01*
X162071428Y-175971071D02*
X161214285Y-175971071D01*
X161642857Y-177471071D02*
X161642857Y-175971071D01*
X160714285Y-177471071D02*
X160714285Y-175971071D01*
X160071428Y-177471071D02*
X160071428Y-176685357D01*
X160142857Y-176542500D01*
X160285714Y-176471071D01*
X160500000Y-176471071D01*
X160642857Y-176542500D01*
X160714285Y-176613928D01*
X158785714Y-177399642D02*
X158928571Y-177471071D01*
X159214285Y-177471071D01*
X159357142Y-177399642D01*
X159428571Y-177256785D01*
X159428571Y-176685357D01*
X159357142Y-176542500D01*
X159214285Y-176471071D01*
X158928571Y-176471071D01*
X158785714Y-176542500D01*
X158714285Y-176685357D01*
X158714285Y-176828214D01*
X159428571Y-176971071D01*
X156714285Y-177471071D02*
X156857142Y-177399642D01*
X156928571Y-177328214D01*
X157000000Y-177185357D01*
X157000000Y-176756785D01*
X156928571Y-176613928D01*
X156857142Y-176542500D01*
X156714285Y-176471071D01*
X156500000Y-176471071D01*
X156357142Y-176542500D01*
X156285714Y-176613928D01*
X156214285Y-176756785D01*
X156214285Y-177185357D01*
X156285714Y-177328214D01*
X156357142Y-177399642D01*
X156500000Y-177471071D01*
X156714285Y-177471071D01*
X155357142Y-177471071D02*
X155500000Y-177399642D01*
X155571428Y-177256785D01*
X155571428Y-175971071D01*
X154142857Y-177471071D02*
X154142857Y-175971071D01*
X154142857Y-177399642D02*
X154285714Y-177471071D01*
X154571428Y-177471071D01*
X154714285Y-177399642D01*
X154785714Y-177328214D01*
X154857142Y-177185357D01*
X154857142Y-176756785D01*
X154785714Y-176613928D01*
X154714285Y-176542500D01*
X154571428Y-176471071D01*
X154285714Y-176471071D01*
X154142857Y-176542500D01*
X152285714Y-177471071D02*
X152285714Y-175971071D01*
X151642857Y-177471071D02*
X151642857Y-176685357D01*
X151714285Y-176542500D01*
X151857142Y-176471071D01*
X152071428Y-176471071D01*
X152214285Y-176542500D01*
X152285714Y-176613928D01*
X150285714Y-177471071D02*
X150285714Y-176685357D01*
X150357142Y-176542500D01*
X150500000Y-176471071D01*
X150785714Y-176471071D01*
X150928571Y-176542500D01*
X150285714Y-177399642D02*
X150428571Y-177471071D01*
X150785714Y-177471071D01*
X150928571Y-177399642D01*
X151000000Y-177256785D01*
X151000000Y-177113928D01*
X150928571Y-176971071D01*
X150785714Y-176899642D01*
X150428571Y-176899642D01*
X150285714Y-176828214D01*
X149642857Y-177399642D02*
X149500000Y-177471071D01*
X149214285Y-177471071D01*
X149071428Y-177399642D01*
X149000000Y-177256785D01*
X149000000Y-177185357D01*
X149071428Y-177042500D01*
X149214285Y-176971071D01*
X149428571Y-176971071D01*
X149571428Y-176899642D01*
X149642857Y-176756785D01*
X149642857Y-176685357D01*
X149571428Y-176542500D01*
X149428571Y-176471071D01*
X149214285Y-176471071D01*
X149071428Y-176542500D01*
X192178571Y-178886071D02*
X192178571Y-180386071D01*
X192178571Y-178957500D02*
X192035714Y-178886071D01*
X191750000Y-178886071D01*
X191607142Y-178957500D01*
X191535714Y-179028928D01*
X191464285Y-179171785D01*
X191464285Y-179600357D01*
X191535714Y-179743214D01*
X191607142Y-179814642D01*
X191750000Y-179886071D01*
X192035714Y-179886071D01*
X192178571Y-179814642D01*
X190178571Y-179886071D02*
X190178571Y-179100357D01*
X190250000Y-178957500D01*
X190392857Y-178886071D01*
X190678571Y-178886071D01*
X190821428Y-178957500D01*
X190178571Y-179814642D02*
X190321428Y-179886071D01*
X190678571Y-179886071D01*
X190821428Y-179814642D01*
X190892857Y-179671785D01*
X190892857Y-179528928D01*
X190821428Y-179386071D01*
X190678571Y-179314642D01*
X190321428Y-179314642D01*
X190178571Y-179243214D01*
X189535714Y-179814642D02*
X189392857Y-179886071D01*
X189107142Y-179886071D01*
X188964285Y-179814642D01*
X188892857Y-179671785D01*
X188892857Y-179600357D01*
X188964285Y-179457500D01*
X189107142Y-179386071D01*
X189321428Y-179386071D01*
X189464285Y-179314642D01*
X189535714Y-179171785D01*
X189535714Y-179100357D01*
X189464285Y-178957500D01*
X189321428Y-178886071D01*
X189107142Y-178886071D01*
X188964285Y-178957500D01*
X188321428Y-179814642D02*
X188178571Y-179886071D01*
X187892857Y-179886071D01*
X187750000Y-179814642D01*
X187678571Y-179671785D01*
X187678571Y-179600357D01*
X187750000Y-179457500D01*
X187892857Y-179386071D01*
X188107142Y-179386071D01*
X188250000Y-179314642D01*
X188321428Y-179171785D01*
X188321428Y-179100357D01*
X188250000Y-178957500D01*
X188107142Y-178886071D01*
X187892857Y-178886071D01*
X187750000Y-178957500D01*
X186464285Y-179814642D02*
X186607142Y-179886071D01*
X186892857Y-179886071D01*
X187035714Y-179814642D01*
X187107142Y-179671785D01*
X187107142Y-179100357D01*
X187035714Y-178957500D01*
X186892857Y-178886071D01*
X186607142Y-178886071D01*
X186464285Y-178957500D01*
X186392857Y-179100357D01*
X186392857Y-179243214D01*
X187107142Y-179386071D01*
X185107142Y-179886071D02*
X185107142Y-178386071D01*
X185107142Y-179814642D02*
X185250000Y-179886071D01*
X185535714Y-179886071D01*
X185678571Y-179814642D01*
X185750000Y-179743214D01*
X185821428Y-179600357D01*
X185821428Y-179171785D01*
X185750000Y-179028928D01*
X185678571Y-178957500D01*
X185535714Y-178886071D01*
X185250000Y-178886071D01*
X185107142Y-178957500D01*
X182607142Y-179886071D02*
X182607142Y-179100357D01*
X182678571Y-178957500D01*
X182821428Y-178886071D01*
X183107142Y-178886071D01*
X183250000Y-178957500D01*
X182607142Y-179814642D02*
X182750000Y-179886071D01*
X183107142Y-179886071D01*
X183250000Y-179814642D01*
X183321428Y-179671785D01*
X183321428Y-179528928D01*
X183250000Y-179386071D01*
X183107142Y-179314642D01*
X182750000Y-179314642D01*
X182607142Y-179243214D01*
X182035714Y-178886071D02*
X181750000Y-179886071D01*
X181464285Y-179171785D01*
X181178571Y-179886071D01*
X180892857Y-178886071D01*
X179678571Y-179886071D02*
X179678571Y-179100357D01*
X179750000Y-178957500D01*
X179892857Y-178886071D01*
X180178571Y-178886071D01*
X180321428Y-178957500D01*
X179678571Y-179814642D02*
X179821428Y-179886071D01*
X180178571Y-179886071D01*
X180321428Y-179814642D01*
X180392857Y-179671785D01*
X180392857Y-179528928D01*
X180321428Y-179386071D01*
X180178571Y-179314642D01*
X179821428Y-179314642D01*
X179678571Y-179243214D01*
X179107142Y-178886071D02*
X178749999Y-179886071D01*
X178392857Y-178886071D02*
X178749999Y-179886071D01*
X178892857Y-180243214D01*
X178964285Y-180314642D01*
X179107142Y-180386071D01*
X177750000Y-179814642D02*
X177750000Y-179886071D01*
X177821428Y-180028928D01*
X177892857Y-180100357D01*
X177821428Y-178957500D02*
X177750000Y-179028928D01*
X177821428Y-179100357D01*
X177892857Y-179028928D01*
X177821428Y-178957500D01*
X177821428Y-179100357D01*
X175964285Y-179886071D02*
X175964285Y-178386071D01*
X175964285Y-178957500D02*
X175821428Y-178886071D01*
X175535714Y-178886071D01*
X175392857Y-178957500D01*
X175321428Y-179028928D01*
X175249999Y-179171785D01*
X175249999Y-179600357D01*
X175321428Y-179743214D01*
X175392857Y-179814642D01*
X175535714Y-179886071D01*
X175821428Y-179886071D01*
X175964285Y-179814642D01*
X174035714Y-179814642D02*
X174178571Y-179886071D01*
X174464285Y-179886071D01*
X174607142Y-179814642D01*
X174678571Y-179671785D01*
X174678571Y-179100357D01*
X174607142Y-178957500D01*
X174464285Y-178886071D01*
X174178571Y-178886071D01*
X174035714Y-178957500D01*
X173964285Y-179100357D01*
X173964285Y-179243214D01*
X174678571Y-179386071D01*
X173321428Y-179886071D02*
X173321428Y-178386071D01*
X172678571Y-179886071D02*
X172678571Y-179100357D01*
X172749999Y-178957500D01*
X172892857Y-178886071D01*
X173107142Y-178886071D01*
X173249999Y-178957500D01*
X173321428Y-179028928D01*
X171749999Y-179886071D02*
X171892857Y-179814642D01*
X171964285Y-179743214D01*
X172035714Y-179600357D01*
X172035714Y-179171785D01*
X171964285Y-179028928D01*
X171892857Y-178957500D01*
X171749999Y-178886071D01*
X171535714Y-178886071D01*
X171392857Y-178957500D01*
X171321428Y-179028928D01*
X171249999Y-179171785D01*
X171249999Y-179600357D01*
X171321428Y-179743214D01*
X171392857Y-179814642D01*
X171535714Y-179886071D01*
X171749999Y-179886071D01*
X170392857Y-179886071D02*
X170535714Y-179814642D01*
X170607142Y-179671785D01*
X170607142Y-178386071D01*
X169178571Y-179886071D02*
X169178571Y-178386071D01*
X169178571Y-179814642D02*
X169321428Y-179886071D01*
X169607142Y-179886071D01*
X169749999Y-179814642D01*
X169821428Y-179743214D01*
X169892857Y-179600357D01*
X169892857Y-179171785D01*
X169821428Y-179028928D01*
X169749999Y-178957500D01*
X169607142Y-178886071D01*
X169321428Y-178886071D01*
X169178571Y-178957500D01*
X168392857Y-179814642D02*
X168392857Y-179886071D01*
X168464285Y-180028928D01*
X168535714Y-180100357D01*
X166821428Y-178886071D02*
X166249999Y-178886071D01*
X166607142Y-178386071D02*
X166607142Y-179671785D01*
X166535714Y-179814642D01*
X166392857Y-179886071D01*
X166249999Y-179886071D01*
X165749999Y-179886071D02*
X165749999Y-178386071D01*
X165107142Y-179886071D02*
X165107142Y-179100357D01*
X165178571Y-178957500D01*
X165321428Y-178886071D01*
X165535714Y-178886071D01*
X165678571Y-178957500D01*
X165749999Y-179028928D01*
X163821428Y-179814642D02*
X163964285Y-179886071D01*
X164249999Y-179886071D01*
X164392857Y-179814642D01*
X164464285Y-179671785D01*
X164464285Y-179100357D01*
X164392857Y-178957500D01*
X164249999Y-178886071D01*
X163964285Y-178886071D01*
X163821428Y-178957500D01*
X163749999Y-179100357D01*
X163749999Y-179243214D01*
X164464285Y-179386071D01*
X161964285Y-178886071D02*
X161964285Y-179886071D01*
X161964285Y-179028928D02*
X161892857Y-178957500D01*
X161749999Y-178886071D01*
X161535714Y-178886071D01*
X161392857Y-178957500D01*
X161321428Y-179100357D01*
X161321428Y-179886071D01*
X160035714Y-179814642D02*
X160178571Y-179886071D01*
X160464285Y-179886071D01*
X160607142Y-179814642D01*
X160678571Y-179671785D01*
X160678571Y-179100357D01*
X160607142Y-178957500D01*
X160464285Y-178886071D01*
X160178571Y-178886071D01*
X160035714Y-178957500D01*
X159964285Y-179100357D01*
X159964285Y-179243214D01*
X160678571Y-179386071D01*
X159464285Y-178886071D02*
X159178571Y-179886071D01*
X158892857Y-179171785D01*
X158607142Y-179886071D01*
X158321428Y-178886071D01*
X156607142Y-179886071D02*
X156607142Y-178386071D01*
X155964285Y-179886071D02*
X155964285Y-179100357D01*
X156035714Y-178957500D01*
X156178571Y-178886071D01*
X156392857Y-178886071D01*
X156535714Y-178957500D01*
X156607142Y-179028928D01*
X154607142Y-179886071D02*
X154607142Y-179100357D01*
X154678571Y-178957500D01*
X154821428Y-178886071D01*
X155107142Y-178886071D01*
X155249999Y-178957500D01*
X154607142Y-179814642D02*
X154749999Y-179886071D01*
X155107142Y-179886071D01*
X155249999Y-179814642D01*
X155321428Y-179671785D01*
X155321428Y-179528928D01*
X155249999Y-179386071D01*
X155107142Y-179314642D01*
X154749999Y-179314642D01*
X154607142Y-179243214D01*
X153964285Y-179814642D02*
X153821428Y-179886071D01*
X153535714Y-179886071D01*
X153392857Y-179814642D01*
X153321428Y-179671785D01*
X153321428Y-179600357D01*
X153392857Y-179457500D01*
X153535714Y-179386071D01*
X153749999Y-179386071D01*
X153892857Y-179314642D01*
X153964285Y-179171785D01*
X153964285Y-179100357D01*
X153892857Y-178957500D01*
X153749999Y-178886071D01*
X153535714Y-178886071D01*
X153392857Y-178957500D01*
X150892857Y-179814642D02*
X151035714Y-179886071D01*
X151321428Y-179886071D01*
X151464285Y-179814642D01*
X151535714Y-179743214D01*
X151607142Y-179600357D01*
X151607142Y-179171785D01*
X151535714Y-179028928D01*
X151464285Y-178957500D01*
X151321428Y-178886071D01*
X151035714Y-178886071D01*
X150892857Y-178957500D01*
X150035714Y-179886071D02*
X150178571Y-179814642D01*
X150249999Y-179743214D01*
X150321428Y-179600357D01*
X150321428Y-179171785D01*
X150249999Y-179028928D01*
X150178571Y-178957500D01*
X150035714Y-178886071D01*
X149821428Y-178886071D01*
X149678571Y-178957500D01*
X149607142Y-179028928D01*
X149535714Y-179171785D01*
X149535714Y-179600357D01*
X149607142Y-179743214D01*
X149678571Y-179814642D01*
X149821428Y-179886071D01*
X150035714Y-179886071D01*
X148892857Y-179886071D02*
X148892857Y-178886071D01*
X148892857Y-179028928D02*
X148821428Y-178957500D01*
X148678571Y-178886071D01*
X148464285Y-178886071D01*
X148321428Y-178957500D01*
X148249999Y-179100357D01*
X148249999Y-179886071D01*
X148249999Y-179100357D02*
X148178571Y-178957500D01*
X148035714Y-178886071D01*
X147821428Y-178886071D01*
X147678571Y-178957500D01*
X147607142Y-179100357D01*
X147607142Y-179886071D01*
X146321428Y-179814642D02*
X146464285Y-179886071D01*
X146749999Y-179886071D01*
X146892857Y-179814642D01*
X146964285Y-179671785D01*
X146964285Y-179100357D01*
X146892857Y-178957500D01*
X146749999Y-178886071D01*
X146464285Y-178886071D01*
X146321428Y-178957500D01*
X146249999Y-179100357D01*
X146249999Y-179243214D01*
X146964285Y-179386071D01*
X145607142Y-179743214D02*
X145535714Y-179814642D01*
X145607142Y-179886071D01*
X145678571Y-179814642D01*
X145607142Y-179743214D01*
X145607142Y-179886071D01*
X144964285Y-178386071D02*
X144964285Y-178671785D01*
X144392857Y-178386071D02*
X144392857Y-178671785D01*
X179607142Y-181729642D02*
X178464285Y-181729642D01*
X176678571Y-180943928D02*
X176607142Y-180872500D01*
X176464285Y-180801071D01*
X176107142Y-180801071D01*
X175964285Y-180872500D01*
X175892857Y-180943928D01*
X175821428Y-181086785D01*
X175821428Y-181229642D01*
X175892857Y-181443928D01*
X176750000Y-182301071D01*
X175821428Y-182301071D01*
X173178571Y-182158214D02*
X173250000Y-182229642D01*
X173464285Y-182301071D01*
X173607142Y-182301071D01*
X173821428Y-182229642D01*
X173964285Y-182086785D01*
X174035714Y-181943928D01*
X174107142Y-181658214D01*
X174107142Y-181443928D01*
X174035714Y-181158214D01*
X173964285Y-181015357D01*
X173821428Y-180872500D01*
X173607142Y-180801071D01*
X173464285Y-180801071D01*
X173250000Y-180872500D01*
X173178571Y-180943928D01*
X172321428Y-182301071D02*
X172464285Y-182229642D01*
X172535714Y-182158214D01*
X172607142Y-182015357D01*
X172607142Y-181586785D01*
X172535714Y-181443928D01*
X172464285Y-181372500D01*
X172321428Y-181301071D01*
X172107142Y-181301071D01*
X171964285Y-181372500D01*
X171892857Y-181443928D01*
X171821428Y-181586785D01*
X171821428Y-182015357D01*
X171892857Y-182158214D01*
X171964285Y-182229642D01*
X172107142Y-182301071D01*
X172321428Y-182301071D01*
X171178571Y-182301071D02*
X171178571Y-181301071D01*
X171178571Y-181586785D02*
X171107142Y-181443928D01*
X171035714Y-181372500D01*
X170892857Y-181301071D01*
X170750000Y-181301071D01*
X170250000Y-182301071D02*
X170250000Y-181301071D01*
X170250000Y-180801071D02*
X170321428Y-180872500D01*
X170250000Y-180943928D01*
X170178571Y-180872500D01*
X170250000Y-180801071D01*
X170250000Y-180943928D01*
X169535714Y-181301071D02*
X169535714Y-182301071D01*
X169535714Y-181443928D02*
X169464285Y-181372500D01*
X169321428Y-181301071D01*
X169107142Y-181301071D01*
X168964285Y-181372500D01*
X168892857Y-181515357D01*
X168892857Y-182301071D01*
X168392857Y-181301071D02*
X167821428Y-181301071D01*
X168178571Y-180801071D02*
X168178571Y-182086785D01*
X168107142Y-182229642D01*
X167964285Y-182301071D01*
X167821428Y-182301071D01*
X167321428Y-182301071D02*
X167321428Y-180801071D01*
X166678571Y-182301071D02*
X166678571Y-181515357D01*
X166750000Y-181372500D01*
X166892857Y-181301071D01*
X167107142Y-181301071D01*
X167250000Y-181372500D01*
X167321428Y-181443928D01*
X165964285Y-182301071D02*
X165964285Y-181301071D01*
X165964285Y-180801071D02*
X166035714Y-180872500D01*
X165964285Y-180943928D01*
X165892857Y-180872500D01*
X165964285Y-180801071D01*
X165964285Y-180943928D01*
X164607142Y-182301071D02*
X164607142Y-181515357D01*
X164678571Y-181372500D01*
X164821428Y-181301071D01*
X165107142Y-181301071D01*
X165250000Y-181372500D01*
X164607142Y-182229642D02*
X164750000Y-182301071D01*
X165107142Y-182301071D01*
X165250000Y-182229642D01*
X165321428Y-182086785D01*
X165321428Y-181943928D01*
X165250000Y-181801071D01*
X165107142Y-181729642D01*
X164750000Y-181729642D01*
X164607142Y-181658214D01*
X163892857Y-181301071D02*
X163892857Y-182301071D01*
X163892857Y-181443928D02*
X163821428Y-181372500D01*
X163678571Y-181301071D01*
X163464285Y-181301071D01*
X163321428Y-181372500D01*
X163250000Y-181515357D01*
X163250000Y-182301071D01*
X162607142Y-182229642D02*
X162464285Y-182301071D01*
X162178571Y-182301071D01*
X162035714Y-182229642D01*
X161964285Y-182086785D01*
X161964285Y-182015357D01*
X162035714Y-181872500D01*
X162178571Y-181801071D01*
X162392857Y-181801071D01*
X162535714Y-181729642D01*
X162607142Y-181586785D01*
X162607142Y-181515357D01*
X162535714Y-181372500D01*
X162392857Y-181301071D01*
X162178571Y-181301071D01*
X162035714Y-181372500D01*
X159464285Y-180801071D02*
X160178571Y-180801071D01*
X160250000Y-181515357D01*
X160178571Y-181443928D01*
X160035714Y-181372500D01*
X159678571Y-181372500D01*
X159535714Y-181443928D01*
X159464285Y-181515357D01*
X159392857Y-181658214D01*
X159392857Y-182015357D01*
X159464285Y-182158214D01*
X159535714Y-182229642D01*
X159678571Y-182301071D01*
X160035714Y-182301071D01*
X160178571Y-182229642D01*
X160250000Y-182158214D01*
X158750000Y-182158214D02*
X158678571Y-182229642D01*
X158750000Y-182301071D01*
X158821428Y-182229642D01*
X158750000Y-182158214D01*
X158750000Y-182301071D01*
X158750000Y-181372500D02*
X158678571Y-181443928D01*
X158750000Y-181515357D01*
X158821428Y-181443928D01*
X158750000Y-181372500D01*
X158750000Y-181515357D01*
X157250000Y-182301071D02*
X158107142Y-182301071D01*
X157678571Y-182301071D02*
X157678571Y-180801071D01*
X157821428Y-181015357D01*
X157964285Y-181158214D01*
X158107142Y-181229642D01*
X156750000Y-180801071D02*
X155750000Y-180801071D01*
X156392857Y-182301071D01*
%TO.C,R11*%
X270659980Y-126672380D02*
X270993313Y-126196190D01*
X271231408Y-126672380D02*
X271231408Y-125672380D01*
X270850456Y-125672380D01*
X270755218Y-125720000D01*
X270707599Y-125767619D01*
X270659980Y-125862857D01*
X270659980Y-126005714D01*
X270707599Y-126100952D01*
X270755218Y-126148571D01*
X270850456Y-126196190D01*
X271231408Y-126196190D01*
X269707599Y-126672380D02*
X270279027Y-126672380D01*
X269993313Y-126672380D02*
X269993313Y-125672380D01*
X270088551Y-125815238D01*
X270183789Y-125910476D01*
X270279027Y-125958095D01*
X268755218Y-126672380D02*
X269326646Y-126672380D01*
X269040932Y-126672380D02*
X269040932Y-125672380D01*
X269136170Y-125815238D01*
X269231408Y-125910476D01*
X269326646Y-125958095D01*
%TO.C,R5*%
X244683789Y-130872380D02*
X245017123Y-130396190D01*
X245255218Y-130872380D02*
X245255218Y-129872380D01*
X244874265Y-129872380D01*
X244779027Y-129920000D01*
X244731408Y-129967619D01*
X244683789Y-130062857D01*
X244683789Y-130205714D01*
X244731408Y-130300952D01*
X244779027Y-130348571D01*
X244874265Y-130396190D01*
X245255218Y-130396190D01*
X243779027Y-129872380D02*
X244255218Y-129872380D01*
X244302837Y-130348571D01*
X244255218Y-130300952D01*
X244159980Y-130253333D01*
X243921884Y-130253333D01*
X243826646Y-130300952D01*
X243779027Y-130348571D01*
X243731408Y-130443809D01*
X243731408Y-130681904D01*
X243779027Y-130777142D01*
X243826646Y-130824761D01*
X243921884Y-130872380D01*
X244159980Y-130872380D01*
X244255218Y-130824761D01*
X244302837Y-130777142D01*
%TO.C,C3*%
X216183789Y-152427142D02*
X216231408Y-152474761D01*
X216374265Y-152522380D01*
X216469503Y-152522380D01*
X216612361Y-152474761D01*
X216707599Y-152379523D01*
X216755218Y-152284285D01*
X216802837Y-152093809D01*
X216802837Y-151950952D01*
X216755218Y-151760476D01*
X216707599Y-151665238D01*
X216612361Y-151570000D01*
X216469503Y-151522380D01*
X216374265Y-151522380D01*
X216231408Y-151570000D01*
X216183789Y-151617619D01*
X215850456Y-151522380D02*
X215231408Y-151522380D01*
X215564742Y-151903333D01*
X215421884Y-151903333D01*
X215326646Y-151950952D01*
X215279027Y-151998571D01*
X215231408Y-152093809D01*
X215231408Y-152331904D01*
X215279027Y-152427142D01*
X215326646Y-152474761D01*
X215421884Y-152522380D01*
X215707599Y-152522380D01*
X215802837Y-152474761D01*
X215850456Y-152427142D01*
%TO.C,R1*%
X159869503Y-137403333D02*
X159393313Y-137070000D01*
X159869503Y-136831904D02*
X158869503Y-136831904D01*
X158869503Y-137212857D01*
X158917123Y-137308095D01*
X158964742Y-137355714D01*
X159059980Y-137403333D01*
X159202837Y-137403333D01*
X159298075Y-137355714D01*
X159345694Y-137308095D01*
X159393313Y-137212857D01*
X159393313Y-136831904D01*
X159869503Y-138355714D02*
X159869503Y-137784285D01*
X159869503Y-138070000D02*
X158869503Y-138070000D01*
X159012361Y-137974761D01*
X159107599Y-137879523D01*
X159155218Y-137784285D01*
%TO.C,R24*%
X145452380Y-94857142D02*
X144976190Y-94523809D01*
X145452380Y-94285714D02*
X144452380Y-94285714D01*
X144452380Y-94666666D01*
X144500000Y-94761904D01*
X144547619Y-94809523D01*
X144642857Y-94857142D01*
X144785714Y-94857142D01*
X144880952Y-94809523D01*
X144928571Y-94761904D01*
X144976190Y-94666666D01*
X144976190Y-94285714D01*
X144547619Y-95238095D02*
X144500000Y-95285714D01*
X144452380Y-95380952D01*
X144452380Y-95619047D01*
X144500000Y-95714285D01*
X144547619Y-95761904D01*
X144642857Y-95809523D01*
X144738095Y-95809523D01*
X144880952Y-95761904D01*
X145452380Y-95190476D01*
X145452380Y-95809523D01*
X144785714Y-96666666D02*
X145452380Y-96666666D01*
X144404761Y-96428571D02*
X145119047Y-96190476D01*
X145119047Y-96809523D01*
%TO.C,C6*%
X133696765Y-145653333D02*
X133744384Y-145605714D01*
X133792003Y-145462857D01*
X133792003Y-145367619D01*
X133744384Y-145224761D01*
X133649146Y-145129523D01*
X133553908Y-145081904D01*
X133363432Y-145034285D01*
X133220575Y-145034285D01*
X133030099Y-145081904D01*
X132934861Y-145129523D01*
X132839623Y-145224761D01*
X132792003Y-145367619D01*
X132792003Y-145462857D01*
X132839623Y-145605714D01*
X132887242Y-145653333D01*
X132792003Y-146510476D02*
X132792003Y-146320000D01*
X132839623Y-146224761D01*
X132887242Y-146177142D01*
X133030099Y-146081904D01*
X133220575Y-146034285D01*
X133601527Y-146034285D01*
X133696765Y-146081904D01*
X133744384Y-146129523D01*
X133792003Y-146224761D01*
X133792003Y-146415238D01*
X133744384Y-146510476D01*
X133696765Y-146558095D01*
X133601527Y-146605714D01*
X133363432Y-146605714D01*
X133268194Y-146558095D01*
X133220575Y-146510476D01*
X133172956Y-146415238D01*
X133172956Y-146224761D01*
X133220575Y-146129523D01*
X133268194Y-146081904D01*
X133363432Y-146034285D01*
%TO.C,R15*%
X157469503Y-87227142D02*
X156993313Y-86893809D01*
X157469503Y-86655714D02*
X156469503Y-86655714D01*
X156469503Y-87036666D01*
X156517123Y-87131904D01*
X156564742Y-87179523D01*
X156659980Y-87227142D01*
X156802837Y-87227142D01*
X156898075Y-87179523D01*
X156945694Y-87131904D01*
X156993313Y-87036666D01*
X156993313Y-86655714D01*
X157469503Y-88179523D02*
X157469503Y-87608095D01*
X157469503Y-87893809D02*
X156469503Y-87893809D01*
X156612361Y-87798571D01*
X156707599Y-87703333D01*
X156755218Y-87608095D01*
X156469503Y-89084285D02*
X156469503Y-88608095D01*
X156945694Y-88560476D01*
X156898075Y-88608095D01*
X156850456Y-88703333D01*
X156850456Y-88941428D01*
X156898075Y-89036666D01*
X156945694Y-89084285D01*
X157040932Y-89131904D01*
X157279027Y-89131904D01*
X157374265Y-89084285D01*
X157421884Y-89036666D01*
X157469503Y-88941428D01*
X157469503Y-88703333D01*
X157421884Y-88608095D01*
X157374265Y-88560476D01*
%TO.C,R14*%
X272619503Y-130527142D02*
X272143313Y-130193809D01*
X272619503Y-129955714D02*
X271619503Y-129955714D01*
X271619503Y-130336666D01*
X271667123Y-130431904D01*
X271714742Y-130479523D01*
X271809980Y-130527142D01*
X271952837Y-130527142D01*
X272048075Y-130479523D01*
X272095694Y-130431904D01*
X272143313Y-130336666D01*
X272143313Y-129955714D01*
X272619503Y-131479523D02*
X272619503Y-130908095D01*
X272619503Y-131193809D02*
X271619503Y-131193809D01*
X271762361Y-131098571D01*
X271857599Y-131003333D01*
X271905218Y-130908095D01*
X271952837Y-132336666D02*
X272619503Y-132336666D01*
X271571884Y-132098571D02*
X272286170Y-131860476D01*
X272286170Y-132479523D01*
%TO.C,R7*%
X214819503Y-123903333D02*
X214343313Y-123570000D01*
X214819503Y-123331904D02*
X213819503Y-123331904D01*
X213819503Y-123712857D01*
X213867123Y-123808095D01*
X213914742Y-123855714D01*
X214009980Y-123903333D01*
X214152837Y-123903333D01*
X214248075Y-123855714D01*
X214295694Y-123808095D01*
X214343313Y-123712857D01*
X214343313Y-123331904D01*
X213819503Y-124236666D02*
X213819503Y-124903333D01*
X214819503Y-124474761D01*
%TO.C,C1*%
X218583789Y-152427142D02*
X218631408Y-152474761D01*
X218774265Y-152522380D01*
X218869503Y-152522380D01*
X219012361Y-152474761D01*
X219107599Y-152379523D01*
X219155218Y-152284285D01*
X219202837Y-152093809D01*
X219202837Y-151950952D01*
X219155218Y-151760476D01*
X219107599Y-151665238D01*
X219012361Y-151570000D01*
X218869503Y-151522380D01*
X218774265Y-151522380D01*
X218631408Y-151570000D01*
X218583789Y-151617619D01*
X217631408Y-152522380D02*
X218202837Y-152522380D01*
X217917123Y-152522380D02*
X217917123Y-151522380D01*
X218012361Y-151665238D01*
X218107599Y-151760476D01*
X218202837Y-151808095D01*
%TO.C,R8*%
X216183789Y-144772380D02*
X216517123Y-144296190D01*
X216755218Y-144772380D02*
X216755218Y-143772380D01*
X216374265Y-143772380D01*
X216279027Y-143820000D01*
X216231408Y-143867619D01*
X216183789Y-143962857D01*
X216183789Y-144105714D01*
X216231408Y-144200952D01*
X216279027Y-144248571D01*
X216374265Y-144296190D01*
X216755218Y-144296190D01*
X215612361Y-144200952D02*
X215707599Y-144153333D01*
X215755218Y-144105714D01*
X215802837Y-144010476D01*
X215802837Y-143962857D01*
X215755218Y-143867619D01*
X215707599Y-143820000D01*
X215612361Y-143772380D01*
X215421884Y-143772380D01*
X215326646Y-143820000D01*
X215279027Y-143867619D01*
X215231408Y-143962857D01*
X215231408Y-144010476D01*
X215279027Y-144105714D01*
X215326646Y-144153333D01*
X215421884Y-144200952D01*
X215612361Y-144200952D01*
X215707599Y-144248571D01*
X215755218Y-144296190D01*
X215802837Y-144391428D01*
X215802837Y-144581904D01*
X215755218Y-144677142D01*
X215707599Y-144724761D01*
X215612361Y-144772380D01*
X215421884Y-144772380D01*
X215326646Y-144724761D01*
X215279027Y-144677142D01*
X215231408Y-144581904D01*
X215231408Y-144391428D01*
X215279027Y-144296190D01*
X215326646Y-144248571D01*
X215421884Y-144200952D01*
%TO.C,R6*%
X244166666Y-125952380D02*
X244500000Y-125476190D01*
X244738095Y-125952380D02*
X244738095Y-124952380D01*
X244357142Y-124952380D01*
X244261904Y-125000000D01*
X244214285Y-125047619D01*
X244166666Y-125142857D01*
X244166666Y-125285714D01*
X244214285Y-125380952D01*
X244261904Y-125428571D01*
X244357142Y-125476190D01*
X244738095Y-125476190D01*
X243309523Y-124952380D02*
X243500000Y-124952380D01*
X243595238Y-125000000D01*
X243642857Y-125047619D01*
X243738095Y-125190476D01*
X243785714Y-125380952D01*
X243785714Y-125761904D01*
X243738095Y-125857142D01*
X243690476Y-125904761D01*
X243595238Y-125952380D01*
X243404761Y-125952380D01*
X243309523Y-125904761D01*
X243261904Y-125857142D01*
X243214285Y-125761904D01*
X243214285Y-125523809D01*
X243261904Y-125428571D01*
X243309523Y-125380952D01*
X243404761Y-125333333D01*
X243595238Y-125333333D01*
X243690476Y-125380952D01*
X243738095Y-125428571D01*
X243785714Y-125523809D01*
%TO.C,C22*%
X148898728Y-132927142D02*
X148946347Y-132974761D01*
X149089204Y-133022380D01*
X149184442Y-133022380D01*
X149327299Y-132974761D01*
X149422537Y-132879523D01*
X149470156Y-132784285D01*
X149517775Y-132593809D01*
X149517775Y-132450952D01*
X149470156Y-132260476D01*
X149422537Y-132165238D01*
X149327299Y-132070000D01*
X149184442Y-132022380D01*
X149089204Y-132022380D01*
X148946347Y-132070000D01*
X148898728Y-132117619D01*
X148517775Y-132117619D02*
X148470156Y-132070000D01*
X148374918Y-132022380D01*
X148136823Y-132022380D01*
X148041585Y-132070000D01*
X147993966Y-132117619D01*
X147946347Y-132212857D01*
X147946347Y-132308095D01*
X147993966Y-132450952D01*
X148565394Y-133022380D01*
X147946347Y-133022380D01*
X147565394Y-132117619D02*
X147517775Y-132070000D01*
X147422537Y-132022380D01*
X147184442Y-132022380D01*
X147089204Y-132070000D01*
X147041585Y-132117619D01*
X146993966Y-132212857D01*
X146993966Y-132308095D01*
X147041585Y-132450952D01*
X147613013Y-133022380D01*
X146993966Y-133022380D01*
%TO.C,C2*%
X272583789Y-146364642D02*
X272631408Y-146412261D01*
X272774265Y-146459880D01*
X272869503Y-146459880D01*
X273012361Y-146412261D01*
X273107599Y-146317023D01*
X273155218Y-146221785D01*
X273202837Y-146031309D01*
X273202837Y-145888452D01*
X273155218Y-145697976D01*
X273107599Y-145602738D01*
X273012361Y-145507500D01*
X272869503Y-145459880D01*
X272774265Y-145459880D01*
X272631408Y-145507500D01*
X272583789Y-145555119D01*
X272202837Y-145555119D02*
X272155218Y-145507500D01*
X272059980Y-145459880D01*
X271821884Y-145459880D01*
X271726646Y-145507500D01*
X271679027Y-145555119D01*
X271631408Y-145650357D01*
X271631408Y-145745595D01*
X271679027Y-145888452D01*
X272250456Y-146459880D01*
X271631408Y-146459880D01*
%TO.C,C10*%
X189459980Y-152227142D02*
X189507599Y-152274761D01*
X189650456Y-152322380D01*
X189745694Y-152322380D01*
X189888551Y-152274761D01*
X189983789Y-152179523D01*
X190031408Y-152084285D01*
X190079027Y-151893809D01*
X190079027Y-151750952D01*
X190031408Y-151560476D01*
X189983789Y-151465238D01*
X189888551Y-151370000D01*
X189745694Y-151322380D01*
X189650456Y-151322380D01*
X189507599Y-151370000D01*
X189459980Y-151417619D01*
X188507599Y-152322380D02*
X189079027Y-152322380D01*
X188793313Y-152322380D02*
X188793313Y-151322380D01*
X188888551Y-151465238D01*
X188983789Y-151560476D01*
X189079027Y-151608095D01*
X187888551Y-151322380D02*
X187793313Y-151322380D01*
X187698075Y-151370000D01*
X187650456Y-151417619D01*
X187602837Y-151512857D01*
X187555218Y-151703333D01*
X187555218Y-151941428D01*
X187602837Y-152131904D01*
X187650456Y-152227142D01*
X187698075Y-152274761D01*
X187793313Y-152322380D01*
X187888551Y-152322380D01*
X187983789Y-152274761D01*
X188031408Y-152227142D01*
X188079027Y-152131904D01*
X188126646Y-151941428D01*
X188126646Y-151703333D01*
X188079027Y-151512857D01*
X188031408Y-151417619D01*
X187983789Y-151370000D01*
X187888551Y-151322380D01*
%TO.C,C4*%
X270183789Y-146427142D02*
X270231408Y-146474761D01*
X270374265Y-146522380D01*
X270469503Y-146522380D01*
X270612361Y-146474761D01*
X270707599Y-146379523D01*
X270755218Y-146284285D01*
X270802837Y-146093809D01*
X270802837Y-145950952D01*
X270755218Y-145760476D01*
X270707599Y-145665238D01*
X270612361Y-145570000D01*
X270469503Y-145522380D01*
X270374265Y-145522380D01*
X270231408Y-145570000D01*
X270183789Y-145617619D01*
X269326646Y-145855714D02*
X269326646Y-146522380D01*
X269564742Y-145474761D02*
X269802837Y-146189047D01*
X269183789Y-146189047D01*
%TO.C,R9*%
X147969503Y-137403333D02*
X147493313Y-137070000D01*
X147969503Y-136831904D02*
X146969503Y-136831904D01*
X146969503Y-137212857D01*
X147017123Y-137308095D01*
X147064742Y-137355714D01*
X147159980Y-137403333D01*
X147302837Y-137403333D01*
X147398075Y-137355714D01*
X147445694Y-137308095D01*
X147493313Y-137212857D01*
X147493313Y-136831904D01*
X147969503Y-137879523D02*
X147969503Y-138070000D01*
X147921884Y-138165238D01*
X147874265Y-138212857D01*
X147731408Y-138308095D01*
X147540932Y-138355714D01*
X147159980Y-138355714D01*
X147064742Y-138308095D01*
X147017123Y-138260476D01*
X146969503Y-138165238D01*
X146969503Y-137974761D01*
X147017123Y-137879523D01*
X147064742Y-137831904D01*
X147159980Y-137784285D01*
X147398075Y-137784285D01*
X147493313Y-137831904D01*
X147540932Y-137879523D01*
X147588551Y-137974761D01*
X147588551Y-138165238D01*
X147540932Y-138260476D01*
X147493313Y-138308095D01*
X147398075Y-138355714D01*
%TO.C,C16*%
X145309980Y-82547142D02*
X145357599Y-82594761D01*
X145500456Y-82642380D01*
X145595694Y-82642380D01*
X145738551Y-82594761D01*
X145833789Y-82499523D01*
X145881408Y-82404285D01*
X145929027Y-82213809D01*
X145929027Y-82070952D01*
X145881408Y-81880476D01*
X145833789Y-81785238D01*
X145738551Y-81690000D01*
X145595694Y-81642380D01*
X145500456Y-81642380D01*
X145357599Y-81690000D01*
X145309980Y-81737619D01*
X144357599Y-82642380D02*
X144929027Y-82642380D01*
X144643313Y-82642380D02*
X144643313Y-81642380D01*
X144738551Y-81785238D01*
X144833789Y-81880476D01*
X144929027Y-81928095D01*
X143500456Y-81642380D02*
X143690932Y-81642380D01*
X143786170Y-81690000D01*
X143833789Y-81737619D01*
X143929027Y-81880476D01*
X143976646Y-82070952D01*
X143976646Y-82451904D01*
X143929027Y-82547142D01*
X143881408Y-82594761D01*
X143786170Y-82642380D01*
X143595694Y-82642380D01*
X143500456Y-82594761D01*
X143452837Y-82547142D01*
X143405218Y-82451904D01*
X143405218Y-82213809D01*
X143452837Y-82118571D01*
X143500456Y-82070952D01*
X143595694Y-82023333D01*
X143786170Y-82023333D01*
X143881408Y-82070952D01*
X143929027Y-82118571D01*
X143976646Y-82213809D01*
%TO.C,R2*%
X149433789Y-148272380D02*
X149767123Y-147796190D01*
X150005218Y-148272380D02*
X150005218Y-147272380D01*
X149624265Y-147272380D01*
X149529027Y-147320000D01*
X149481408Y-147367619D01*
X149433789Y-147462857D01*
X149433789Y-147605714D01*
X149481408Y-147700952D01*
X149529027Y-147748571D01*
X149624265Y-147796190D01*
X150005218Y-147796190D01*
X149052837Y-147367619D02*
X149005218Y-147320000D01*
X148909980Y-147272380D01*
X148671884Y-147272380D01*
X148576646Y-147320000D01*
X148529027Y-147367619D01*
X148481408Y-147462857D01*
X148481408Y-147558095D01*
X148529027Y-147700952D01*
X149100456Y-148272380D01*
X148481408Y-148272380D01*
%TO.C,C13*%
X192459980Y-152227142D02*
X192507599Y-152274761D01*
X192650456Y-152322380D01*
X192745694Y-152322380D01*
X192888551Y-152274761D01*
X192983789Y-152179523D01*
X193031408Y-152084285D01*
X193079027Y-151893809D01*
X193079027Y-151750952D01*
X193031408Y-151560476D01*
X192983789Y-151465238D01*
X192888551Y-151370000D01*
X192745694Y-151322380D01*
X192650456Y-151322380D01*
X192507599Y-151370000D01*
X192459980Y-151417619D01*
X191507599Y-152322380D02*
X192079027Y-152322380D01*
X191793313Y-152322380D02*
X191793313Y-151322380D01*
X191888551Y-151465238D01*
X191983789Y-151560476D01*
X192079027Y-151608095D01*
X191174265Y-151322380D02*
X190555218Y-151322380D01*
X190888551Y-151703333D01*
X190745694Y-151703333D01*
X190650456Y-151750952D01*
X190602837Y-151798571D01*
X190555218Y-151893809D01*
X190555218Y-152131904D01*
X190602837Y-152227142D01*
X190650456Y-152274761D01*
X190745694Y-152322380D01*
X191031408Y-152322380D01*
X191126646Y-152274761D01*
X191174265Y-152227142D01*
%TO.C,C9*%
X132916666Y-142857142D02*
X132964285Y-142904761D01*
X133107142Y-142952380D01*
X133202380Y-142952380D01*
X133345238Y-142904761D01*
X133440476Y-142809523D01*
X133488095Y-142714285D01*
X133535714Y-142523809D01*
X133535714Y-142380952D01*
X133488095Y-142190476D01*
X133440476Y-142095238D01*
X133345238Y-142000000D01*
X133202380Y-141952380D01*
X133107142Y-141952380D01*
X132964285Y-142000000D01*
X132916666Y-142047619D01*
X132440476Y-142952380D02*
X132250000Y-142952380D01*
X132154761Y-142904761D01*
X132107142Y-142857142D01*
X132011904Y-142714285D01*
X131964285Y-142523809D01*
X131964285Y-142142857D01*
X132011904Y-142047619D01*
X132059523Y-142000000D01*
X132154761Y-141952380D01*
X132345238Y-141952380D01*
X132440476Y-142000000D01*
X132488095Y-142047619D01*
X132535714Y-142142857D01*
X132535714Y-142380952D01*
X132488095Y-142476190D01*
X132440476Y-142523809D01*
X132345238Y-142571428D01*
X132154761Y-142571428D01*
X132059523Y-142523809D01*
X132011904Y-142476190D01*
X131964285Y-142380952D01*
%TO.C,C15*%
X172374265Y-91927142D02*
X172421884Y-91879523D01*
X172469503Y-91736666D01*
X172469503Y-91641428D01*
X172421884Y-91498571D01*
X172326646Y-91403333D01*
X172231408Y-91355714D01*
X172040932Y-91308095D01*
X171898075Y-91308095D01*
X171707599Y-91355714D01*
X171612361Y-91403333D01*
X171517123Y-91498571D01*
X171469503Y-91641428D01*
X171469503Y-91736666D01*
X171517123Y-91879523D01*
X171564742Y-91927142D01*
X172469503Y-92879523D02*
X172469503Y-92308095D01*
X172469503Y-92593809D02*
X171469503Y-92593809D01*
X171612361Y-92498571D01*
X171707599Y-92403333D01*
X171755218Y-92308095D01*
X171469503Y-93784285D02*
X171469503Y-93308095D01*
X171945694Y-93260476D01*
X171898075Y-93308095D01*
X171850456Y-93403333D01*
X171850456Y-93641428D01*
X171898075Y-93736666D01*
X171945694Y-93784285D01*
X172040932Y-93831904D01*
X172279027Y-93831904D01*
X172374265Y-93784285D01*
X172421884Y-93736666D01*
X172469503Y-93641428D01*
X172469503Y-93403333D01*
X172421884Y-93308095D01*
X172374265Y-93260476D01*
%TO.C,R25*%
X145452380Y-91357142D02*
X144976190Y-91023809D01*
X145452380Y-90785714D02*
X144452380Y-90785714D01*
X144452380Y-91166666D01*
X144500000Y-91261904D01*
X144547619Y-91309523D01*
X144642857Y-91357142D01*
X144785714Y-91357142D01*
X144880952Y-91309523D01*
X144928571Y-91261904D01*
X144976190Y-91166666D01*
X144976190Y-90785714D01*
X144547619Y-91738095D02*
X144500000Y-91785714D01*
X144452380Y-91880952D01*
X144452380Y-92119047D01*
X144500000Y-92214285D01*
X144547619Y-92261904D01*
X144642857Y-92309523D01*
X144738095Y-92309523D01*
X144880952Y-92261904D01*
X145452380Y-91690476D01*
X145452380Y-92309523D01*
X144452380Y-93214285D02*
X144452380Y-92738095D01*
X144928571Y-92690476D01*
X144880952Y-92738095D01*
X144833333Y-92833333D01*
X144833333Y-93071428D01*
X144880952Y-93166666D01*
X144928571Y-93214285D01*
X145023809Y-93261904D01*
X145261904Y-93261904D01*
X145357142Y-93214285D01*
X145404761Y-93166666D01*
X145452380Y-93071428D01*
X145452380Y-92833333D01*
X145404761Y-92738095D01*
X145357142Y-92690476D01*
%TO.C,C5*%
X133674265Y-147833333D02*
X133721884Y-147785714D01*
X133769503Y-147642857D01*
X133769503Y-147547619D01*
X133721884Y-147404761D01*
X133626646Y-147309523D01*
X133531408Y-147261904D01*
X133340932Y-147214285D01*
X133198075Y-147214285D01*
X133007599Y-147261904D01*
X132912361Y-147309523D01*
X132817123Y-147404761D01*
X132769503Y-147547619D01*
X132769503Y-147642857D01*
X132817123Y-147785714D01*
X132864742Y-147833333D01*
X132769503Y-148738095D02*
X132769503Y-148261904D01*
X133245694Y-148214285D01*
X133198075Y-148261904D01*
X133150456Y-148357142D01*
X133150456Y-148595238D01*
X133198075Y-148690476D01*
X133245694Y-148738095D01*
X133340932Y-148785714D01*
X133579027Y-148785714D01*
X133674265Y-148738095D01*
X133721884Y-148690476D01*
X133769503Y-148595238D01*
X133769503Y-148357142D01*
X133721884Y-148261904D01*
X133674265Y-148214285D01*
%TO.C,R3*%
X189819503Y-129833333D02*
X189343313Y-129500000D01*
X189819503Y-129261904D02*
X188819503Y-129261904D01*
X188819503Y-129642857D01*
X188867123Y-129738095D01*
X188914742Y-129785714D01*
X189009980Y-129833333D01*
X189152837Y-129833333D01*
X189248075Y-129785714D01*
X189295694Y-129738095D01*
X189343313Y-129642857D01*
X189343313Y-129261904D01*
X188819503Y-130166666D02*
X188819503Y-130785714D01*
X189200456Y-130452380D01*
X189200456Y-130595238D01*
X189248075Y-130690476D01*
X189295694Y-130738095D01*
X189390932Y-130785714D01*
X189629027Y-130785714D01*
X189724265Y-130738095D01*
X189771884Y-130690476D01*
X189819503Y-130595238D01*
X189819503Y-130309523D01*
X189771884Y-130214285D01*
X189724265Y-130166666D01*
%TO.C,C11*%
X244259980Y-145827142D02*
X244307599Y-145874761D01*
X244450456Y-145922380D01*
X244545694Y-145922380D01*
X244688551Y-145874761D01*
X244783789Y-145779523D01*
X244831408Y-145684285D01*
X244879027Y-145493809D01*
X244879027Y-145350952D01*
X244831408Y-145160476D01*
X244783789Y-145065238D01*
X244688551Y-144970000D01*
X244545694Y-144922380D01*
X244450456Y-144922380D01*
X244307599Y-144970000D01*
X244259980Y-145017619D01*
X243307599Y-145922380D02*
X243879027Y-145922380D01*
X243593313Y-145922380D02*
X243593313Y-144922380D01*
X243688551Y-145065238D01*
X243783789Y-145160476D01*
X243879027Y-145208095D01*
X242355218Y-145922380D02*
X242926646Y-145922380D01*
X242640932Y-145922380D02*
X242640932Y-144922380D01*
X242736170Y-145065238D01*
X242831408Y-145160476D01*
X242926646Y-145208095D01*
%TO.C,C7*%
X132983789Y-140677142D02*
X133031408Y-140724761D01*
X133174265Y-140772380D01*
X133269503Y-140772380D01*
X133412361Y-140724761D01*
X133507599Y-140629523D01*
X133555218Y-140534285D01*
X133602837Y-140343809D01*
X133602837Y-140200952D01*
X133555218Y-140010476D01*
X133507599Y-139915238D01*
X133412361Y-139820000D01*
X133269503Y-139772380D01*
X133174265Y-139772380D01*
X133031408Y-139820000D01*
X132983789Y-139867619D01*
X132650456Y-139772380D02*
X131983789Y-139772380D01*
X132412361Y-140772380D01*
%TO.C,C12*%
X128424265Y-146927142D02*
X128471884Y-146879523D01*
X128519503Y-146736666D01*
X128519503Y-146641428D01*
X128471884Y-146498571D01*
X128376646Y-146403333D01*
X128281408Y-146355714D01*
X128090932Y-146308095D01*
X127948075Y-146308095D01*
X127757599Y-146355714D01*
X127662361Y-146403333D01*
X127567123Y-146498571D01*
X127519503Y-146641428D01*
X127519503Y-146736666D01*
X127567123Y-146879523D01*
X127614742Y-146927142D01*
X128519503Y-147879523D02*
X128519503Y-147308095D01*
X128519503Y-147593809D02*
X127519503Y-147593809D01*
X127662361Y-147498571D01*
X127757599Y-147403333D01*
X127805218Y-147308095D01*
X127614742Y-148260476D02*
X127567123Y-148308095D01*
X127519503Y-148403333D01*
X127519503Y-148641428D01*
X127567123Y-148736666D01*
X127614742Y-148784285D01*
X127709980Y-148831904D01*
X127805218Y-148831904D01*
X127948075Y-148784285D01*
X128519503Y-148212857D01*
X128519503Y-148831904D01*
%TO.C,C17*%
X140659980Y-111927142D02*
X140707599Y-111974761D01*
X140850456Y-112022380D01*
X140945694Y-112022380D01*
X141088551Y-111974761D01*
X141183789Y-111879523D01*
X141231408Y-111784285D01*
X141279027Y-111593809D01*
X141279027Y-111450952D01*
X141231408Y-111260476D01*
X141183789Y-111165238D01*
X141088551Y-111070000D01*
X140945694Y-111022380D01*
X140850456Y-111022380D01*
X140707599Y-111070000D01*
X140659980Y-111117619D01*
X139707599Y-112022380D02*
X140279027Y-112022380D01*
X139993313Y-112022380D02*
X139993313Y-111022380D01*
X140088551Y-111165238D01*
X140183789Y-111260476D01*
X140279027Y-111308095D01*
X139374265Y-111022380D02*
X138707599Y-111022380D01*
X139136170Y-112022380D01*
%TO.C,C8*%
X244183789Y-151627142D02*
X244231408Y-151674761D01*
X244374265Y-151722380D01*
X244469503Y-151722380D01*
X244612361Y-151674761D01*
X244707599Y-151579523D01*
X244755218Y-151484285D01*
X244802837Y-151293809D01*
X244802837Y-151150952D01*
X244755218Y-150960476D01*
X244707599Y-150865238D01*
X244612361Y-150770000D01*
X244469503Y-150722380D01*
X244374265Y-150722380D01*
X244231408Y-150770000D01*
X244183789Y-150817619D01*
X243612361Y-151150952D02*
X243707599Y-151103333D01*
X243755218Y-151055714D01*
X243802837Y-150960476D01*
X243802837Y-150912857D01*
X243755218Y-150817619D01*
X243707599Y-150770000D01*
X243612361Y-150722380D01*
X243421884Y-150722380D01*
X243326646Y-150770000D01*
X243279027Y-150817619D01*
X243231408Y-150912857D01*
X243231408Y-150960476D01*
X243279027Y-151055714D01*
X243326646Y-151103333D01*
X243421884Y-151150952D01*
X243612361Y-151150952D01*
X243707599Y-151198571D01*
X243755218Y-151246190D01*
X243802837Y-151341428D01*
X243802837Y-151531904D01*
X243755218Y-151627142D01*
X243707599Y-151674761D01*
X243612361Y-151722380D01*
X243421884Y-151722380D01*
X243326646Y-151674761D01*
X243279027Y-151627142D01*
X243231408Y-151531904D01*
X243231408Y-151341428D01*
X243279027Y-151246190D01*
X243326646Y-151198571D01*
X243421884Y-151150952D01*
%TO.C,C23*%
X183310490Y-135687142D02*
X183358109Y-135734761D01*
X183500966Y-135782380D01*
X183596204Y-135782380D01*
X183739061Y-135734761D01*
X183834299Y-135639523D01*
X183881918Y-135544285D01*
X183929537Y-135353809D01*
X183929537Y-135210952D01*
X183881918Y-135020476D01*
X183834299Y-134925238D01*
X183739061Y-134830000D01*
X183596204Y-134782380D01*
X183500966Y-134782380D01*
X183358109Y-134830000D01*
X183310490Y-134877619D01*
X182929537Y-134877619D02*
X182881918Y-134830000D01*
X182786680Y-134782380D01*
X182548585Y-134782380D01*
X182453347Y-134830000D01*
X182405728Y-134877619D01*
X182358109Y-134972857D01*
X182358109Y-135068095D01*
X182405728Y-135210952D01*
X182977156Y-135782380D01*
X182358109Y-135782380D01*
X182024775Y-134782380D02*
X181405728Y-134782380D01*
X181739061Y-135163333D01*
X181596204Y-135163333D01*
X181500966Y-135210952D01*
X181453347Y-135258571D01*
X181405728Y-135353809D01*
X181405728Y-135591904D01*
X181453347Y-135687142D01*
X181500966Y-135734761D01*
X181596204Y-135782380D01*
X181881918Y-135782380D01*
X181977156Y-135734761D01*
X182024775Y-135687142D01*
%TO.C,R13*%
X147230490Y-128122380D02*
X147563823Y-127646190D01*
X147801918Y-128122380D02*
X147801918Y-127122380D01*
X147420966Y-127122380D01*
X147325728Y-127170000D01*
X147278109Y-127217619D01*
X147230490Y-127312857D01*
X147230490Y-127455714D01*
X147278109Y-127550952D01*
X147325728Y-127598571D01*
X147420966Y-127646190D01*
X147801918Y-127646190D01*
X146278109Y-128122380D02*
X146849537Y-128122380D01*
X146563823Y-128122380D02*
X146563823Y-127122380D01*
X146659061Y-127265238D01*
X146754299Y-127360476D01*
X146849537Y-127408095D01*
X145944775Y-127122380D02*
X145325728Y-127122380D01*
X145659061Y-127503333D01*
X145516204Y-127503333D01*
X145420966Y-127550952D01*
X145373347Y-127598571D01*
X145325728Y-127693809D01*
X145325728Y-127931904D01*
X145373347Y-128027142D01*
X145420966Y-128074761D01*
X145516204Y-128122380D01*
X145801918Y-128122380D01*
X145897156Y-128074761D01*
X145944775Y-128027142D01*
%TO.C,R12*%
X272159980Y-141872380D02*
X272493313Y-141396190D01*
X272731408Y-141872380D02*
X272731408Y-140872380D01*
X272350456Y-140872380D01*
X272255218Y-140920000D01*
X272207599Y-140967619D01*
X272159980Y-141062857D01*
X272159980Y-141205714D01*
X272207599Y-141300952D01*
X272255218Y-141348571D01*
X272350456Y-141396190D01*
X272731408Y-141396190D01*
X271207599Y-141872380D02*
X271779027Y-141872380D01*
X271493313Y-141872380D02*
X271493313Y-140872380D01*
X271588551Y-141015238D01*
X271683789Y-141110476D01*
X271779027Y-141158095D01*
X270826646Y-140967619D02*
X270779027Y-140920000D01*
X270683789Y-140872380D01*
X270445694Y-140872380D01*
X270350456Y-140920000D01*
X270302837Y-140967619D01*
X270255218Y-141062857D01*
X270255218Y-141158095D01*
X270302837Y-141300952D01*
X270874265Y-141872380D01*
X270255218Y-141872380D01*
%TO.C,C14*%
X130709980Y-144427142D02*
X130757599Y-144474761D01*
X130900456Y-144522380D01*
X130995694Y-144522380D01*
X131138551Y-144474761D01*
X131233789Y-144379523D01*
X131281408Y-144284285D01*
X131329027Y-144093809D01*
X131329027Y-143950952D01*
X131281408Y-143760476D01*
X131233789Y-143665238D01*
X131138551Y-143570000D01*
X130995694Y-143522380D01*
X130900456Y-143522380D01*
X130757599Y-143570000D01*
X130709980Y-143617619D01*
X129757599Y-144522380D02*
X130329027Y-144522380D01*
X130043313Y-144522380D02*
X130043313Y-143522380D01*
X130138551Y-143665238D01*
X130233789Y-143760476D01*
X130329027Y-143808095D01*
X128900456Y-143855714D02*
X128900456Y-144522380D01*
X129138551Y-143474761D02*
X129376646Y-144189047D01*
X128757599Y-144189047D01*
%TO.C,R10*%
X214819503Y-128427142D02*
X214343313Y-128093809D01*
X214819503Y-127855714D02*
X213819503Y-127855714D01*
X213819503Y-128236666D01*
X213867123Y-128331904D01*
X213914742Y-128379523D01*
X214009980Y-128427142D01*
X214152837Y-128427142D01*
X214248075Y-128379523D01*
X214295694Y-128331904D01*
X214343313Y-128236666D01*
X214343313Y-127855714D01*
X214819503Y-129379523D02*
X214819503Y-128808095D01*
X214819503Y-129093809D02*
X213819503Y-129093809D01*
X213962361Y-128998571D01*
X214057599Y-128903333D01*
X214105218Y-128808095D01*
X213819503Y-129998571D02*
X213819503Y-130093809D01*
X213867123Y-130189047D01*
X213914742Y-130236666D01*
X214009980Y-130284285D01*
X214200456Y-130331904D01*
X214438551Y-130331904D01*
X214629027Y-130284285D01*
X214724265Y-130236666D01*
X214771884Y-130189047D01*
X214819503Y-130093809D01*
X214819503Y-129998571D01*
X214771884Y-129903333D01*
X214724265Y-129855714D01*
X214629027Y-129808095D01*
X214438551Y-129760476D01*
X214200456Y-129760476D01*
X214009980Y-129808095D01*
X213914742Y-129855714D01*
X213867123Y-129903333D01*
X213819503Y-129998571D01*
%TO.C,R4*%
X189819503Y-124583333D02*
X189343313Y-124250000D01*
X189819503Y-124011904D02*
X188819503Y-124011904D01*
X188819503Y-124392857D01*
X188867123Y-124488095D01*
X188914742Y-124535714D01*
X189009980Y-124583333D01*
X189152837Y-124583333D01*
X189248075Y-124535714D01*
X189295694Y-124488095D01*
X189343313Y-124392857D01*
X189343313Y-124011904D01*
X189152837Y-125440476D02*
X189819503Y-125440476D01*
X188771884Y-125202380D02*
X189486170Y-124964285D01*
X189486170Y-125583333D01*
D11*
%TO.C,J5*%
X109853123Y-156420000D02*
G75*
G03*
X109853123Y-156420000I-381000J0D01*
G01*
%TO.C,J1*%
X207008123Y-89475000D02*
G75*
G03*
X207008123Y-89475000I-381000J0D01*
G01*
%TO.C,J2*%
X230008123Y-89475000D02*
G75*
G03*
X230008123Y-89475000I-381000J0D01*
G01*
D12*
%TO.C,R11*%
X269790059Y-123835000D02*
X270244187Y-123835000D01*
X269790059Y-125305000D02*
X270244187Y-125305000D01*
%TO.C,R5*%
X244744187Y-131335000D02*
X244290059Y-131335000D01*
X244744187Y-132805000D02*
X244290059Y-132805000D01*
%TO.C,C3*%
X216752123Y-149581252D02*
X216752123Y-149058748D01*
X215282123Y-149581252D02*
X215282123Y-149058748D01*
%TO.C,R1*%
X158252123Y-137797064D02*
X158252123Y-137342936D01*
X156782123Y-137797064D02*
X156782123Y-137342936D01*
%TO.C,R24*%
X142022936Y-95985000D02*
X142477064Y-95985000D01*
X142022936Y-94515000D02*
X142477064Y-94515000D01*
%TO.C,C6*%
X136100875Y-146555000D02*
X135578371Y-146555000D01*
X136100875Y-145085000D02*
X135578371Y-145085000D01*
%TO.C,R15*%
X159402123Y-87642936D02*
X159402123Y-88097064D01*
X157932123Y-87642936D02*
X157932123Y-88097064D01*
%TO.C,R14*%
X269782123Y-131397064D02*
X269782123Y-130942936D01*
X271252123Y-131397064D02*
X271252123Y-130942936D01*
%TO.C,R7*%
X215282123Y-123842936D02*
X215282123Y-124297064D01*
X216752123Y-123842936D02*
X216752123Y-124297064D01*
%TO.C,C1*%
X219252123Y-149581252D02*
X219252123Y-149058748D01*
X217782123Y-149581252D02*
X217782123Y-149058748D01*
%TO.C,R8*%
X218752123Y-144092936D02*
X218752123Y-144547064D01*
X217282123Y-144092936D02*
X217282123Y-144547064D01*
%TO.C,R6*%
X244744187Y-127805000D02*
X244290059Y-127805000D01*
X244744187Y-126335000D02*
X244290059Y-126335000D01*
%TO.C,C22*%
X148778375Y-129835000D02*
X148255871Y-129835000D01*
X148778375Y-131305000D02*
X148255871Y-131305000D01*
%TO.C,C2*%
X271682123Y-148768752D02*
X271682123Y-148246248D01*
X273152123Y-148768752D02*
X273152123Y-148246248D01*
%TO.C,C10*%
X189752123Y-149618752D02*
X189752123Y-149096248D01*
X188282123Y-149618752D02*
X188282123Y-149096248D01*
%TO.C,C4*%
X270752123Y-148831252D02*
X270752123Y-148308748D01*
X269282123Y-148831252D02*
X269282123Y-148308748D01*
%TO.C,R9*%
X150002123Y-137342936D02*
X150002123Y-137797064D01*
X148532123Y-137342936D02*
X148532123Y-137797064D01*
%TO.C,C16*%
X144928375Y-84605000D02*
X144405871Y-84605000D01*
X144928375Y-83135000D02*
X144405871Y-83135000D01*
%TO.C,R2*%
X150002123Y-145547064D02*
X150002123Y-145092936D01*
X148532123Y-145547064D02*
X148532123Y-145092936D01*
%TO.C,C13*%
X190782123Y-149618752D02*
X190782123Y-149096248D01*
X192252123Y-149618752D02*
X192252123Y-149096248D01*
%TO.C,C9*%
X136078375Y-141835000D02*
X135555871Y-141835000D01*
X136078375Y-143305000D02*
X135555871Y-143305000D01*
%TO.C,C15*%
X174752123Y-92831252D02*
X174752123Y-92308748D01*
X173282123Y-92831252D02*
X173282123Y-92308748D01*
%TO.C,R25*%
X142022936Y-91765000D02*
X142477064Y-91765000D01*
X142022936Y-93235000D02*
X142477064Y-93235000D01*
%TO.C,C5*%
X136078375Y-147335000D02*
X135555871Y-147335000D01*
X136078375Y-148805000D02*
X135555871Y-148805000D01*
%TO.C,R3*%
X190282123Y-128842936D02*
X190282123Y-129297064D01*
X191752123Y-128842936D02*
X191752123Y-129297064D01*
%TO.C,C11*%
X244778375Y-147805000D02*
X244255871Y-147805000D01*
X244778375Y-146335000D02*
X244255871Y-146335000D01*
%TO.C,C7*%
X136078375Y-141055000D02*
X135555871Y-141055000D01*
X136078375Y-139585000D02*
X135555871Y-139585000D01*
%TO.C,C12*%
X130268371Y-148805000D02*
X130790875Y-148805000D01*
X130268371Y-147335000D02*
X130790875Y-147335000D01*
%TO.C,C17*%
X139282123Y-113808748D02*
X139282123Y-114331252D01*
X140752123Y-113808748D02*
X140752123Y-114331252D01*
%TO.C,C8*%
X244778375Y-148835000D02*
X244255871Y-148835000D01*
X244778375Y-150305000D02*
X244255871Y-150305000D01*
%TO.C,C23*%
X179432633Y-135591252D02*
X179432633Y-135068748D01*
X180902633Y-135591252D02*
X180902633Y-135068748D01*
%TO.C,R13*%
X149902633Y-127557064D02*
X149902633Y-127102936D01*
X148432633Y-127557064D02*
X148432633Y-127102936D01*
%TO.C,R12*%
X271744187Y-142335000D02*
X271290059Y-142335000D01*
X271744187Y-143805000D02*
X271290059Y-143805000D01*
%TO.C,C14*%
X130305871Y-145085000D02*
X130828375Y-145085000D01*
X130305871Y-146555000D02*
X130828375Y-146555000D01*
%TO.C,R10*%
X216752123Y-128842936D02*
X216752123Y-129297064D01*
X215282123Y-128842936D02*
X215282123Y-129297064D01*
%TO.C,R4*%
X190282123Y-123842936D02*
X190282123Y-124297064D01*
X191752123Y-123842936D02*
X191752123Y-124297064D01*
%TD*%
M02*
