%TF.GenerationSoftware,KiCad,Pcbnew,(6.0.0)*%
%TF.CreationDate,2024-03-23T23:35:02-05:00*%
%TF.ProjectId,MCD,4d43442e-6b69-4636-9164-5f7063625858,rev?*%
%TF.SameCoordinates,Original*%
%TF.FileFunction,Legend,Bot*%
%TF.FilePolarity,Positive*%
%FSLAX46Y46*%
G04 Gerber Fmt 4.6, Leading zero omitted, Abs format (unit mm)*
G04 Created by KiCad (PCBNEW (6.0.0)) date 2024-03-23 23:35:02*
%MOMM*%
%LPD*%
G01*
G04 APERTURE LIST*
%ADD10C,0.300000*%
%ADD11C,0.150000*%
%ADD12C,0.508000*%
%ADD13C,0.120000*%
G04 APERTURE END LIST*
D10*
X286940476Y-171574761D02*
X286940476Y-171955714D01*
X286178571Y-171574761D02*
X286178571Y-171955714D01*
X285607142Y-171574761D02*
X284464285Y-171574761D01*
X285035714Y-173574761D02*
X285035714Y-171574761D01*
X283797619Y-173574761D02*
X283797619Y-171574761D01*
X282940476Y-173574761D02*
X282940476Y-172527142D01*
X283035714Y-172336666D01*
X283226190Y-172241428D01*
X283511904Y-172241428D01*
X283702380Y-172336666D01*
X283797619Y-172431904D01*
X281226190Y-173479523D02*
X281416666Y-173574761D01*
X281797619Y-173574761D01*
X281988095Y-173479523D01*
X282083333Y-173289047D01*
X282083333Y-172527142D01*
X281988095Y-172336666D01*
X281797619Y-172241428D01*
X281416666Y-172241428D01*
X281226190Y-172336666D01*
X281130952Y-172527142D01*
X281130952Y-172717619D01*
X282083333Y-172908095D01*
X280273809Y-173574761D02*
X280273809Y-172241428D01*
X280273809Y-172622380D02*
X280178571Y-172431904D01*
X280083333Y-172336666D01*
X279892857Y-172241428D01*
X279702380Y-172241428D01*
X278273809Y-173479523D02*
X278464285Y-173574761D01*
X278845238Y-173574761D01*
X279035714Y-173479523D01*
X279130952Y-173289047D01*
X279130952Y-172527142D01*
X279035714Y-172336666D01*
X278845238Y-172241428D01*
X278464285Y-172241428D01*
X278273809Y-172336666D01*
X278178571Y-172527142D01*
X278178571Y-172717619D01*
X279130952Y-172908095D01*
X277607142Y-172241428D02*
X276845238Y-172241428D01*
X277321428Y-173574761D02*
X277321428Y-171860476D01*
X277226190Y-171670000D01*
X277035714Y-171574761D01*
X276845238Y-171574761D01*
X275892857Y-173574761D02*
X276083333Y-173479523D01*
X276178571Y-173384285D01*
X276273809Y-173193809D01*
X276273809Y-172622380D01*
X276178571Y-172431904D01*
X276083333Y-172336666D01*
X275892857Y-172241428D01*
X275607142Y-172241428D01*
X275416666Y-172336666D01*
X275321428Y-172431904D01*
X275226190Y-172622380D01*
X275226190Y-173193809D01*
X275321428Y-173384285D01*
X275416666Y-173479523D01*
X275607142Y-173574761D01*
X275892857Y-173574761D01*
X274369047Y-173574761D02*
X274369047Y-172241428D01*
X274369047Y-172622380D02*
X274273809Y-172431904D01*
X274178571Y-172336666D01*
X273988095Y-172241428D01*
X273797619Y-172241428D01*
X272369047Y-173479523D02*
X272559523Y-173574761D01*
X272940476Y-173574761D01*
X273130952Y-173479523D01*
X273226190Y-173289047D01*
X273226190Y-172527142D01*
X273130952Y-172336666D01*
X272940476Y-172241428D01*
X272559523Y-172241428D01*
X272369047Y-172336666D01*
X272273809Y-172527142D01*
X272273809Y-172717619D01*
X273226190Y-172908095D01*
X271321428Y-173479523D02*
X271321428Y-173574761D01*
X271416666Y-173765238D01*
X271511904Y-173860476D01*
X268940476Y-173574761D02*
X268940476Y-172241428D01*
X268940476Y-171574761D02*
X269035714Y-171670000D01*
X268940476Y-171765238D01*
X268845238Y-171670000D01*
X268940476Y-171574761D01*
X268940476Y-171765238D01*
X268273809Y-172241428D02*
X267511904Y-172241428D01*
X267988095Y-173574761D02*
X267988095Y-171860476D01*
X267892857Y-171670000D01*
X267702380Y-171574761D01*
X267511904Y-171574761D01*
X264464285Y-173574761D02*
X264464285Y-172527142D01*
X264559523Y-172336666D01*
X264750000Y-172241428D01*
X265130952Y-172241428D01*
X265321428Y-172336666D01*
X264464285Y-173479523D02*
X264654761Y-173574761D01*
X265130952Y-173574761D01*
X265321428Y-173479523D01*
X265416666Y-173289047D01*
X265416666Y-173098571D01*
X265321428Y-172908095D01*
X265130952Y-172812857D01*
X264654761Y-172812857D01*
X264464285Y-172717619D01*
X263511904Y-172241428D02*
X263511904Y-173574761D01*
X263511904Y-172431904D02*
X263416666Y-172336666D01*
X263226190Y-172241428D01*
X262940476Y-172241428D01*
X262750000Y-172336666D01*
X262654761Y-172527142D01*
X262654761Y-173574761D01*
X261892857Y-172241428D02*
X261416666Y-173574761D01*
X260940476Y-172241428D02*
X261416666Y-173574761D01*
X261607142Y-174050952D01*
X261702380Y-174146190D01*
X261892857Y-174241428D01*
X259892857Y-173574761D02*
X260083333Y-173479523D01*
X260178571Y-173384285D01*
X260273809Y-173193809D01*
X260273809Y-172622380D01*
X260178571Y-172431904D01*
X260083333Y-172336666D01*
X259892857Y-172241428D01*
X259607142Y-172241428D01*
X259416666Y-172336666D01*
X259321428Y-172431904D01*
X259226190Y-172622380D01*
X259226190Y-173193809D01*
X259321428Y-173384285D01*
X259416666Y-173479523D01*
X259607142Y-173574761D01*
X259892857Y-173574761D01*
X258369047Y-172241428D02*
X258369047Y-173574761D01*
X258369047Y-172431904D02*
X258273809Y-172336666D01*
X258083333Y-172241428D01*
X257797619Y-172241428D01*
X257607142Y-172336666D01*
X257511904Y-172527142D01*
X257511904Y-173574761D01*
X255797619Y-173479523D02*
X255988095Y-173574761D01*
X256369047Y-173574761D01*
X256559523Y-173479523D01*
X256654761Y-173289047D01*
X256654761Y-172527142D01*
X256559523Y-172336666D01*
X256369047Y-172241428D01*
X255988095Y-172241428D01*
X255797619Y-172336666D01*
X255702380Y-172527142D01*
X255702380Y-172717619D01*
X256654761Y-172908095D01*
X253321428Y-173574761D02*
X253321428Y-172241428D01*
X253321428Y-171574761D02*
X253416666Y-171670000D01*
X253321428Y-171765238D01*
X253226190Y-171670000D01*
X253321428Y-171574761D01*
X253321428Y-171765238D01*
X252464285Y-173479523D02*
X252273809Y-173574761D01*
X251892857Y-173574761D01*
X251702380Y-173479523D01*
X251607142Y-173289047D01*
X251607142Y-173193809D01*
X251702380Y-173003333D01*
X251892857Y-172908095D01*
X252178571Y-172908095D01*
X252369047Y-172812857D01*
X252464285Y-172622380D01*
X252464285Y-172527142D01*
X252369047Y-172336666D01*
X252178571Y-172241428D01*
X251892857Y-172241428D01*
X251702380Y-172336666D01*
X249226190Y-173574761D02*
X249226190Y-172241428D01*
X249226190Y-171574761D02*
X249321428Y-171670000D01*
X249226190Y-171765238D01*
X249130952Y-171670000D01*
X249226190Y-171574761D01*
X249226190Y-171765238D01*
X248273809Y-172241428D02*
X248273809Y-173574761D01*
X248273809Y-172431904D02*
X248178571Y-172336666D01*
X247988095Y-172241428D01*
X247702380Y-172241428D01*
X247511904Y-172336666D01*
X247416666Y-172527142D01*
X247416666Y-173574761D01*
X243797619Y-173384285D02*
X243892857Y-173479523D01*
X244178571Y-173574761D01*
X244369047Y-173574761D01*
X244654761Y-173479523D01*
X244845238Y-173289047D01*
X244940476Y-173098571D01*
X245035714Y-172717619D01*
X245035714Y-172431904D01*
X244940476Y-172050952D01*
X244845238Y-171860476D01*
X244654761Y-171670000D01*
X244369047Y-171574761D01*
X244178571Y-171574761D01*
X243892857Y-171670000D01*
X243797619Y-171765238D01*
X242940476Y-173574761D02*
X242940476Y-171574761D01*
X242083333Y-173574761D02*
X242083333Y-172527142D01*
X242178571Y-172336666D01*
X242369047Y-172241428D01*
X242654761Y-172241428D01*
X242845238Y-172336666D01*
X242940476Y-172431904D01*
X241130952Y-173574761D02*
X241130952Y-172241428D01*
X241130952Y-172622380D02*
X241035714Y-172431904D01*
X240940476Y-172336666D01*
X240750000Y-172241428D01*
X240559523Y-172241428D01*
X239892857Y-173574761D02*
X239892857Y-172241428D01*
X239892857Y-171574761D02*
X239988095Y-171670000D01*
X239892857Y-171765238D01*
X239797619Y-171670000D01*
X239892857Y-171574761D01*
X239892857Y-171765238D01*
X239035714Y-173479523D02*
X238845238Y-173574761D01*
X238464285Y-173574761D01*
X238273809Y-173479523D01*
X238178571Y-173289047D01*
X238178571Y-173193809D01*
X238273809Y-173003333D01*
X238464285Y-172908095D01*
X238750000Y-172908095D01*
X238940476Y-172812857D01*
X239035714Y-172622380D01*
X239035714Y-172527142D01*
X238940476Y-172336666D01*
X238750000Y-172241428D01*
X238464285Y-172241428D01*
X238273809Y-172336666D01*
X237607142Y-172241428D02*
X236845238Y-172241428D01*
X237321428Y-171574761D02*
X237321428Y-173289047D01*
X237226190Y-173479523D01*
X237035714Y-173574761D01*
X236845238Y-173574761D01*
X236083333Y-173479523D02*
X236083333Y-173574761D01*
X236178571Y-173765238D01*
X236273809Y-173860476D01*
X287178571Y-176794761D02*
X287178571Y-174794761D01*
X286321428Y-176794761D02*
X286321428Y-175747142D01*
X286416666Y-175556666D01*
X286607142Y-175461428D01*
X286892857Y-175461428D01*
X287083333Y-175556666D01*
X287178571Y-175651904D01*
X284607142Y-176699523D02*
X284797619Y-176794761D01*
X285178571Y-176794761D01*
X285369047Y-176699523D01*
X285464285Y-176509047D01*
X285464285Y-175747142D01*
X285369047Y-175556666D01*
X285178571Y-175461428D01*
X284797619Y-175461428D01*
X284607142Y-175556666D01*
X284511904Y-175747142D01*
X284511904Y-175937619D01*
X285464285Y-176128095D01*
X282130952Y-176794761D02*
X282130952Y-175461428D01*
X282130952Y-174794761D02*
X282226190Y-174890000D01*
X282130952Y-174985238D01*
X282035714Y-174890000D01*
X282130952Y-174794761D01*
X282130952Y-174985238D01*
X281273809Y-176699523D02*
X281083333Y-176794761D01*
X280702380Y-176794761D01*
X280511904Y-176699523D01*
X280416666Y-176509047D01*
X280416666Y-176413809D01*
X280511904Y-176223333D01*
X280702380Y-176128095D01*
X280988095Y-176128095D01*
X281178571Y-176032857D01*
X281273809Y-175842380D01*
X281273809Y-175747142D01*
X281178571Y-175556666D01*
X280988095Y-175461428D01*
X280702380Y-175461428D01*
X280511904Y-175556666D01*
X277178571Y-176794761D02*
X277178571Y-175747142D01*
X277273809Y-175556666D01*
X277464285Y-175461428D01*
X277845238Y-175461428D01*
X278035714Y-175556666D01*
X277178571Y-176699523D02*
X277369047Y-176794761D01*
X277845238Y-176794761D01*
X278035714Y-176699523D01*
X278130952Y-176509047D01*
X278130952Y-176318571D01*
X278035714Y-176128095D01*
X277845238Y-176032857D01*
X277369047Y-176032857D01*
X277178571Y-175937619D01*
X274702380Y-175461428D02*
X274702380Y-176794761D01*
X274702380Y-175651904D02*
X274607142Y-175556666D01*
X274416666Y-175461428D01*
X274130952Y-175461428D01*
X273940476Y-175556666D01*
X273845238Y-175747142D01*
X273845238Y-176794761D01*
X272130952Y-176699523D02*
X272321428Y-176794761D01*
X272702380Y-176794761D01*
X272892857Y-176699523D01*
X272988095Y-176509047D01*
X272988095Y-175747142D01*
X272892857Y-175556666D01*
X272702380Y-175461428D01*
X272321428Y-175461428D01*
X272130952Y-175556666D01*
X272035714Y-175747142D01*
X272035714Y-175937619D01*
X272988095Y-176128095D01*
X271369047Y-175461428D02*
X270988095Y-176794761D01*
X270607142Y-175842380D01*
X270226190Y-176794761D01*
X269845238Y-175461428D01*
X266702380Y-176699523D02*
X266892857Y-176794761D01*
X267273809Y-176794761D01*
X267464285Y-176699523D01*
X267559523Y-176604285D01*
X267654761Y-176413809D01*
X267654761Y-175842380D01*
X267559523Y-175651904D01*
X267464285Y-175556666D01*
X267273809Y-175461428D01*
X266892857Y-175461428D01*
X266702380Y-175556666D01*
X265845238Y-176794761D02*
X265845238Y-175461428D01*
X265845238Y-175842380D02*
X265750000Y-175651904D01*
X265654761Y-175556666D01*
X265464285Y-175461428D01*
X265273809Y-175461428D01*
X263845238Y-176699523D02*
X264035714Y-176794761D01*
X264416666Y-176794761D01*
X264607142Y-176699523D01*
X264702380Y-176509047D01*
X264702380Y-175747142D01*
X264607142Y-175556666D01*
X264416666Y-175461428D01*
X264035714Y-175461428D01*
X263845238Y-175556666D01*
X263750000Y-175747142D01*
X263750000Y-175937619D01*
X264702380Y-176128095D01*
X262035714Y-176794761D02*
X262035714Y-175747142D01*
X262130952Y-175556666D01*
X262321428Y-175461428D01*
X262702380Y-175461428D01*
X262892857Y-175556666D01*
X262035714Y-176699523D02*
X262226190Y-176794761D01*
X262702380Y-176794761D01*
X262892857Y-176699523D01*
X262988095Y-176509047D01*
X262988095Y-176318571D01*
X262892857Y-176128095D01*
X262702380Y-176032857D01*
X262226190Y-176032857D01*
X262035714Y-175937619D01*
X261369047Y-175461428D02*
X260607142Y-175461428D01*
X261083333Y-174794761D02*
X261083333Y-176509047D01*
X260988095Y-176699523D01*
X260797619Y-176794761D01*
X260607142Y-176794761D01*
X259940476Y-176794761D02*
X259940476Y-175461428D01*
X259940476Y-174794761D02*
X260035714Y-174890000D01*
X259940476Y-174985238D01*
X259845238Y-174890000D01*
X259940476Y-174794761D01*
X259940476Y-174985238D01*
X258702380Y-176794761D02*
X258892857Y-176699523D01*
X258988095Y-176604285D01*
X259083333Y-176413809D01*
X259083333Y-175842380D01*
X258988095Y-175651904D01*
X258892857Y-175556666D01*
X258702380Y-175461428D01*
X258416666Y-175461428D01*
X258226190Y-175556666D01*
X258130952Y-175651904D01*
X258035714Y-175842380D01*
X258035714Y-176413809D01*
X258130952Y-176604285D01*
X258226190Y-176699523D01*
X258416666Y-176794761D01*
X258702380Y-176794761D01*
X257178571Y-175461428D02*
X257178571Y-176794761D01*
X257178571Y-175651904D02*
X257083333Y-175556666D01*
X256892857Y-175461428D01*
X256607142Y-175461428D01*
X256416666Y-175556666D01*
X256321428Y-175747142D01*
X256321428Y-176794761D01*
X255369047Y-176604285D02*
X255273809Y-176699523D01*
X255369047Y-176794761D01*
X255464285Y-176699523D01*
X255369047Y-176604285D01*
X255369047Y-176794761D01*
X253178571Y-174794761D02*
X252035714Y-174794761D01*
X252607142Y-176794761D02*
X252607142Y-174794761D01*
X251369047Y-176794761D02*
X251369047Y-174794761D01*
X250511904Y-176794761D02*
X250511904Y-175747142D01*
X250607142Y-175556666D01*
X250797619Y-175461428D01*
X251083333Y-175461428D01*
X251273809Y-175556666D01*
X251369047Y-175651904D01*
X248797619Y-176699523D02*
X248988095Y-176794761D01*
X249369047Y-176794761D01*
X249559523Y-176699523D01*
X249654761Y-176509047D01*
X249654761Y-175747142D01*
X249559523Y-175556666D01*
X249369047Y-175461428D01*
X248988095Y-175461428D01*
X248797619Y-175556666D01*
X248702380Y-175747142D01*
X248702380Y-175937619D01*
X249654761Y-176128095D01*
X246035714Y-176794761D02*
X246226190Y-176699523D01*
X246321428Y-176604285D01*
X246416666Y-176413809D01*
X246416666Y-175842380D01*
X246321428Y-175651904D01*
X246226190Y-175556666D01*
X246035714Y-175461428D01*
X245750000Y-175461428D01*
X245559523Y-175556666D01*
X245464285Y-175651904D01*
X245369047Y-175842380D01*
X245369047Y-176413809D01*
X245464285Y-176604285D01*
X245559523Y-176699523D01*
X245750000Y-176794761D01*
X246035714Y-176794761D01*
X244226190Y-176794761D02*
X244416666Y-176699523D01*
X244511904Y-176509047D01*
X244511904Y-174794761D01*
X242607142Y-176794761D02*
X242607142Y-174794761D01*
X242607142Y-176699523D02*
X242797619Y-176794761D01*
X243178571Y-176794761D01*
X243369047Y-176699523D01*
X243464285Y-176604285D01*
X243559523Y-176413809D01*
X243559523Y-175842380D01*
X243464285Y-175651904D01*
X243369047Y-175556666D01*
X243178571Y-175461428D01*
X242797619Y-175461428D01*
X242607142Y-175556666D01*
X240130952Y-176794761D02*
X240130952Y-174794761D01*
X239273809Y-176794761D02*
X239273809Y-175747142D01*
X239369047Y-175556666D01*
X239559523Y-175461428D01*
X239845238Y-175461428D01*
X240035714Y-175556666D01*
X240130952Y-175651904D01*
X237464285Y-176794761D02*
X237464285Y-175747142D01*
X237559523Y-175556666D01*
X237750000Y-175461428D01*
X238130952Y-175461428D01*
X238321428Y-175556666D01*
X237464285Y-176699523D02*
X237654761Y-176794761D01*
X238130952Y-176794761D01*
X238321428Y-176699523D01*
X238416666Y-176509047D01*
X238416666Y-176318571D01*
X238321428Y-176128095D01*
X238130952Y-176032857D01*
X237654761Y-176032857D01*
X237464285Y-175937619D01*
X236607142Y-176699523D02*
X236416666Y-176794761D01*
X236035714Y-176794761D01*
X235845238Y-176699523D01*
X235750000Y-176509047D01*
X235750000Y-176413809D01*
X235845238Y-176223333D01*
X236035714Y-176128095D01*
X236321428Y-176128095D01*
X236511904Y-176032857D01*
X236607142Y-175842380D01*
X236607142Y-175747142D01*
X236511904Y-175556666D01*
X236321428Y-175461428D01*
X236035714Y-175461428D01*
X235845238Y-175556666D01*
X293321428Y-178681428D02*
X293321428Y-180681428D01*
X293321428Y-178776666D02*
X293130952Y-178681428D01*
X292750000Y-178681428D01*
X292559523Y-178776666D01*
X292464285Y-178871904D01*
X292369047Y-179062380D01*
X292369047Y-179633809D01*
X292464285Y-179824285D01*
X292559523Y-179919523D01*
X292750000Y-180014761D01*
X293130952Y-180014761D01*
X293321428Y-179919523D01*
X290654761Y-180014761D02*
X290654761Y-178967142D01*
X290750000Y-178776666D01*
X290940476Y-178681428D01*
X291321428Y-178681428D01*
X291511904Y-178776666D01*
X290654761Y-179919523D02*
X290845238Y-180014761D01*
X291321428Y-180014761D01*
X291511904Y-179919523D01*
X291607142Y-179729047D01*
X291607142Y-179538571D01*
X291511904Y-179348095D01*
X291321428Y-179252857D01*
X290845238Y-179252857D01*
X290654761Y-179157619D01*
X289797619Y-179919523D02*
X289607142Y-180014761D01*
X289226190Y-180014761D01*
X289035714Y-179919523D01*
X288940476Y-179729047D01*
X288940476Y-179633809D01*
X289035714Y-179443333D01*
X289226190Y-179348095D01*
X289511904Y-179348095D01*
X289702380Y-179252857D01*
X289797619Y-179062380D01*
X289797619Y-178967142D01*
X289702380Y-178776666D01*
X289511904Y-178681428D01*
X289226190Y-178681428D01*
X289035714Y-178776666D01*
X288178571Y-179919523D02*
X287988095Y-180014761D01*
X287607142Y-180014761D01*
X287416666Y-179919523D01*
X287321428Y-179729047D01*
X287321428Y-179633809D01*
X287416666Y-179443333D01*
X287607142Y-179348095D01*
X287892857Y-179348095D01*
X288083333Y-179252857D01*
X288178571Y-179062380D01*
X288178571Y-178967142D01*
X288083333Y-178776666D01*
X287892857Y-178681428D01*
X287607142Y-178681428D01*
X287416666Y-178776666D01*
X285702380Y-179919523D02*
X285892857Y-180014761D01*
X286273809Y-180014761D01*
X286464285Y-179919523D01*
X286559523Y-179729047D01*
X286559523Y-178967142D01*
X286464285Y-178776666D01*
X286273809Y-178681428D01*
X285892857Y-178681428D01*
X285702380Y-178776666D01*
X285607142Y-178967142D01*
X285607142Y-179157619D01*
X286559523Y-179348095D01*
X283892857Y-180014761D02*
X283892857Y-178014761D01*
X283892857Y-179919523D02*
X284083333Y-180014761D01*
X284464285Y-180014761D01*
X284654761Y-179919523D01*
X284750000Y-179824285D01*
X284845238Y-179633809D01*
X284845238Y-179062380D01*
X284750000Y-178871904D01*
X284654761Y-178776666D01*
X284464285Y-178681428D01*
X284083333Y-178681428D01*
X283892857Y-178776666D01*
X280559523Y-180014761D02*
X280559523Y-178967142D01*
X280654761Y-178776666D01*
X280845238Y-178681428D01*
X281226190Y-178681428D01*
X281416666Y-178776666D01*
X280559523Y-179919523D02*
X280750000Y-180014761D01*
X281226190Y-180014761D01*
X281416666Y-179919523D01*
X281511904Y-179729047D01*
X281511904Y-179538571D01*
X281416666Y-179348095D01*
X281226190Y-179252857D01*
X280750000Y-179252857D01*
X280559523Y-179157619D01*
X279797619Y-178681428D02*
X279416666Y-180014761D01*
X279035714Y-179062380D01*
X278654761Y-180014761D01*
X278273809Y-178681428D01*
X276654761Y-180014761D02*
X276654761Y-178967142D01*
X276750000Y-178776666D01*
X276940476Y-178681428D01*
X277321428Y-178681428D01*
X277511904Y-178776666D01*
X276654761Y-179919523D02*
X276845238Y-180014761D01*
X277321428Y-180014761D01*
X277511904Y-179919523D01*
X277607142Y-179729047D01*
X277607142Y-179538571D01*
X277511904Y-179348095D01*
X277321428Y-179252857D01*
X276845238Y-179252857D01*
X276654761Y-179157619D01*
X275892857Y-178681428D02*
X275416666Y-180014761D01*
X274940476Y-178681428D02*
X275416666Y-180014761D01*
X275607142Y-180490952D01*
X275702380Y-180586190D01*
X275892857Y-180681428D01*
X274083333Y-179919523D02*
X274083333Y-180014761D01*
X274178571Y-180205238D01*
X274273809Y-180300476D01*
X274178571Y-178776666D02*
X274083333Y-178871904D01*
X274178571Y-178967142D01*
X274273809Y-178871904D01*
X274178571Y-178776666D01*
X274178571Y-178967142D01*
X271702380Y-180014761D02*
X271702380Y-178014761D01*
X271702380Y-178776666D02*
X271511904Y-178681428D01*
X271130952Y-178681428D01*
X270940476Y-178776666D01*
X270845238Y-178871904D01*
X270750000Y-179062380D01*
X270750000Y-179633809D01*
X270845238Y-179824285D01*
X270940476Y-179919523D01*
X271130952Y-180014761D01*
X271511904Y-180014761D01*
X271702380Y-179919523D01*
X269130952Y-179919523D02*
X269321428Y-180014761D01*
X269702380Y-180014761D01*
X269892857Y-179919523D01*
X269988095Y-179729047D01*
X269988095Y-178967142D01*
X269892857Y-178776666D01*
X269702380Y-178681428D01*
X269321428Y-178681428D01*
X269130952Y-178776666D01*
X269035714Y-178967142D01*
X269035714Y-179157619D01*
X269988095Y-179348095D01*
X268178571Y-180014761D02*
X268178571Y-178014761D01*
X267321428Y-180014761D02*
X267321428Y-178967142D01*
X267416666Y-178776666D01*
X267607142Y-178681428D01*
X267892857Y-178681428D01*
X268083333Y-178776666D01*
X268178571Y-178871904D01*
X266083333Y-180014761D02*
X266273809Y-179919523D01*
X266369047Y-179824285D01*
X266464285Y-179633809D01*
X266464285Y-179062380D01*
X266369047Y-178871904D01*
X266273809Y-178776666D01*
X266083333Y-178681428D01*
X265797619Y-178681428D01*
X265607142Y-178776666D01*
X265511904Y-178871904D01*
X265416666Y-179062380D01*
X265416666Y-179633809D01*
X265511904Y-179824285D01*
X265607142Y-179919523D01*
X265797619Y-180014761D01*
X266083333Y-180014761D01*
X264273809Y-180014761D02*
X264464285Y-179919523D01*
X264559523Y-179729047D01*
X264559523Y-178014761D01*
X262654761Y-180014761D02*
X262654761Y-178014761D01*
X262654761Y-179919523D02*
X262845238Y-180014761D01*
X263226190Y-180014761D01*
X263416666Y-179919523D01*
X263511904Y-179824285D01*
X263607142Y-179633809D01*
X263607142Y-179062380D01*
X263511904Y-178871904D01*
X263416666Y-178776666D01*
X263226190Y-178681428D01*
X262845238Y-178681428D01*
X262654761Y-178776666D01*
X261607142Y-179919523D02*
X261607142Y-180014761D01*
X261702380Y-180205238D01*
X261797619Y-180300476D01*
X259511904Y-178681428D02*
X258750000Y-178681428D01*
X259226190Y-178014761D02*
X259226190Y-179729047D01*
X259130952Y-179919523D01*
X258940476Y-180014761D01*
X258750000Y-180014761D01*
X258083333Y-180014761D02*
X258083333Y-178014761D01*
X257226190Y-180014761D02*
X257226190Y-178967142D01*
X257321428Y-178776666D01*
X257511904Y-178681428D01*
X257797619Y-178681428D01*
X257988095Y-178776666D01*
X258083333Y-178871904D01*
X255511904Y-179919523D02*
X255702380Y-180014761D01*
X256083333Y-180014761D01*
X256273809Y-179919523D01*
X256369047Y-179729047D01*
X256369047Y-178967142D01*
X256273809Y-178776666D01*
X256083333Y-178681428D01*
X255702380Y-178681428D01*
X255511904Y-178776666D01*
X255416666Y-178967142D01*
X255416666Y-179157619D01*
X256369047Y-179348095D01*
X253035714Y-178681428D02*
X253035714Y-180014761D01*
X253035714Y-178871904D02*
X252940476Y-178776666D01*
X252750000Y-178681428D01*
X252464285Y-178681428D01*
X252273809Y-178776666D01*
X252178571Y-178967142D01*
X252178571Y-180014761D01*
X250464285Y-179919523D02*
X250654761Y-180014761D01*
X251035714Y-180014761D01*
X251226190Y-179919523D01*
X251321428Y-179729047D01*
X251321428Y-178967142D01*
X251226190Y-178776666D01*
X251035714Y-178681428D01*
X250654761Y-178681428D01*
X250464285Y-178776666D01*
X250369047Y-178967142D01*
X250369047Y-179157619D01*
X251321428Y-179348095D01*
X249702380Y-178681428D02*
X249321428Y-180014761D01*
X248940476Y-179062380D01*
X248559523Y-180014761D01*
X248178571Y-178681428D01*
X245892857Y-180014761D02*
X245892857Y-178014761D01*
X245035714Y-180014761D02*
X245035714Y-178967142D01*
X245130952Y-178776666D01*
X245321428Y-178681428D01*
X245607142Y-178681428D01*
X245797619Y-178776666D01*
X245892857Y-178871904D01*
X243226190Y-180014761D02*
X243226190Y-178967142D01*
X243321428Y-178776666D01*
X243511904Y-178681428D01*
X243892857Y-178681428D01*
X244083333Y-178776666D01*
X243226190Y-179919523D02*
X243416666Y-180014761D01*
X243892857Y-180014761D01*
X244083333Y-179919523D01*
X244178571Y-179729047D01*
X244178571Y-179538571D01*
X244083333Y-179348095D01*
X243892857Y-179252857D01*
X243416666Y-179252857D01*
X243226190Y-179157619D01*
X242369047Y-179919523D02*
X242178571Y-180014761D01*
X241797619Y-180014761D01*
X241607142Y-179919523D01*
X241511904Y-179729047D01*
X241511904Y-179633809D01*
X241607142Y-179443333D01*
X241797619Y-179348095D01*
X242083333Y-179348095D01*
X242273809Y-179252857D01*
X242369047Y-179062380D01*
X242369047Y-178967142D01*
X242273809Y-178776666D01*
X242083333Y-178681428D01*
X241797619Y-178681428D01*
X241607142Y-178776666D01*
X238273809Y-179919523D02*
X238464285Y-180014761D01*
X238845238Y-180014761D01*
X239035714Y-179919523D01*
X239130952Y-179824285D01*
X239226190Y-179633809D01*
X239226190Y-179062380D01*
X239130952Y-178871904D01*
X239035714Y-178776666D01*
X238845238Y-178681428D01*
X238464285Y-178681428D01*
X238273809Y-178776666D01*
X237130952Y-180014761D02*
X237321428Y-179919523D01*
X237416666Y-179824285D01*
X237511904Y-179633809D01*
X237511904Y-179062380D01*
X237416666Y-178871904D01*
X237321428Y-178776666D01*
X237130952Y-178681428D01*
X236845238Y-178681428D01*
X236654761Y-178776666D01*
X236559523Y-178871904D01*
X236464285Y-179062380D01*
X236464285Y-179633809D01*
X236559523Y-179824285D01*
X236654761Y-179919523D01*
X236845238Y-180014761D01*
X237130952Y-180014761D01*
X235607142Y-180014761D02*
X235607142Y-178681428D01*
X235607142Y-178871904D02*
X235511904Y-178776666D01*
X235321428Y-178681428D01*
X235035714Y-178681428D01*
X234845238Y-178776666D01*
X234750000Y-178967142D01*
X234750000Y-180014761D01*
X234750000Y-178967142D02*
X234654761Y-178776666D01*
X234464285Y-178681428D01*
X234178571Y-178681428D01*
X233988095Y-178776666D01*
X233892857Y-178967142D01*
X233892857Y-180014761D01*
X232178571Y-179919523D02*
X232369047Y-180014761D01*
X232750000Y-180014761D01*
X232940476Y-179919523D01*
X233035714Y-179729047D01*
X233035714Y-178967142D01*
X232940476Y-178776666D01*
X232750000Y-178681428D01*
X232369047Y-178681428D01*
X232178571Y-178776666D01*
X232083333Y-178967142D01*
X232083333Y-179157619D01*
X233035714Y-179348095D01*
X231226190Y-179824285D02*
X231130952Y-179919523D01*
X231226190Y-180014761D01*
X231321428Y-179919523D01*
X231226190Y-179824285D01*
X231226190Y-180014761D01*
X230369047Y-178014761D02*
X230369047Y-178395714D01*
X229607142Y-178014761D02*
X229607142Y-178395714D01*
X276559523Y-182472857D02*
X275035714Y-182472857D01*
X272654761Y-181425238D02*
X272559523Y-181330000D01*
X272369047Y-181234761D01*
X271892857Y-181234761D01*
X271702380Y-181330000D01*
X271607142Y-181425238D01*
X271511904Y-181615714D01*
X271511904Y-181806190D01*
X271607142Y-182091904D01*
X272750000Y-183234761D01*
X271511904Y-183234761D01*
X267988095Y-183044285D02*
X268083333Y-183139523D01*
X268369047Y-183234761D01*
X268559523Y-183234761D01*
X268845238Y-183139523D01*
X269035714Y-182949047D01*
X269130952Y-182758571D01*
X269226190Y-182377619D01*
X269226190Y-182091904D01*
X269130952Y-181710952D01*
X269035714Y-181520476D01*
X268845238Y-181330000D01*
X268559523Y-181234761D01*
X268369047Y-181234761D01*
X268083333Y-181330000D01*
X267988095Y-181425238D01*
X266845238Y-183234761D02*
X267035714Y-183139523D01*
X267130952Y-183044285D01*
X267226190Y-182853809D01*
X267226190Y-182282380D01*
X267130952Y-182091904D01*
X267035714Y-181996666D01*
X266845238Y-181901428D01*
X266559523Y-181901428D01*
X266369047Y-181996666D01*
X266273809Y-182091904D01*
X266178571Y-182282380D01*
X266178571Y-182853809D01*
X266273809Y-183044285D01*
X266369047Y-183139523D01*
X266559523Y-183234761D01*
X266845238Y-183234761D01*
X265321428Y-183234761D02*
X265321428Y-181901428D01*
X265321428Y-182282380D02*
X265226190Y-182091904D01*
X265130952Y-181996666D01*
X264940476Y-181901428D01*
X264750000Y-181901428D01*
X264083333Y-183234761D02*
X264083333Y-181901428D01*
X264083333Y-181234761D02*
X264178571Y-181330000D01*
X264083333Y-181425238D01*
X263988095Y-181330000D01*
X264083333Y-181234761D01*
X264083333Y-181425238D01*
X263130952Y-181901428D02*
X263130952Y-183234761D01*
X263130952Y-182091904D02*
X263035714Y-181996666D01*
X262845238Y-181901428D01*
X262559523Y-181901428D01*
X262369047Y-181996666D01*
X262273809Y-182187142D01*
X262273809Y-183234761D01*
X261607142Y-181901428D02*
X260845238Y-181901428D01*
X261321428Y-181234761D02*
X261321428Y-182949047D01*
X261226190Y-183139523D01*
X261035714Y-183234761D01*
X260845238Y-183234761D01*
X260178571Y-183234761D02*
X260178571Y-181234761D01*
X259321428Y-183234761D02*
X259321428Y-182187142D01*
X259416666Y-181996666D01*
X259607142Y-181901428D01*
X259892857Y-181901428D01*
X260083333Y-181996666D01*
X260178571Y-182091904D01*
X258369047Y-183234761D02*
X258369047Y-181901428D01*
X258369047Y-181234761D02*
X258464285Y-181330000D01*
X258369047Y-181425238D01*
X258273809Y-181330000D01*
X258369047Y-181234761D01*
X258369047Y-181425238D01*
X256559523Y-183234761D02*
X256559523Y-182187142D01*
X256654761Y-181996666D01*
X256845238Y-181901428D01*
X257226190Y-181901428D01*
X257416666Y-181996666D01*
X256559523Y-183139523D02*
X256750000Y-183234761D01*
X257226190Y-183234761D01*
X257416666Y-183139523D01*
X257511904Y-182949047D01*
X257511904Y-182758571D01*
X257416666Y-182568095D01*
X257226190Y-182472857D01*
X256750000Y-182472857D01*
X256559523Y-182377619D01*
X255607142Y-181901428D02*
X255607142Y-183234761D01*
X255607142Y-182091904D02*
X255511904Y-181996666D01*
X255321428Y-181901428D01*
X255035714Y-181901428D01*
X254845238Y-181996666D01*
X254750000Y-182187142D01*
X254750000Y-183234761D01*
X253892857Y-183139523D02*
X253702380Y-183234761D01*
X253321428Y-183234761D01*
X253130952Y-183139523D01*
X253035714Y-182949047D01*
X253035714Y-182853809D01*
X253130952Y-182663333D01*
X253321428Y-182568095D01*
X253607142Y-182568095D01*
X253797619Y-182472857D01*
X253892857Y-182282380D01*
X253892857Y-182187142D01*
X253797619Y-181996666D01*
X253607142Y-181901428D01*
X253321428Y-181901428D01*
X253130952Y-181996666D01*
X249702380Y-181234761D02*
X250654761Y-181234761D01*
X250750000Y-182187142D01*
X250654761Y-182091904D01*
X250464285Y-181996666D01*
X249988095Y-181996666D01*
X249797619Y-182091904D01*
X249702380Y-182187142D01*
X249607142Y-182377619D01*
X249607142Y-182853809D01*
X249702380Y-183044285D01*
X249797619Y-183139523D01*
X249988095Y-183234761D01*
X250464285Y-183234761D01*
X250654761Y-183139523D01*
X250750000Y-183044285D01*
X248750000Y-183044285D02*
X248654761Y-183139523D01*
X248750000Y-183234761D01*
X248845238Y-183139523D01*
X248750000Y-183044285D01*
X248750000Y-183234761D01*
X248750000Y-181996666D02*
X248654761Y-182091904D01*
X248750000Y-182187142D01*
X248845238Y-182091904D01*
X248750000Y-181996666D01*
X248750000Y-182187142D01*
X246750000Y-183234761D02*
X247892857Y-183234761D01*
X247321428Y-183234761D02*
X247321428Y-181234761D01*
X247511904Y-181520476D01*
X247702380Y-181710952D01*
X247892857Y-181806190D01*
X246083333Y-181234761D02*
X244750000Y-181234761D01*
X245607142Y-183234761D01*
D11*
%TO.C,R11*%
X270642857Y-123602380D02*
X270976190Y-123126190D01*
X271214285Y-123602380D02*
X271214285Y-122602380D01*
X270833333Y-122602380D01*
X270738095Y-122650000D01*
X270690476Y-122697619D01*
X270642857Y-122792857D01*
X270642857Y-122935714D01*
X270690476Y-123030952D01*
X270738095Y-123078571D01*
X270833333Y-123126190D01*
X271214285Y-123126190D01*
X269690476Y-123602380D02*
X270261904Y-123602380D01*
X269976190Y-123602380D02*
X269976190Y-122602380D01*
X270071428Y-122745238D01*
X270166666Y-122840476D01*
X270261904Y-122888095D01*
X268738095Y-123602380D02*
X269309523Y-123602380D01*
X269023809Y-123602380D02*
X269023809Y-122602380D01*
X269119047Y-122745238D01*
X269214285Y-122840476D01*
X269309523Y-122888095D01*
%TO.C,R5*%
X244666666Y-127802380D02*
X245000000Y-127326190D01*
X245238095Y-127802380D02*
X245238095Y-126802380D01*
X244857142Y-126802380D01*
X244761904Y-126850000D01*
X244714285Y-126897619D01*
X244666666Y-126992857D01*
X244666666Y-127135714D01*
X244714285Y-127230952D01*
X244761904Y-127278571D01*
X244857142Y-127326190D01*
X245238095Y-127326190D01*
X243761904Y-126802380D02*
X244238095Y-126802380D01*
X244285714Y-127278571D01*
X244238095Y-127230952D01*
X244142857Y-127183333D01*
X243904761Y-127183333D01*
X243809523Y-127230952D01*
X243761904Y-127278571D01*
X243714285Y-127373809D01*
X243714285Y-127611904D01*
X243761904Y-127707142D01*
X243809523Y-127754761D01*
X243904761Y-127802380D01*
X244142857Y-127802380D01*
X244238095Y-127754761D01*
X244285714Y-127707142D01*
%TO.C,C3*%
X216166666Y-149357142D02*
X216214285Y-149404761D01*
X216357142Y-149452380D01*
X216452380Y-149452380D01*
X216595238Y-149404761D01*
X216690476Y-149309523D01*
X216738095Y-149214285D01*
X216785714Y-149023809D01*
X216785714Y-148880952D01*
X216738095Y-148690476D01*
X216690476Y-148595238D01*
X216595238Y-148500000D01*
X216452380Y-148452380D01*
X216357142Y-148452380D01*
X216214285Y-148500000D01*
X216166666Y-148547619D01*
X215833333Y-148452380D02*
X215214285Y-148452380D01*
X215547619Y-148833333D01*
X215404761Y-148833333D01*
X215309523Y-148880952D01*
X215261904Y-148928571D01*
X215214285Y-149023809D01*
X215214285Y-149261904D01*
X215261904Y-149357142D01*
X215309523Y-149404761D01*
X215404761Y-149452380D01*
X215690476Y-149452380D01*
X215785714Y-149404761D01*
X215833333Y-149357142D01*
%TO.C,R1*%
X159852380Y-134333333D02*
X159376190Y-134000000D01*
X159852380Y-133761904D02*
X158852380Y-133761904D01*
X158852380Y-134142857D01*
X158900000Y-134238095D01*
X158947619Y-134285714D01*
X159042857Y-134333333D01*
X159185714Y-134333333D01*
X159280952Y-134285714D01*
X159328571Y-134238095D01*
X159376190Y-134142857D01*
X159376190Y-133761904D01*
X159852380Y-135285714D02*
X159852380Y-134714285D01*
X159852380Y-135000000D02*
X158852380Y-135000000D01*
X158995238Y-134904761D01*
X159090476Y-134809523D01*
X159138095Y-134714285D01*
%TO.C,C6*%
X133679642Y-142583333D02*
X133727261Y-142535714D01*
X133774880Y-142392857D01*
X133774880Y-142297619D01*
X133727261Y-142154761D01*
X133632023Y-142059523D01*
X133536785Y-142011904D01*
X133346309Y-141964285D01*
X133203452Y-141964285D01*
X133012976Y-142011904D01*
X132917738Y-142059523D01*
X132822500Y-142154761D01*
X132774880Y-142297619D01*
X132774880Y-142392857D01*
X132822500Y-142535714D01*
X132870119Y-142583333D01*
X132774880Y-143440476D02*
X132774880Y-143250000D01*
X132822500Y-143154761D01*
X132870119Y-143107142D01*
X133012976Y-143011904D01*
X133203452Y-142964285D01*
X133584404Y-142964285D01*
X133679642Y-143011904D01*
X133727261Y-143059523D01*
X133774880Y-143154761D01*
X133774880Y-143345238D01*
X133727261Y-143440476D01*
X133679642Y-143488095D01*
X133584404Y-143535714D01*
X133346309Y-143535714D01*
X133251071Y-143488095D01*
X133203452Y-143440476D01*
X133155833Y-143345238D01*
X133155833Y-143154761D01*
X133203452Y-143059523D01*
X133251071Y-143011904D01*
X133346309Y-142964285D01*
%TO.C,R15*%
X157452380Y-84157142D02*
X156976190Y-83823809D01*
X157452380Y-83585714D02*
X156452380Y-83585714D01*
X156452380Y-83966666D01*
X156500000Y-84061904D01*
X156547619Y-84109523D01*
X156642857Y-84157142D01*
X156785714Y-84157142D01*
X156880952Y-84109523D01*
X156928571Y-84061904D01*
X156976190Y-83966666D01*
X156976190Y-83585714D01*
X157452380Y-85109523D02*
X157452380Y-84538095D01*
X157452380Y-84823809D02*
X156452380Y-84823809D01*
X156595238Y-84728571D01*
X156690476Y-84633333D01*
X156738095Y-84538095D01*
X156452380Y-86014285D02*
X156452380Y-85538095D01*
X156928571Y-85490476D01*
X156880952Y-85538095D01*
X156833333Y-85633333D01*
X156833333Y-85871428D01*
X156880952Y-85966666D01*
X156928571Y-86014285D01*
X157023809Y-86061904D01*
X157261904Y-86061904D01*
X157357142Y-86014285D01*
X157404761Y-85966666D01*
X157452380Y-85871428D01*
X157452380Y-85633333D01*
X157404761Y-85538095D01*
X157357142Y-85490476D01*
%TO.C,R14*%
X272602380Y-127457142D02*
X272126190Y-127123809D01*
X272602380Y-126885714D02*
X271602380Y-126885714D01*
X271602380Y-127266666D01*
X271650000Y-127361904D01*
X271697619Y-127409523D01*
X271792857Y-127457142D01*
X271935714Y-127457142D01*
X272030952Y-127409523D01*
X272078571Y-127361904D01*
X272126190Y-127266666D01*
X272126190Y-126885714D01*
X272602380Y-128409523D02*
X272602380Y-127838095D01*
X272602380Y-128123809D02*
X271602380Y-128123809D01*
X271745238Y-128028571D01*
X271840476Y-127933333D01*
X271888095Y-127838095D01*
X271935714Y-129266666D02*
X272602380Y-129266666D01*
X271554761Y-129028571D02*
X272269047Y-128790476D01*
X272269047Y-129409523D01*
%TO.C,R7*%
X214802380Y-120833333D02*
X214326190Y-120500000D01*
X214802380Y-120261904D02*
X213802380Y-120261904D01*
X213802380Y-120642857D01*
X213850000Y-120738095D01*
X213897619Y-120785714D01*
X213992857Y-120833333D01*
X214135714Y-120833333D01*
X214230952Y-120785714D01*
X214278571Y-120738095D01*
X214326190Y-120642857D01*
X214326190Y-120261904D01*
X213802380Y-121166666D02*
X213802380Y-121833333D01*
X214802380Y-121404761D01*
%TO.C,C1*%
X218566666Y-149357142D02*
X218614285Y-149404761D01*
X218757142Y-149452380D01*
X218852380Y-149452380D01*
X218995238Y-149404761D01*
X219090476Y-149309523D01*
X219138095Y-149214285D01*
X219185714Y-149023809D01*
X219185714Y-148880952D01*
X219138095Y-148690476D01*
X219090476Y-148595238D01*
X218995238Y-148500000D01*
X218852380Y-148452380D01*
X218757142Y-148452380D01*
X218614285Y-148500000D01*
X218566666Y-148547619D01*
X217614285Y-149452380D02*
X218185714Y-149452380D01*
X217900000Y-149452380D02*
X217900000Y-148452380D01*
X217995238Y-148595238D01*
X218090476Y-148690476D01*
X218185714Y-148738095D01*
%TO.C,R8*%
X216166666Y-141702380D02*
X216500000Y-141226190D01*
X216738095Y-141702380D02*
X216738095Y-140702380D01*
X216357142Y-140702380D01*
X216261904Y-140750000D01*
X216214285Y-140797619D01*
X216166666Y-140892857D01*
X216166666Y-141035714D01*
X216214285Y-141130952D01*
X216261904Y-141178571D01*
X216357142Y-141226190D01*
X216738095Y-141226190D01*
X215595238Y-141130952D02*
X215690476Y-141083333D01*
X215738095Y-141035714D01*
X215785714Y-140940476D01*
X215785714Y-140892857D01*
X215738095Y-140797619D01*
X215690476Y-140750000D01*
X215595238Y-140702380D01*
X215404761Y-140702380D01*
X215309523Y-140750000D01*
X215261904Y-140797619D01*
X215214285Y-140892857D01*
X215214285Y-140940476D01*
X215261904Y-141035714D01*
X215309523Y-141083333D01*
X215404761Y-141130952D01*
X215595238Y-141130952D01*
X215690476Y-141178571D01*
X215738095Y-141226190D01*
X215785714Y-141321428D01*
X215785714Y-141511904D01*
X215738095Y-141607142D01*
X215690476Y-141654761D01*
X215595238Y-141702380D01*
X215404761Y-141702380D01*
X215309523Y-141654761D01*
X215261904Y-141607142D01*
X215214285Y-141511904D01*
X215214285Y-141321428D01*
X215261904Y-141226190D01*
X215309523Y-141178571D01*
X215404761Y-141130952D01*
%TO.C,R6*%
X244666666Y-122802380D02*
X245000000Y-122326190D01*
X245238095Y-122802380D02*
X245238095Y-121802380D01*
X244857142Y-121802380D01*
X244761904Y-121850000D01*
X244714285Y-121897619D01*
X244666666Y-121992857D01*
X244666666Y-122135714D01*
X244714285Y-122230952D01*
X244761904Y-122278571D01*
X244857142Y-122326190D01*
X245238095Y-122326190D01*
X243809523Y-121802380D02*
X244000000Y-121802380D01*
X244095238Y-121850000D01*
X244142857Y-121897619D01*
X244238095Y-122040476D01*
X244285714Y-122230952D01*
X244285714Y-122611904D01*
X244238095Y-122707142D01*
X244190476Y-122754761D01*
X244095238Y-122802380D01*
X243904761Y-122802380D01*
X243809523Y-122754761D01*
X243761904Y-122707142D01*
X243714285Y-122611904D01*
X243714285Y-122373809D01*
X243761904Y-122278571D01*
X243809523Y-122230952D01*
X243904761Y-122183333D01*
X244095238Y-122183333D01*
X244190476Y-122230952D01*
X244238095Y-122278571D01*
X244285714Y-122373809D01*
%TO.C,C22*%
X148881605Y-129857142D02*
X148929224Y-129904761D01*
X149072081Y-129952380D01*
X149167319Y-129952380D01*
X149310176Y-129904761D01*
X149405414Y-129809523D01*
X149453033Y-129714285D01*
X149500652Y-129523809D01*
X149500652Y-129380952D01*
X149453033Y-129190476D01*
X149405414Y-129095238D01*
X149310176Y-129000000D01*
X149167319Y-128952380D01*
X149072081Y-128952380D01*
X148929224Y-129000000D01*
X148881605Y-129047619D01*
X148500652Y-129047619D02*
X148453033Y-129000000D01*
X148357795Y-128952380D01*
X148119700Y-128952380D01*
X148024462Y-129000000D01*
X147976843Y-129047619D01*
X147929224Y-129142857D01*
X147929224Y-129238095D01*
X147976843Y-129380952D01*
X148548271Y-129952380D01*
X147929224Y-129952380D01*
X147548271Y-129047619D02*
X147500652Y-129000000D01*
X147405414Y-128952380D01*
X147167319Y-128952380D01*
X147072081Y-129000000D01*
X147024462Y-129047619D01*
X146976843Y-129142857D01*
X146976843Y-129238095D01*
X147024462Y-129380952D01*
X147595890Y-129952380D01*
X146976843Y-129952380D01*
%TO.C,C2*%
X272566666Y-143294642D02*
X272614285Y-143342261D01*
X272757142Y-143389880D01*
X272852380Y-143389880D01*
X272995238Y-143342261D01*
X273090476Y-143247023D01*
X273138095Y-143151785D01*
X273185714Y-142961309D01*
X273185714Y-142818452D01*
X273138095Y-142627976D01*
X273090476Y-142532738D01*
X272995238Y-142437500D01*
X272852380Y-142389880D01*
X272757142Y-142389880D01*
X272614285Y-142437500D01*
X272566666Y-142485119D01*
X272185714Y-142485119D02*
X272138095Y-142437500D01*
X272042857Y-142389880D01*
X271804761Y-142389880D01*
X271709523Y-142437500D01*
X271661904Y-142485119D01*
X271614285Y-142580357D01*
X271614285Y-142675595D01*
X271661904Y-142818452D01*
X272233333Y-143389880D01*
X271614285Y-143389880D01*
%TO.C,C10*%
X189442857Y-149157142D02*
X189490476Y-149204761D01*
X189633333Y-149252380D01*
X189728571Y-149252380D01*
X189871428Y-149204761D01*
X189966666Y-149109523D01*
X190014285Y-149014285D01*
X190061904Y-148823809D01*
X190061904Y-148680952D01*
X190014285Y-148490476D01*
X189966666Y-148395238D01*
X189871428Y-148300000D01*
X189728571Y-148252380D01*
X189633333Y-148252380D01*
X189490476Y-148300000D01*
X189442857Y-148347619D01*
X188490476Y-149252380D02*
X189061904Y-149252380D01*
X188776190Y-149252380D02*
X188776190Y-148252380D01*
X188871428Y-148395238D01*
X188966666Y-148490476D01*
X189061904Y-148538095D01*
X187871428Y-148252380D02*
X187776190Y-148252380D01*
X187680952Y-148300000D01*
X187633333Y-148347619D01*
X187585714Y-148442857D01*
X187538095Y-148633333D01*
X187538095Y-148871428D01*
X187585714Y-149061904D01*
X187633333Y-149157142D01*
X187680952Y-149204761D01*
X187776190Y-149252380D01*
X187871428Y-149252380D01*
X187966666Y-149204761D01*
X188014285Y-149157142D01*
X188061904Y-149061904D01*
X188109523Y-148871428D01*
X188109523Y-148633333D01*
X188061904Y-148442857D01*
X188014285Y-148347619D01*
X187966666Y-148300000D01*
X187871428Y-148252380D01*
%TO.C,C4*%
X270166666Y-143357142D02*
X270214285Y-143404761D01*
X270357142Y-143452380D01*
X270452380Y-143452380D01*
X270595238Y-143404761D01*
X270690476Y-143309523D01*
X270738095Y-143214285D01*
X270785714Y-143023809D01*
X270785714Y-142880952D01*
X270738095Y-142690476D01*
X270690476Y-142595238D01*
X270595238Y-142500000D01*
X270452380Y-142452380D01*
X270357142Y-142452380D01*
X270214285Y-142500000D01*
X270166666Y-142547619D01*
X269309523Y-142785714D02*
X269309523Y-143452380D01*
X269547619Y-142404761D02*
X269785714Y-143119047D01*
X269166666Y-143119047D01*
%TO.C,R9*%
X147952380Y-134333333D02*
X147476190Y-134000000D01*
X147952380Y-133761904D02*
X146952380Y-133761904D01*
X146952380Y-134142857D01*
X147000000Y-134238095D01*
X147047619Y-134285714D01*
X147142857Y-134333333D01*
X147285714Y-134333333D01*
X147380952Y-134285714D01*
X147428571Y-134238095D01*
X147476190Y-134142857D01*
X147476190Y-133761904D01*
X147952380Y-134809523D02*
X147952380Y-135000000D01*
X147904761Y-135095238D01*
X147857142Y-135142857D01*
X147714285Y-135238095D01*
X147523809Y-135285714D01*
X147142857Y-135285714D01*
X147047619Y-135238095D01*
X147000000Y-135190476D01*
X146952380Y-135095238D01*
X146952380Y-134904761D01*
X147000000Y-134809523D01*
X147047619Y-134761904D01*
X147142857Y-134714285D01*
X147380952Y-134714285D01*
X147476190Y-134761904D01*
X147523809Y-134809523D01*
X147571428Y-134904761D01*
X147571428Y-135095238D01*
X147523809Y-135190476D01*
X147476190Y-135238095D01*
X147380952Y-135285714D01*
%TO.C,C16*%
X145292857Y-79477142D02*
X145340476Y-79524761D01*
X145483333Y-79572380D01*
X145578571Y-79572380D01*
X145721428Y-79524761D01*
X145816666Y-79429523D01*
X145864285Y-79334285D01*
X145911904Y-79143809D01*
X145911904Y-79000952D01*
X145864285Y-78810476D01*
X145816666Y-78715238D01*
X145721428Y-78620000D01*
X145578571Y-78572380D01*
X145483333Y-78572380D01*
X145340476Y-78620000D01*
X145292857Y-78667619D01*
X144340476Y-79572380D02*
X144911904Y-79572380D01*
X144626190Y-79572380D02*
X144626190Y-78572380D01*
X144721428Y-78715238D01*
X144816666Y-78810476D01*
X144911904Y-78858095D01*
X143483333Y-78572380D02*
X143673809Y-78572380D01*
X143769047Y-78620000D01*
X143816666Y-78667619D01*
X143911904Y-78810476D01*
X143959523Y-79000952D01*
X143959523Y-79381904D01*
X143911904Y-79477142D01*
X143864285Y-79524761D01*
X143769047Y-79572380D01*
X143578571Y-79572380D01*
X143483333Y-79524761D01*
X143435714Y-79477142D01*
X143388095Y-79381904D01*
X143388095Y-79143809D01*
X143435714Y-79048571D01*
X143483333Y-79000952D01*
X143578571Y-78953333D01*
X143769047Y-78953333D01*
X143864285Y-79000952D01*
X143911904Y-79048571D01*
X143959523Y-79143809D01*
%TO.C,R2*%
X149416666Y-145202380D02*
X149750000Y-144726190D01*
X149988095Y-145202380D02*
X149988095Y-144202380D01*
X149607142Y-144202380D01*
X149511904Y-144250000D01*
X149464285Y-144297619D01*
X149416666Y-144392857D01*
X149416666Y-144535714D01*
X149464285Y-144630952D01*
X149511904Y-144678571D01*
X149607142Y-144726190D01*
X149988095Y-144726190D01*
X149035714Y-144297619D02*
X148988095Y-144250000D01*
X148892857Y-144202380D01*
X148654761Y-144202380D01*
X148559523Y-144250000D01*
X148511904Y-144297619D01*
X148464285Y-144392857D01*
X148464285Y-144488095D01*
X148511904Y-144630952D01*
X149083333Y-145202380D01*
X148464285Y-145202380D01*
%TO.C,C13*%
X192442857Y-149157142D02*
X192490476Y-149204761D01*
X192633333Y-149252380D01*
X192728571Y-149252380D01*
X192871428Y-149204761D01*
X192966666Y-149109523D01*
X193014285Y-149014285D01*
X193061904Y-148823809D01*
X193061904Y-148680952D01*
X193014285Y-148490476D01*
X192966666Y-148395238D01*
X192871428Y-148300000D01*
X192728571Y-148252380D01*
X192633333Y-148252380D01*
X192490476Y-148300000D01*
X192442857Y-148347619D01*
X191490476Y-149252380D02*
X192061904Y-149252380D01*
X191776190Y-149252380D02*
X191776190Y-148252380D01*
X191871428Y-148395238D01*
X191966666Y-148490476D01*
X192061904Y-148538095D01*
X191157142Y-148252380D02*
X190538095Y-148252380D01*
X190871428Y-148633333D01*
X190728571Y-148633333D01*
X190633333Y-148680952D01*
X190585714Y-148728571D01*
X190538095Y-148823809D01*
X190538095Y-149061904D01*
X190585714Y-149157142D01*
X190633333Y-149204761D01*
X190728571Y-149252380D01*
X191014285Y-149252380D01*
X191109523Y-149204761D01*
X191157142Y-149157142D01*
%TO.C,C9*%
X132966666Y-140107142D02*
X133014285Y-140154761D01*
X133157142Y-140202380D01*
X133252380Y-140202380D01*
X133395238Y-140154761D01*
X133490476Y-140059523D01*
X133538095Y-139964285D01*
X133585714Y-139773809D01*
X133585714Y-139630952D01*
X133538095Y-139440476D01*
X133490476Y-139345238D01*
X133395238Y-139250000D01*
X133252380Y-139202380D01*
X133157142Y-139202380D01*
X133014285Y-139250000D01*
X132966666Y-139297619D01*
X132490476Y-140202380D02*
X132300000Y-140202380D01*
X132204761Y-140154761D01*
X132157142Y-140107142D01*
X132061904Y-139964285D01*
X132014285Y-139773809D01*
X132014285Y-139392857D01*
X132061904Y-139297619D01*
X132109523Y-139250000D01*
X132204761Y-139202380D01*
X132395238Y-139202380D01*
X132490476Y-139250000D01*
X132538095Y-139297619D01*
X132585714Y-139392857D01*
X132585714Y-139630952D01*
X132538095Y-139726190D01*
X132490476Y-139773809D01*
X132395238Y-139821428D01*
X132204761Y-139821428D01*
X132109523Y-139773809D01*
X132061904Y-139726190D01*
X132014285Y-139630952D01*
%TO.C,C15*%
X172357142Y-88857142D02*
X172404761Y-88809523D01*
X172452380Y-88666666D01*
X172452380Y-88571428D01*
X172404761Y-88428571D01*
X172309523Y-88333333D01*
X172214285Y-88285714D01*
X172023809Y-88238095D01*
X171880952Y-88238095D01*
X171690476Y-88285714D01*
X171595238Y-88333333D01*
X171500000Y-88428571D01*
X171452380Y-88571428D01*
X171452380Y-88666666D01*
X171500000Y-88809523D01*
X171547619Y-88857142D01*
X172452380Y-89809523D02*
X172452380Y-89238095D01*
X172452380Y-89523809D02*
X171452380Y-89523809D01*
X171595238Y-89428571D01*
X171690476Y-89333333D01*
X171738095Y-89238095D01*
X171452380Y-90714285D02*
X171452380Y-90238095D01*
X171928571Y-90190476D01*
X171880952Y-90238095D01*
X171833333Y-90333333D01*
X171833333Y-90571428D01*
X171880952Y-90666666D01*
X171928571Y-90714285D01*
X172023809Y-90761904D01*
X172261904Y-90761904D01*
X172357142Y-90714285D01*
X172404761Y-90666666D01*
X172452380Y-90571428D01*
X172452380Y-90333333D01*
X172404761Y-90238095D01*
X172357142Y-90190476D01*
%TO.C,C5*%
X133657142Y-144833333D02*
X133704761Y-144785714D01*
X133752380Y-144642857D01*
X133752380Y-144547619D01*
X133704761Y-144404761D01*
X133609523Y-144309523D01*
X133514285Y-144261904D01*
X133323809Y-144214285D01*
X133180952Y-144214285D01*
X132990476Y-144261904D01*
X132895238Y-144309523D01*
X132800000Y-144404761D01*
X132752380Y-144547619D01*
X132752380Y-144642857D01*
X132800000Y-144785714D01*
X132847619Y-144833333D01*
X132752380Y-145738095D02*
X132752380Y-145261904D01*
X133228571Y-145214285D01*
X133180952Y-145261904D01*
X133133333Y-145357142D01*
X133133333Y-145595238D01*
X133180952Y-145690476D01*
X133228571Y-145738095D01*
X133323809Y-145785714D01*
X133561904Y-145785714D01*
X133657142Y-145738095D01*
X133704761Y-145690476D01*
X133752380Y-145595238D01*
X133752380Y-145357142D01*
X133704761Y-145261904D01*
X133657142Y-145214285D01*
%TO.C,R3*%
X189802380Y-125833333D02*
X189326190Y-125500000D01*
X189802380Y-125261904D02*
X188802380Y-125261904D01*
X188802380Y-125642857D01*
X188850000Y-125738095D01*
X188897619Y-125785714D01*
X188992857Y-125833333D01*
X189135714Y-125833333D01*
X189230952Y-125785714D01*
X189278571Y-125738095D01*
X189326190Y-125642857D01*
X189326190Y-125261904D01*
X188802380Y-126166666D02*
X188802380Y-126785714D01*
X189183333Y-126452380D01*
X189183333Y-126595238D01*
X189230952Y-126690476D01*
X189278571Y-126738095D01*
X189373809Y-126785714D01*
X189611904Y-126785714D01*
X189707142Y-126738095D01*
X189754761Y-126690476D01*
X189802380Y-126595238D01*
X189802380Y-126309523D01*
X189754761Y-126214285D01*
X189707142Y-126166666D01*
%TO.C,C11*%
X244242857Y-142757142D02*
X244290476Y-142804761D01*
X244433333Y-142852380D01*
X244528571Y-142852380D01*
X244671428Y-142804761D01*
X244766666Y-142709523D01*
X244814285Y-142614285D01*
X244861904Y-142423809D01*
X244861904Y-142280952D01*
X244814285Y-142090476D01*
X244766666Y-141995238D01*
X244671428Y-141900000D01*
X244528571Y-141852380D01*
X244433333Y-141852380D01*
X244290476Y-141900000D01*
X244242857Y-141947619D01*
X243290476Y-142852380D02*
X243861904Y-142852380D01*
X243576190Y-142852380D02*
X243576190Y-141852380D01*
X243671428Y-141995238D01*
X243766666Y-142090476D01*
X243861904Y-142138095D01*
X242338095Y-142852380D02*
X242909523Y-142852380D01*
X242623809Y-142852380D02*
X242623809Y-141852380D01*
X242719047Y-141995238D01*
X242814285Y-142090476D01*
X242909523Y-142138095D01*
%TO.C,C7*%
X132966666Y-137607142D02*
X133014285Y-137654761D01*
X133157142Y-137702380D01*
X133252380Y-137702380D01*
X133395238Y-137654761D01*
X133490476Y-137559523D01*
X133538095Y-137464285D01*
X133585714Y-137273809D01*
X133585714Y-137130952D01*
X133538095Y-136940476D01*
X133490476Y-136845238D01*
X133395238Y-136750000D01*
X133252380Y-136702380D01*
X133157142Y-136702380D01*
X133014285Y-136750000D01*
X132966666Y-136797619D01*
X132633333Y-136702380D02*
X131966666Y-136702380D01*
X132395238Y-137702380D01*
%TO.C,C12*%
X128407142Y-143857142D02*
X128454761Y-143809523D01*
X128502380Y-143666666D01*
X128502380Y-143571428D01*
X128454761Y-143428571D01*
X128359523Y-143333333D01*
X128264285Y-143285714D01*
X128073809Y-143238095D01*
X127930952Y-143238095D01*
X127740476Y-143285714D01*
X127645238Y-143333333D01*
X127550000Y-143428571D01*
X127502380Y-143571428D01*
X127502380Y-143666666D01*
X127550000Y-143809523D01*
X127597619Y-143857142D01*
X128502380Y-144809523D02*
X128502380Y-144238095D01*
X128502380Y-144523809D02*
X127502380Y-144523809D01*
X127645238Y-144428571D01*
X127740476Y-144333333D01*
X127788095Y-144238095D01*
X127597619Y-145190476D02*
X127550000Y-145238095D01*
X127502380Y-145333333D01*
X127502380Y-145571428D01*
X127550000Y-145666666D01*
X127597619Y-145714285D01*
X127692857Y-145761904D01*
X127788095Y-145761904D01*
X127930952Y-145714285D01*
X128502380Y-145142857D01*
X128502380Y-145761904D01*
%TO.C,C17*%
X140642857Y-108857142D02*
X140690476Y-108904761D01*
X140833333Y-108952380D01*
X140928571Y-108952380D01*
X141071428Y-108904761D01*
X141166666Y-108809523D01*
X141214285Y-108714285D01*
X141261904Y-108523809D01*
X141261904Y-108380952D01*
X141214285Y-108190476D01*
X141166666Y-108095238D01*
X141071428Y-108000000D01*
X140928571Y-107952380D01*
X140833333Y-107952380D01*
X140690476Y-108000000D01*
X140642857Y-108047619D01*
X139690476Y-108952380D02*
X140261904Y-108952380D01*
X139976190Y-108952380D02*
X139976190Y-107952380D01*
X140071428Y-108095238D01*
X140166666Y-108190476D01*
X140261904Y-108238095D01*
X139357142Y-107952380D02*
X138690476Y-107952380D01*
X139119047Y-108952380D01*
%TO.C,C8*%
X244166666Y-148557142D02*
X244214285Y-148604761D01*
X244357142Y-148652380D01*
X244452380Y-148652380D01*
X244595238Y-148604761D01*
X244690476Y-148509523D01*
X244738095Y-148414285D01*
X244785714Y-148223809D01*
X244785714Y-148080952D01*
X244738095Y-147890476D01*
X244690476Y-147795238D01*
X244595238Y-147700000D01*
X244452380Y-147652380D01*
X244357142Y-147652380D01*
X244214285Y-147700000D01*
X244166666Y-147747619D01*
X243595238Y-148080952D02*
X243690476Y-148033333D01*
X243738095Y-147985714D01*
X243785714Y-147890476D01*
X243785714Y-147842857D01*
X243738095Y-147747619D01*
X243690476Y-147700000D01*
X243595238Y-147652380D01*
X243404761Y-147652380D01*
X243309523Y-147700000D01*
X243261904Y-147747619D01*
X243214285Y-147842857D01*
X243214285Y-147890476D01*
X243261904Y-147985714D01*
X243309523Y-148033333D01*
X243404761Y-148080952D01*
X243595238Y-148080952D01*
X243690476Y-148128571D01*
X243738095Y-148176190D01*
X243785714Y-148271428D01*
X243785714Y-148461904D01*
X243738095Y-148557142D01*
X243690476Y-148604761D01*
X243595238Y-148652380D01*
X243404761Y-148652380D01*
X243309523Y-148604761D01*
X243261904Y-148557142D01*
X243214285Y-148461904D01*
X243214285Y-148271428D01*
X243261904Y-148176190D01*
X243309523Y-148128571D01*
X243404761Y-148080952D01*
%TO.C,C23*%
X183293367Y-132617142D02*
X183340986Y-132664761D01*
X183483843Y-132712380D01*
X183579081Y-132712380D01*
X183721938Y-132664761D01*
X183817176Y-132569523D01*
X183864795Y-132474285D01*
X183912414Y-132283809D01*
X183912414Y-132140952D01*
X183864795Y-131950476D01*
X183817176Y-131855238D01*
X183721938Y-131760000D01*
X183579081Y-131712380D01*
X183483843Y-131712380D01*
X183340986Y-131760000D01*
X183293367Y-131807619D01*
X182912414Y-131807619D02*
X182864795Y-131760000D01*
X182769557Y-131712380D01*
X182531462Y-131712380D01*
X182436224Y-131760000D01*
X182388605Y-131807619D01*
X182340986Y-131902857D01*
X182340986Y-131998095D01*
X182388605Y-132140952D01*
X182960033Y-132712380D01*
X182340986Y-132712380D01*
X182007652Y-131712380D02*
X181388605Y-131712380D01*
X181721938Y-132093333D01*
X181579081Y-132093333D01*
X181483843Y-132140952D01*
X181436224Y-132188571D01*
X181388605Y-132283809D01*
X181388605Y-132521904D01*
X181436224Y-132617142D01*
X181483843Y-132664761D01*
X181579081Y-132712380D01*
X181864795Y-132712380D01*
X181960033Y-132664761D01*
X182007652Y-132617142D01*
%TO.C,R13*%
X147213367Y-125052380D02*
X147546700Y-124576190D01*
X147784795Y-125052380D02*
X147784795Y-124052380D01*
X147403843Y-124052380D01*
X147308605Y-124100000D01*
X147260986Y-124147619D01*
X147213367Y-124242857D01*
X147213367Y-124385714D01*
X147260986Y-124480952D01*
X147308605Y-124528571D01*
X147403843Y-124576190D01*
X147784795Y-124576190D01*
X146260986Y-125052380D02*
X146832414Y-125052380D01*
X146546700Y-125052380D02*
X146546700Y-124052380D01*
X146641938Y-124195238D01*
X146737176Y-124290476D01*
X146832414Y-124338095D01*
X145927652Y-124052380D02*
X145308605Y-124052380D01*
X145641938Y-124433333D01*
X145499081Y-124433333D01*
X145403843Y-124480952D01*
X145356224Y-124528571D01*
X145308605Y-124623809D01*
X145308605Y-124861904D01*
X145356224Y-124957142D01*
X145403843Y-125004761D01*
X145499081Y-125052380D01*
X145784795Y-125052380D01*
X145880033Y-125004761D01*
X145927652Y-124957142D01*
%TO.C,R12*%
X272142857Y-138802380D02*
X272476190Y-138326190D01*
X272714285Y-138802380D02*
X272714285Y-137802380D01*
X272333333Y-137802380D01*
X272238095Y-137850000D01*
X272190476Y-137897619D01*
X272142857Y-137992857D01*
X272142857Y-138135714D01*
X272190476Y-138230952D01*
X272238095Y-138278571D01*
X272333333Y-138326190D01*
X272714285Y-138326190D01*
X271190476Y-138802380D02*
X271761904Y-138802380D01*
X271476190Y-138802380D02*
X271476190Y-137802380D01*
X271571428Y-137945238D01*
X271666666Y-138040476D01*
X271761904Y-138088095D01*
X270809523Y-137897619D02*
X270761904Y-137850000D01*
X270666666Y-137802380D01*
X270428571Y-137802380D01*
X270333333Y-137850000D01*
X270285714Y-137897619D01*
X270238095Y-137992857D01*
X270238095Y-138088095D01*
X270285714Y-138230952D01*
X270857142Y-138802380D01*
X270238095Y-138802380D01*
%TO.C,C14*%
X130692857Y-141357142D02*
X130740476Y-141404761D01*
X130883333Y-141452380D01*
X130978571Y-141452380D01*
X131121428Y-141404761D01*
X131216666Y-141309523D01*
X131264285Y-141214285D01*
X131311904Y-141023809D01*
X131311904Y-140880952D01*
X131264285Y-140690476D01*
X131216666Y-140595238D01*
X131121428Y-140500000D01*
X130978571Y-140452380D01*
X130883333Y-140452380D01*
X130740476Y-140500000D01*
X130692857Y-140547619D01*
X129740476Y-141452380D02*
X130311904Y-141452380D01*
X130026190Y-141452380D02*
X130026190Y-140452380D01*
X130121428Y-140595238D01*
X130216666Y-140690476D01*
X130311904Y-140738095D01*
X128883333Y-140785714D02*
X128883333Y-141452380D01*
X129121428Y-140404761D02*
X129359523Y-141119047D01*
X128740476Y-141119047D01*
%TO.C,R10*%
X214802380Y-125357142D02*
X214326190Y-125023809D01*
X214802380Y-124785714D02*
X213802380Y-124785714D01*
X213802380Y-125166666D01*
X213850000Y-125261904D01*
X213897619Y-125309523D01*
X213992857Y-125357142D01*
X214135714Y-125357142D01*
X214230952Y-125309523D01*
X214278571Y-125261904D01*
X214326190Y-125166666D01*
X214326190Y-124785714D01*
X214802380Y-126309523D02*
X214802380Y-125738095D01*
X214802380Y-126023809D02*
X213802380Y-126023809D01*
X213945238Y-125928571D01*
X214040476Y-125833333D01*
X214088095Y-125738095D01*
X213802380Y-126928571D02*
X213802380Y-127023809D01*
X213850000Y-127119047D01*
X213897619Y-127166666D01*
X213992857Y-127214285D01*
X214183333Y-127261904D01*
X214421428Y-127261904D01*
X214611904Y-127214285D01*
X214707142Y-127166666D01*
X214754761Y-127119047D01*
X214802380Y-127023809D01*
X214802380Y-126928571D01*
X214754761Y-126833333D01*
X214707142Y-126785714D01*
X214611904Y-126738095D01*
X214421428Y-126690476D01*
X214183333Y-126690476D01*
X213992857Y-126738095D01*
X213897619Y-126785714D01*
X213850000Y-126833333D01*
X213802380Y-126928571D01*
%TO.C,R4*%
X189802380Y-120833333D02*
X189326190Y-120500000D01*
X189802380Y-120261904D02*
X188802380Y-120261904D01*
X188802380Y-120642857D01*
X188850000Y-120738095D01*
X188897619Y-120785714D01*
X188992857Y-120833333D01*
X189135714Y-120833333D01*
X189230952Y-120785714D01*
X189278571Y-120738095D01*
X189326190Y-120642857D01*
X189326190Y-120261904D01*
X189135714Y-121690476D02*
X189802380Y-121690476D01*
X188754761Y-121452380D02*
X189469047Y-121214285D01*
X189469047Y-121833333D01*
D12*
%TO.C,J5*%
X109836000Y-153350000D02*
G75*
G03*
X109836000Y-153350000I-381000J0D01*
G01*
%TO.C,J1*%
X206991000Y-86405000D02*
G75*
G03*
X206991000Y-86405000I-381000J0D01*
G01*
%TO.C,J2*%
X229991000Y-86405000D02*
G75*
G03*
X229991000Y-86405000I-381000J0D01*
G01*
D13*
%TO.C,R11*%
X269772936Y-120765000D02*
X270227064Y-120765000D01*
X269772936Y-122235000D02*
X270227064Y-122235000D01*
%TO.C,R5*%
X244727064Y-128265000D02*
X244272936Y-128265000D01*
X244727064Y-129735000D02*
X244272936Y-129735000D01*
%TO.C,C3*%
X216735000Y-146511252D02*
X216735000Y-145988748D01*
X215265000Y-146511252D02*
X215265000Y-145988748D01*
%TO.C,R1*%
X158235000Y-134727064D02*
X158235000Y-134272936D01*
X156765000Y-134727064D02*
X156765000Y-134272936D01*
%TO.C,C6*%
X136083752Y-143485000D02*
X135561248Y-143485000D01*
X136083752Y-142015000D02*
X135561248Y-142015000D01*
%TO.C,R15*%
X159385000Y-84572936D02*
X159385000Y-85027064D01*
X157915000Y-84572936D02*
X157915000Y-85027064D01*
%TO.C,R14*%
X269765000Y-128327064D02*
X269765000Y-127872936D01*
X271235000Y-128327064D02*
X271235000Y-127872936D01*
%TO.C,R7*%
X215265000Y-120772936D02*
X215265000Y-121227064D01*
X216735000Y-120772936D02*
X216735000Y-121227064D01*
%TO.C,C1*%
X219235000Y-146511252D02*
X219235000Y-145988748D01*
X217765000Y-146511252D02*
X217765000Y-145988748D01*
%TO.C,R8*%
X218735000Y-141022936D02*
X218735000Y-141477064D01*
X217265000Y-141022936D02*
X217265000Y-141477064D01*
%TO.C,R6*%
X244727064Y-124735000D02*
X244272936Y-124735000D01*
X244727064Y-123265000D02*
X244272936Y-123265000D01*
%TO.C,C22*%
X148761252Y-126765000D02*
X148238748Y-126765000D01*
X148761252Y-128235000D02*
X148238748Y-128235000D01*
%TO.C,C2*%
X271665000Y-145698752D02*
X271665000Y-145176248D01*
X273135000Y-145698752D02*
X273135000Y-145176248D01*
%TO.C,C10*%
X189735000Y-146548752D02*
X189735000Y-146026248D01*
X188265000Y-146548752D02*
X188265000Y-146026248D01*
%TO.C,C4*%
X270735000Y-145761252D02*
X270735000Y-145238748D01*
X269265000Y-145761252D02*
X269265000Y-145238748D01*
%TO.C,R9*%
X149985000Y-134272936D02*
X149985000Y-134727064D01*
X148515000Y-134272936D02*
X148515000Y-134727064D01*
%TO.C,C16*%
X144911252Y-81535000D02*
X144388748Y-81535000D01*
X144911252Y-80065000D02*
X144388748Y-80065000D01*
%TO.C,R2*%
X149985000Y-142477064D02*
X149985000Y-142022936D01*
X148515000Y-142477064D02*
X148515000Y-142022936D01*
%TO.C,C13*%
X190765000Y-146548752D02*
X190765000Y-146026248D01*
X192235000Y-146548752D02*
X192235000Y-146026248D01*
%TO.C,C9*%
X136061252Y-138765000D02*
X135538748Y-138765000D01*
X136061252Y-140235000D02*
X135538748Y-140235000D01*
%TO.C,C15*%
X174735000Y-89761252D02*
X174735000Y-89238748D01*
X173265000Y-89761252D02*
X173265000Y-89238748D01*
%TO.C,C5*%
X136061252Y-144265000D02*
X135538748Y-144265000D01*
X136061252Y-145735000D02*
X135538748Y-145735000D01*
%TO.C,R3*%
X190265000Y-125772936D02*
X190265000Y-126227064D01*
X191735000Y-125772936D02*
X191735000Y-126227064D01*
%TO.C,C11*%
X244761252Y-144735000D02*
X244238748Y-144735000D01*
X244761252Y-143265000D02*
X244238748Y-143265000D01*
%TO.C,C7*%
X136061252Y-137985000D02*
X135538748Y-137985000D01*
X136061252Y-136515000D02*
X135538748Y-136515000D01*
%TO.C,C12*%
X130251248Y-145735000D02*
X130773752Y-145735000D01*
X130251248Y-144265000D02*
X130773752Y-144265000D01*
%TO.C,C17*%
X139265000Y-110738748D02*
X139265000Y-111261252D01*
X140735000Y-110738748D02*
X140735000Y-111261252D01*
%TO.C,C8*%
X244761252Y-145765000D02*
X244238748Y-145765000D01*
X244761252Y-147235000D02*
X244238748Y-147235000D01*
%TO.C,C23*%
X179415510Y-132521252D02*
X179415510Y-131998748D01*
X180885510Y-132521252D02*
X180885510Y-131998748D01*
%TO.C,R13*%
X149885510Y-124487064D02*
X149885510Y-124032936D01*
X148415510Y-124487064D02*
X148415510Y-124032936D01*
%TO.C,R12*%
X271727064Y-139265000D02*
X271272936Y-139265000D01*
X271727064Y-140735000D02*
X271272936Y-140735000D01*
%TO.C,C14*%
X130288748Y-142015000D02*
X130811252Y-142015000D01*
X130288748Y-143485000D02*
X130811252Y-143485000D01*
%TO.C,R10*%
X216735000Y-125772936D02*
X216735000Y-126227064D01*
X215265000Y-125772936D02*
X215265000Y-126227064D01*
%TO.C,R4*%
X190265000Y-120772936D02*
X190265000Y-121227064D01*
X191735000Y-120772936D02*
X191735000Y-121227064D01*
%TD*%
M02*
