%TF.GenerationSoftware,KiCad,Pcbnew,(6.0.0)*%
%TF.CreationDate,2024-06-19T19:19:11-04:00*%
%TF.ProjectId,MCD_Rev2,4d43445f-5265-4763-922e-6b696361645f,rev?*%
%TF.SameCoordinates,Original*%
%TF.FileFunction,Soldermask,Top*%
%TF.FilePolarity,Negative*%
%FSLAX46Y46*%
G04 Gerber Fmt 4.6, Leading zero omitted, Abs format (unit mm)*
G04 Created by KiCad (PCBNEW (6.0.0)) date 2024-06-19 19:19:11*
%MOMM*%
%LPD*%
G01*
G04 APERTURE LIST*
G04 Aperture macros list*
%AMRoundRect*
0 Rectangle with rounded corners*
0 $1 Rounding radius*
0 $2 $3 $4 $5 $6 $7 $8 $9 X,Y pos of 4 corners*
0 Add a 4 corners polygon primitive as box body*
4,1,4,$2,$3,$4,$5,$6,$7,$8,$9,$2,$3,0*
0 Add four circle primitives for the rounded corners*
1,1,$1+$1,$2,$3*
1,1,$1+$1,$4,$5*
1,1,$1+$1,$6,$7*
1,1,$1+$1,$8,$9*
0 Add four rect primitives between the rounded corners*
20,1,$1+$1,$2,$3,$4,$5,0*
20,1,$1+$1,$4,$5,$6,$7,0*
20,1,$1+$1,$6,$7,$8,$9,0*
20,1,$1+$1,$8,$9,$2,$3,0*%
%AMOutline4P*
0 Free polygon, 4 corners , with rotation*
0 The origin of the aperture is its center*
0 number of corners: always 4*
0 $1 to $8 corner X, Y*
0 $9 Rotation angle, in degrees counterclockwise*
0 create outline with 4 corners*
4,1,4,$1,$2,$3,$4,$5,$6,$7,$8,$1,$2,$9*%
G04 Aperture macros list end*
%ADD10C,1.000000*%
%ADD11C,1.270000*%
%ADD12R,2.032000X0.878794*%
%ADD13R,2.032000X0.878796*%
%ADD14R,2.032000X0.965200*%
%ADD15RoundRect,0.250000X-0.325000X-0.450000X0.325000X-0.450000X0.325000X0.450000X-0.325000X0.450000X0*%
%ADD16C,1.244600*%
%ADD17RoundRect,0.250000X0.350000X0.450000X-0.350000X0.450000X-0.350000X-0.450000X0.350000X-0.450000X0*%
%ADD18RoundRect,0.250000X0.450000X-0.325000X0.450000X0.325000X-0.450000X0.325000X-0.450000X-0.325000X0*%
%ADD19R,1.200000X2.800000*%
%ADD20R,1.000000X2.800000*%
%ADD21Outline4P,-0.500000X-1.400000X0.500000X-1.400000X0.500000X1.400000X-0.500000X1.400000X0.000000*%
%ADD22C,2.000000*%
%ADD23R,1.456400X0.800000*%
%ADD24R,1.456400X3.099999*%
%ADD25C,1.371600*%
%ADD26RoundRect,0.250000X0.475000X-0.337500X0.475000X0.337500X-0.475000X0.337500X-0.475000X-0.337500X0*%
%ADD27RoundRect,0.102000X0.579000X0.579000X-0.579000X0.579000X-0.579000X-0.579000X0.579000X-0.579000X0*%
%ADD28C,1.362000*%
%ADD29RoundRect,0.250000X-0.475000X0.337500X-0.475000X-0.337500X0.475000X-0.337500X0.475000X0.337500X0*%
%ADD30RoundRect,0.102000X-0.579000X0.579000X-0.579000X-0.579000X0.579000X-0.579000X0.579000X0.579000X0*%
%ADD31RoundRect,0.250000X-0.337500X-0.475000X0.337500X-0.475000X0.337500X0.475000X-0.337500X0.475000X0*%
%ADD32RoundRect,0.250000X-0.450000X0.325000X-0.450000X-0.325000X0.450000X-0.325000X0.450000X0.325000X0*%
%ADD33RoundRect,0.102000X-0.700000X-0.700000X0.700000X-0.700000X0.700000X0.700000X-0.700000X0.700000X0*%
%ADD34C,1.604000*%
G04 APERTURE END LIST*
D10*
%TO.C,R/W*%
X218500000Y-98000000D03*
%TD*%
%TO.C,LDS*%
X147500000Y-124750000D03*
%TD*%
%TO.C,UDS*%
X148250000Y-118750000D03*
%TD*%
%TO.C,BERR*%
X146750000Y-142000000D03*
%TD*%
%TO.C,RESET*%
X129750000Y-108750000D03*
%TD*%
%TO.C,HALT*%
X147250000Y-135500000D03*
%TD*%
D11*
%TO.C,J8*%
X130867123Y-78570000D03*
X128327123Y-78570000D03*
X125787123Y-78570000D03*
X123247123Y-78570000D03*
X120707123Y-78570000D03*
X118167123Y-78570000D03*
%TD*%
D12*
%TO.C,U10*%
X117442323Y-173054000D03*
D13*
X117442323Y-175086000D03*
D14*
X120541123Y-174019200D03*
%TD*%
D15*
%TO.C,D5*%
X106017123Y-119070000D03*
X108067123Y-119070000D03*
%TD*%
D16*
%TO.C,U4*%
X208667123Y-150370000D03*
X208667123Y-147830000D03*
X208667123Y-145290000D03*
X208667123Y-142750000D03*
X208667123Y-140210000D03*
X208667123Y-137670000D03*
X208667123Y-135130000D03*
X208667123Y-132590000D03*
X208667123Y-130050000D03*
X208667123Y-127510000D03*
X208667123Y-124970000D03*
X208667123Y-122430000D03*
X208667123Y-119890000D03*
X208667123Y-117350000D03*
X208667123Y-114810000D03*
X208667123Y-112270000D03*
X193427123Y-112270000D03*
X193427123Y-114810000D03*
X193427123Y-117350000D03*
X193427123Y-119890000D03*
X193427123Y-122430000D03*
X193427123Y-124970000D03*
X193427123Y-127510000D03*
X193427123Y-130050000D03*
X193427123Y-132590000D03*
X193427123Y-135130000D03*
X193427123Y-137670000D03*
X193427123Y-140210000D03*
X193427123Y-142750000D03*
X193427123Y-145290000D03*
X193427123Y-147830000D03*
X193427123Y-150370000D03*
%TD*%
D17*
%TO.C,R21*%
X112517123Y-122070000D03*
X110517123Y-122070000D03*
%TD*%
D18*
%TO.C,D1*%
X105017123Y-97095000D03*
X105017123Y-95045000D03*
%TD*%
D11*
%TO.C,J4*%
X105517123Y-83760000D03*
X105517123Y-86300000D03*
X105517123Y-88840000D03*
X105517123Y-91380000D03*
%TD*%
D19*
%TO.C,U8*%
X108147123Y-169470000D03*
D20*
X109867123Y-169470000D03*
X109867123Y-165870000D03*
D21*
X107967123Y-165870000D03*
%TD*%
D16*
%TO.C,U3*%
X289907123Y-149870000D03*
X289907123Y-147330000D03*
X289907123Y-144790000D03*
X289907123Y-142250000D03*
X289907123Y-139710000D03*
X289907123Y-137170000D03*
X289907123Y-134630000D03*
X289907123Y-132090000D03*
X289907123Y-129550000D03*
X289907123Y-127010000D03*
X289907123Y-124470000D03*
X289907123Y-121930000D03*
X289907123Y-119390000D03*
X289907123Y-116850000D03*
X289907123Y-114310000D03*
X289907123Y-111770000D03*
X274667123Y-111770000D03*
X274667123Y-114310000D03*
X274667123Y-116850000D03*
X274667123Y-119390000D03*
X274667123Y-121930000D03*
X274667123Y-124470000D03*
X274667123Y-127010000D03*
X274667123Y-129550000D03*
X274667123Y-132090000D03*
X274667123Y-134630000D03*
X274667123Y-137170000D03*
X274667123Y-139710000D03*
X274667123Y-142250000D03*
X274667123Y-144790000D03*
X274667123Y-147330000D03*
X274667123Y-149870000D03*
%TD*%
D22*
%TO.C,SW1*%
X105267123Y-173320000D03*
X105267123Y-179820000D03*
X109767123Y-179820000D03*
X109767123Y-173320000D03*
%TD*%
D11*
%TO.C,J5*%
X107567123Y-156420000D03*
X107567123Y-153880000D03*
X107567123Y-151340000D03*
X107567123Y-148800000D03*
X107567123Y-146260000D03*
X107567123Y-143720000D03*
%TD*%
D16*
%TO.C,U5*%
X262837123Y-149910000D03*
X262837123Y-147370000D03*
X262837123Y-144830000D03*
X262837123Y-142290000D03*
X262837123Y-139750000D03*
X262837123Y-137210000D03*
X262837123Y-134670000D03*
X262837123Y-132130000D03*
X262837123Y-129590000D03*
X262837123Y-127050000D03*
X262837123Y-124510000D03*
X262837123Y-121970000D03*
X262837123Y-119430000D03*
X262837123Y-116890000D03*
X262837123Y-114350000D03*
X262837123Y-111810000D03*
X247597123Y-111810000D03*
X247597123Y-114350000D03*
X247597123Y-116890000D03*
X247597123Y-119430000D03*
X247597123Y-121970000D03*
X247597123Y-124510000D03*
X247597123Y-127050000D03*
X247597123Y-129590000D03*
X247597123Y-132130000D03*
X247597123Y-134670000D03*
X247597123Y-137210000D03*
X247597123Y-139750000D03*
X247597123Y-142290000D03*
X247597123Y-144830000D03*
X247597123Y-147370000D03*
X247597123Y-149910000D03*
%TD*%
%TO.C,U2*%
X235907123Y-150370000D03*
X235907123Y-147830000D03*
X235907123Y-145290000D03*
X235907123Y-142750000D03*
X235907123Y-140210000D03*
X235907123Y-137670000D03*
X235907123Y-135130000D03*
X235907123Y-132590000D03*
X235907123Y-130050000D03*
X235907123Y-127510000D03*
X235907123Y-124970000D03*
X235907123Y-122430000D03*
X235907123Y-119890000D03*
X235907123Y-117350000D03*
X235907123Y-114810000D03*
X235907123Y-112270000D03*
X220667123Y-112270000D03*
X220667123Y-114810000D03*
X220667123Y-117350000D03*
X220667123Y-119890000D03*
X220667123Y-122430000D03*
X220667123Y-124970000D03*
X220667123Y-127510000D03*
X220667123Y-130050000D03*
X220667123Y-132590000D03*
X220667123Y-135130000D03*
X220667123Y-137670000D03*
X220667123Y-140210000D03*
X220667123Y-142750000D03*
X220667123Y-145290000D03*
X220667123Y-147830000D03*
X220667123Y-150370000D03*
%TD*%
D15*
%TO.C,D4*%
X106017123Y-116070000D03*
X108067123Y-116070000D03*
%TD*%
D17*
%TO.C,R23*%
X109517123Y-106070000D03*
X107517123Y-106070000D03*
%TD*%
D23*
%TO.C,U7*%
X112042923Y-98270000D03*
X112042923Y-100570000D03*
X112042923Y-102870000D03*
D24*
X117991323Y-100570000D03*
%TD*%
D25*
%TO.C,U6*%
X145937123Y-89520000D03*
X143397123Y-86980000D03*
X143397123Y-89520000D03*
X140857123Y-86980000D03*
X140857123Y-89520000D03*
X138317123Y-86980000D03*
X135777123Y-89520000D03*
X138317123Y-89520000D03*
X135777123Y-92060000D03*
X138317123Y-92060000D03*
X135777123Y-94600000D03*
X138317123Y-94600000D03*
X135777123Y-97140000D03*
X138317123Y-97140000D03*
X135777123Y-99680000D03*
X138317123Y-99680000D03*
X135777123Y-102220000D03*
X138317123Y-104760000D03*
X138317123Y-102220000D03*
X140857123Y-104760000D03*
X140857123Y-102220000D03*
X143397123Y-104760000D03*
X143397123Y-102220000D03*
X145937123Y-104760000D03*
X145937123Y-102220000D03*
X148477123Y-104760000D03*
X148477123Y-102220000D03*
X151017123Y-104760000D03*
X153557123Y-102220000D03*
X151017123Y-102220000D03*
X153557123Y-99680000D03*
X151017123Y-99680000D03*
X153557123Y-97140000D03*
X151017123Y-97140000D03*
X153557123Y-94600000D03*
X151017123Y-94600000D03*
X153557123Y-92060000D03*
X151017123Y-92060000D03*
X153557123Y-89520000D03*
X151017123Y-86980000D03*
X151017123Y-89520000D03*
X148477123Y-86980000D03*
X148477123Y-89520000D03*
X145937123Y-86980000D03*
%TD*%
D15*
%TO.C,D7*%
X106017123Y-125070000D03*
X108067123Y-125070000D03*
%TD*%
D11*
%TO.C,J3*%
X293177123Y-177501105D03*
X293177123Y-180041105D03*
X290637123Y-177501105D03*
X290637123Y-180041105D03*
X288097123Y-177501105D03*
X288097123Y-180041105D03*
X285557123Y-177501105D03*
X285557123Y-180041105D03*
X283017123Y-177501105D03*
X283017123Y-180041105D03*
X280477123Y-177501105D03*
X280477123Y-180041105D03*
X277937123Y-177501105D03*
X277937123Y-180041105D03*
X275397123Y-177501105D03*
X275397123Y-180041105D03*
X272857123Y-177501105D03*
X272857123Y-180041105D03*
%TD*%
D26*
%TO.C,C19*%
X109517123Y-103607500D03*
X109517123Y-101532500D03*
%TD*%
D27*
%TO.C,Y1*%
X176287123Y-86060000D03*
D28*
X161047123Y-86060000D03*
X161047123Y-93680000D03*
X176287123Y-93680000D03*
%TD*%
D15*
%TO.C,D2*%
X105992123Y-110070000D03*
X108042123Y-110070000D03*
%TD*%
D11*
%TO.C,J1*%
X206627123Y-87570000D03*
X209167123Y-87570000D03*
X211707123Y-87570000D03*
X214247123Y-87570000D03*
X216787123Y-87570000D03*
X219327123Y-87570000D03*
X221867123Y-87570000D03*
X224407123Y-87570000D03*
%TD*%
D17*
%TO.C,R22*%
X112517123Y-125070000D03*
X110517123Y-125070000D03*
%TD*%
%TO.C,R18*%
X112517123Y-113070000D03*
X110517123Y-113070000D03*
%TD*%
D29*
%TO.C,C21*%
X105517123Y-166532500D03*
X105517123Y-168607500D03*
%TD*%
D17*
%TO.C,R17*%
X112492123Y-110070000D03*
X110492123Y-110070000D03*
%TD*%
%TO.C,R19*%
X112517123Y-116070000D03*
X110517123Y-116070000D03*
%TD*%
%TO.C,R20*%
X112517123Y-119070000D03*
X110517123Y-119070000D03*
%TD*%
D25*
%TO.C,U1*%
X134337123Y-137720000D03*
X131797123Y-135180000D03*
X131797123Y-137720000D03*
X129257123Y-135180000D03*
X129257123Y-137720000D03*
X126717123Y-135180000D03*
X124177123Y-137720000D03*
X126717123Y-137720000D03*
X124177123Y-140260000D03*
X126717123Y-140260000D03*
X124177123Y-142800000D03*
X126717123Y-142800000D03*
X124177123Y-145340000D03*
X126717123Y-145340000D03*
X124177123Y-147880000D03*
X126717123Y-147880000D03*
X124177123Y-150420000D03*
X126717123Y-152960000D03*
X126717123Y-150420000D03*
X129257123Y-152960000D03*
X129257123Y-150420000D03*
X131797123Y-152960000D03*
X131797123Y-150420000D03*
X134337123Y-152960000D03*
X134337123Y-150420000D03*
X136877123Y-152960000D03*
X136877123Y-150420000D03*
X139417123Y-152960000D03*
X141957123Y-150420000D03*
X139417123Y-150420000D03*
X141957123Y-147880000D03*
X139417123Y-147880000D03*
X141957123Y-145340000D03*
X139417123Y-145340000D03*
X141957123Y-142800000D03*
X139417123Y-142800000D03*
X141957123Y-140260000D03*
X139417123Y-140260000D03*
X141957123Y-137720000D03*
X139417123Y-135180000D03*
X139417123Y-137720000D03*
X136877123Y-135180000D03*
X136877123Y-137720000D03*
X134337123Y-135180000D03*
%TD*%
D30*
%TO.C,Y2*%
X135207123Y-112950000D03*
D28*
X135207123Y-128190000D03*
X142827123Y-128190000D03*
X142827123Y-112950000D03*
%TD*%
D11*
%TO.C,J6*%
X109477123Y-78570000D03*
X112017123Y-78570000D03*
%TD*%
D29*
%TO.C,C18*%
X109517123Y-97532500D03*
X109517123Y-99607500D03*
%TD*%
D11*
%TO.C,J2*%
X229627123Y-87570000D03*
X232167123Y-87570000D03*
X234707123Y-87570000D03*
X237247123Y-87570000D03*
X239787123Y-87570000D03*
X242327123Y-87570000D03*
X244867123Y-87570000D03*
X247407123Y-87570000D03*
%TD*%
D31*
%TO.C,C20*%
X117017123Y-177570000D03*
X119092123Y-177570000D03*
%TD*%
D15*
%TO.C,D3*%
X106017123Y-113070000D03*
X108067123Y-113070000D03*
%TD*%
D32*
%TO.C,D8*%
X105017123Y-104045000D03*
X105017123Y-106095000D03*
%TD*%
D17*
%TO.C,R16*%
X109517123Y-95070000D03*
X107517123Y-95070000D03*
%TD*%
D33*
%TO.C,U9*%
X164667633Y-123630000D03*
D34*
X164667633Y-126170000D03*
X162127633Y-123630000D03*
X162127633Y-126170000D03*
X159587633Y-123630000D03*
X159587633Y-126170000D03*
X157047633Y-123630000D03*
X157047633Y-126170000D03*
X154507633Y-123630000D03*
X151967633Y-126170000D03*
X154507633Y-126170000D03*
X151967633Y-128710000D03*
X154507633Y-128710000D03*
X151967633Y-131250000D03*
X154507633Y-131250000D03*
X151967633Y-133790000D03*
X154507633Y-133790000D03*
X151967633Y-136330000D03*
X154507633Y-136330000D03*
X151967633Y-138870000D03*
X154507633Y-138870000D03*
X151967633Y-141410000D03*
X154507633Y-141410000D03*
X151967633Y-143950000D03*
X154507633Y-143950000D03*
X151967633Y-146490000D03*
X154507633Y-149030000D03*
X154507633Y-146490000D03*
X157047633Y-149030000D03*
X157047633Y-146490000D03*
X159587633Y-149030000D03*
X159587633Y-146490000D03*
X162127633Y-149030000D03*
X162127633Y-146490000D03*
X164667633Y-149030000D03*
X164667633Y-146490000D03*
X167207633Y-149030000D03*
X167207633Y-146490000D03*
X169747633Y-149030000D03*
X169747633Y-146490000D03*
X172287633Y-149030000D03*
X172287633Y-146490000D03*
X174827633Y-149030000D03*
X177367633Y-146490000D03*
X174827633Y-146490000D03*
X177367633Y-143950000D03*
X174827633Y-143950000D03*
X177367633Y-141410000D03*
X174827633Y-141410000D03*
X177367633Y-138870000D03*
X174827633Y-138870000D03*
X177367633Y-136330000D03*
X174827633Y-136330000D03*
X177367633Y-133790000D03*
X174827633Y-133790000D03*
X177367633Y-131250000D03*
X174827633Y-131250000D03*
X177367633Y-128710000D03*
X174827633Y-128710000D03*
X177367633Y-126170000D03*
X174827633Y-123630000D03*
X174827633Y-126170000D03*
X172287633Y-123630000D03*
X172287633Y-126170000D03*
X169747633Y-123630000D03*
X169747633Y-126170000D03*
X167207633Y-123630000D03*
X167207633Y-126170000D03*
%TD*%
D15*
%TO.C,D6*%
X106017123Y-122070000D03*
X108067123Y-122070000D03*
%TD*%
D11*
%TO.C,J7*%
X173350000Y-78570000D03*
X170810000Y-78570000D03*
X168270000Y-78570000D03*
X165730000Y-78570000D03*
X163190000Y-78570000D03*
X160650000Y-78570000D03*
%TD*%
M02*
