%TF.GenerationSoftware,KiCad,Pcbnew,(6.0.0)*%
%TF.CreationDate,2024-03-23T23:35:01-05:00*%
%TF.ProjectId,MCD,4d43442e-6b69-4636-9164-5f7063625858,rev?*%
%TF.SameCoordinates,Original*%
%TF.FileFunction,Paste,Top*%
%TF.FilePolarity,Positive*%
%FSLAX46Y46*%
G04 Gerber Fmt 4.6, Leading zero omitted, Abs format (unit mm)*
G04 Created by KiCad (PCBNEW (6.0.0)) date 2024-03-23 23:35:01*
%MOMM*%
%LPD*%
G01*
G04 APERTURE LIST*
G04 Aperture macros list*
%AMRoundRect*
0 Rectangle with rounded corners*
0 $1 Rounding radius*
0 $2 $3 $4 $5 $6 $7 $8 $9 X,Y pos of 4 corners*
0 Add a 4 corners polygon primitive as box body*
4,1,4,$2,$3,$4,$5,$6,$7,$8,$9,$2,$3,0*
0 Add four circle primitives for the rounded corners*
1,1,$1+$1,$2,$3*
1,1,$1+$1,$4,$5*
1,1,$1+$1,$6,$7*
1,1,$1+$1,$8,$9*
0 Add four rect primitives between the rounded corners*
20,1,$1+$1,$2,$3,$4,$5,0*
20,1,$1+$1,$4,$5,$6,$7,0*
20,1,$1+$1,$6,$7,$8,$9,0*
20,1,$1+$1,$8,$9,$2,$3,0*%
%AMOutline4P*
0 Free polygon, 4 corners , with rotation*
0 The origin of the aperture is its center*
0 number of corners: always 4*
0 $1 to $8 corner X, Y*
0 $9 Rotation angle, in degrees counterclockwise*
0 create outline with 4 corners*
4,1,4,$1,$2,$3,$4,$5,$6,$7,$8,$1,$2,$9*%
G04 Aperture macros list end*
%ADD10R,1.200000X2.800000*%
%ADD11R,1.000000X2.800000*%
%ADD12Outline4P,-0.500000X-1.400000X0.500000X-1.400000X0.500000X1.400000X-0.500000X1.400000X0.000000*%
%ADD13R,2.032000X0.878794*%
%ADD14R,2.032000X0.878796*%
%ADD15R,2.032000X0.965200*%
%ADD16RoundRect,0.250000X-0.325000X-0.450000X0.325000X-0.450000X0.325000X0.450000X-0.325000X0.450000X0*%
%ADD17RoundRect,0.250000X0.350000X0.450000X-0.350000X0.450000X-0.350000X-0.450000X0.350000X-0.450000X0*%
%ADD18RoundRect,0.250000X0.450000X-0.325000X0.450000X0.325000X-0.450000X0.325000X-0.450000X-0.325000X0*%
%ADD19R,1.456400X0.800000*%
%ADD20R,1.456400X3.099999*%
%ADD21RoundRect,0.250000X0.475000X-0.337500X0.475000X0.337500X-0.475000X0.337500X-0.475000X-0.337500X0*%
%ADD22RoundRect,0.250000X-0.475000X0.337500X-0.475000X-0.337500X0.475000X-0.337500X0.475000X0.337500X0*%
%ADD23RoundRect,0.250000X-0.337500X-0.475000X0.337500X-0.475000X0.337500X0.475000X-0.337500X0.475000X0*%
%ADD24RoundRect,0.250000X-0.450000X0.325000X-0.450000X-0.325000X0.450000X-0.325000X0.450000X0.325000X0*%
G04 APERTURE END LIST*
D10*
%TO.C,U8*%
X108130000Y-166400000D03*
D11*
X109850000Y-166400000D03*
X109850000Y-162800000D03*
D12*
X107950000Y-162800000D03*
%TD*%
D13*
%TO.C,U10*%
X117425200Y-169984000D03*
D14*
X117425200Y-172016000D03*
D15*
X120524000Y-170949200D03*
%TD*%
D16*
%TO.C,D5*%
X106000000Y-116000000D03*
X108050000Y-116000000D03*
%TD*%
D17*
%TO.C,R21*%
X112500000Y-119000000D03*
X110500000Y-119000000D03*
%TD*%
D18*
%TO.C,D1*%
X105000000Y-94025000D03*
X105000000Y-91975000D03*
%TD*%
D16*
%TO.C,D4*%
X106000000Y-113000000D03*
X108050000Y-113000000D03*
%TD*%
D17*
%TO.C,R23*%
X109500000Y-103000000D03*
X107500000Y-103000000D03*
%TD*%
D19*
%TO.C,U7*%
X112025800Y-95200000D03*
X112025800Y-97500000D03*
X112025800Y-99800000D03*
D20*
X117974200Y-97500000D03*
%TD*%
D16*
%TO.C,D7*%
X106000000Y-122000000D03*
X108050000Y-122000000D03*
%TD*%
D21*
%TO.C,C19*%
X109500000Y-100537500D03*
X109500000Y-98462500D03*
%TD*%
D16*
%TO.C,D2*%
X105975000Y-107000000D03*
X108025000Y-107000000D03*
%TD*%
D17*
%TO.C,R22*%
X112500000Y-122000000D03*
X110500000Y-122000000D03*
%TD*%
%TO.C,R18*%
X112500000Y-110000000D03*
X110500000Y-110000000D03*
%TD*%
D22*
%TO.C,C21*%
X105500000Y-165537500D03*
X105500000Y-163462500D03*
%TD*%
D17*
%TO.C,R17*%
X112475000Y-107000000D03*
X110475000Y-107000000D03*
%TD*%
%TO.C,R19*%
X112500000Y-113000000D03*
X110500000Y-113000000D03*
%TD*%
%TO.C,R20*%
X112500000Y-116000000D03*
X110500000Y-116000000D03*
%TD*%
D22*
%TO.C,C18*%
X109500000Y-94462500D03*
X109500000Y-96537500D03*
%TD*%
D23*
%TO.C,C20*%
X117000000Y-174500000D03*
X119075000Y-174500000D03*
%TD*%
D16*
%TO.C,D3*%
X106000000Y-110000000D03*
X108050000Y-110000000D03*
%TD*%
D24*
%TO.C,D8*%
X105000000Y-100975000D03*
X105000000Y-103025000D03*
%TD*%
D17*
%TO.C,R16*%
X109500000Y-92000000D03*
X107500000Y-92000000D03*
%TD*%
D16*
%TO.C,D6*%
X106000000Y-119000000D03*
X108050000Y-119000000D03*
%TD*%
M02*
