%TF.GenerationSoftware,KiCad,Pcbnew,(6.0.0)*%
%TF.CreationDate,2024-03-23T23:35:01-05:00*%
%TF.ProjectId,MCD,4d43442e-6b69-4636-9164-5f7063625858,rev?*%
%TF.SameCoordinates,Original*%
%TF.FileFunction,Paste,Bot*%
%TF.FilePolarity,Positive*%
%FSLAX46Y46*%
G04 Gerber Fmt 4.6, Leading zero omitted, Abs format (unit mm)*
G04 Created by KiCad (PCBNEW (6.0.0)) date 2024-03-23 23:35:01*
%MOMM*%
%LPD*%
G01*
G04 APERTURE LIST*
G04 Aperture macros list*
%AMRoundRect*
0 Rectangle with rounded corners*
0 $1 Rounding radius*
0 $2 $3 $4 $5 $6 $7 $8 $9 X,Y pos of 4 corners*
0 Add a 4 corners polygon primitive as box body*
4,1,4,$2,$3,$4,$5,$6,$7,$8,$9,$2,$3,0*
0 Add four circle primitives for the rounded corners*
1,1,$1+$1,$2,$3*
1,1,$1+$1,$4,$5*
1,1,$1+$1,$6,$7*
1,1,$1+$1,$8,$9*
0 Add four rect primitives between the rounded corners*
20,1,$1+$1,$2,$3,$4,$5,0*
20,1,$1+$1,$4,$5,$6,$7,0*
20,1,$1+$1,$6,$7,$8,$9,0*
20,1,$1+$1,$8,$9,$2,$3,0*%
G04 Aperture macros list end*
%ADD10RoundRect,0.250000X-0.350000X-0.450000X0.350000X-0.450000X0.350000X0.450000X-0.350000X0.450000X0*%
%ADD11RoundRect,0.250000X0.350000X0.450000X-0.350000X0.450000X-0.350000X-0.450000X0.350000X-0.450000X0*%
%ADD12RoundRect,0.250000X0.475000X-0.337500X0.475000X0.337500X-0.475000X0.337500X-0.475000X-0.337500X0*%
%ADD13RoundRect,0.250000X0.450000X-0.350000X0.450000X0.350000X-0.450000X0.350000X-0.450000X-0.350000X0*%
%ADD14RoundRect,0.250000X0.337500X0.475000X-0.337500X0.475000X-0.337500X-0.475000X0.337500X-0.475000X0*%
%ADD15RoundRect,0.250000X-0.450000X0.350000X-0.450000X-0.350000X0.450000X-0.350000X0.450000X0.350000X0*%
%ADD16RoundRect,0.250000X-0.337500X-0.475000X0.337500X-0.475000X0.337500X0.475000X-0.337500X0.475000X0*%
%ADD17RoundRect,0.250000X-0.475000X0.337500X-0.475000X-0.337500X0.475000X-0.337500X0.475000X0.337500X0*%
G04 APERTURE END LIST*
D10*
%TO.C,R11*%
X269000000Y-121500000D03*
X271000000Y-121500000D03*
%TD*%
D11*
%TO.C,R5*%
X245500000Y-129000000D03*
X243500000Y-129000000D03*
%TD*%
D12*
%TO.C,C3*%
X216000000Y-147287500D03*
X216000000Y-145212500D03*
%TD*%
D13*
%TO.C,R1*%
X157500000Y-135500000D03*
X157500000Y-133500000D03*
%TD*%
D14*
%TO.C,C6*%
X136860000Y-142750000D03*
X134785000Y-142750000D03*
%TD*%
D15*
%TO.C,R15*%
X158650000Y-83800000D03*
X158650000Y-85800000D03*
%TD*%
D13*
%TO.C,R14*%
X270500000Y-129100000D03*
X270500000Y-127100000D03*
%TD*%
D15*
%TO.C,R7*%
X216000000Y-120000000D03*
X216000000Y-122000000D03*
%TD*%
D12*
%TO.C,C1*%
X218500000Y-147287500D03*
X218500000Y-145212500D03*
%TD*%
D15*
%TO.C,R8*%
X218000000Y-140250000D03*
X218000000Y-142250000D03*
%TD*%
D11*
%TO.C,R6*%
X245500000Y-124000000D03*
X243500000Y-124000000D03*
%TD*%
D14*
%TO.C,C22*%
X149537500Y-127500000D03*
X147462500Y-127500000D03*
%TD*%
D12*
%TO.C,C2*%
X272400000Y-146475000D03*
X272400000Y-144400000D03*
%TD*%
%TO.C,C10*%
X189000000Y-147325000D03*
X189000000Y-145250000D03*
%TD*%
%TO.C,C4*%
X270000000Y-146537500D03*
X270000000Y-144462500D03*
%TD*%
D15*
%TO.C,R9*%
X149250000Y-133500000D03*
X149250000Y-135500000D03*
%TD*%
D14*
%TO.C,C16*%
X145687500Y-80800000D03*
X143612500Y-80800000D03*
%TD*%
D13*
%TO.C,R2*%
X149250000Y-143250000D03*
X149250000Y-141250000D03*
%TD*%
D12*
%TO.C,C13*%
X191500000Y-147325000D03*
X191500000Y-145250000D03*
%TD*%
D14*
%TO.C,C9*%
X136837500Y-139500000D03*
X134762500Y-139500000D03*
%TD*%
D12*
%TO.C,C15*%
X174000000Y-90537500D03*
X174000000Y-88462500D03*
%TD*%
D14*
%TO.C,C5*%
X136837500Y-145000000D03*
X134762500Y-145000000D03*
%TD*%
D15*
%TO.C,R3*%
X191000000Y-125000000D03*
X191000000Y-127000000D03*
%TD*%
D14*
%TO.C,C11*%
X245537500Y-144000000D03*
X243462500Y-144000000D03*
%TD*%
%TO.C,C7*%
X136837500Y-137250000D03*
X134762500Y-137250000D03*
%TD*%
D16*
%TO.C,C12*%
X129475000Y-145000000D03*
X131550000Y-145000000D03*
%TD*%
D17*
%TO.C,C17*%
X140000000Y-109962500D03*
X140000000Y-112037500D03*
%TD*%
D14*
%TO.C,C8*%
X245537500Y-146500000D03*
X243462500Y-146500000D03*
%TD*%
D12*
%TO.C,C23*%
X180150510Y-133297500D03*
X180150510Y-131222500D03*
%TD*%
D13*
%TO.C,R13*%
X149150510Y-125260000D03*
X149150510Y-123260000D03*
%TD*%
D11*
%TO.C,R12*%
X272500000Y-140000000D03*
X270500000Y-140000000D03*
%TD*%
D16*
%TO.C,C14*%
X129512500Y-142750000D03*
X131587500Y-142750000D03*
%TD*%
D15*
%TO.C,R10*%
X216000000Y-125000000D03*
X216000000Y-127000000D03*
%TD*%
%TO.C,R4*%
X191000000Y-120000000D03*
X191000000Y-122000000D03*
%TD*%
M02*
